<svg width="148" height="104" viewBox="0 0 148 104" fill="none" xmlns="http://www.w3.org/2000/svg">
<path d="M102.265 102.014C102.265 100.557 103.446 99.3748 104.904 99.3748H113.481V102.014H102.265Z" fill="#C3AD4D"/>
<rect width="10.1076" height="27.328" rx="5.05382" transform="matrix(0.967172 -0.254121 0.263591 0.964634 100.021 76.4268)" fill="#C3AD4D"/>
<path d="M142.204 102.014C142.204 100.557 141.022 99.3748 139.564 99.3748H130.988V102.014H142.204Z" fill="#C3AD4D"/>
<rect width="10.1065" height="27.325" rx="5.05327" transform="matrix(-0.967172 -0.254121 -0.263591 0.964634 144.447 76.4265)" fill="#C3AD4D"/>
<path d="M110.205 49.0193C110.87 42.8772 116.056 38.2229 122.234 38.2229C128.412 38.2229 133.598 42.8772 134.263 49.0193L138.09 84.3476C139.112 93.7808 131.722 102.014 122.234 102.014C112.746 102.014 105.356 93.7808 106.378 84.3476L110.205 49.0193Z" fill="#E2D475"/>
<path d="M110.684 70.3112C115.482 68.6262 120.716 61.7802 122.647 56.7004L122.678 102.014C118.86 92.7608 110.952 70.2056 110.684 70.3112Z" fill="#FCEEC0"/>
<path d="M133.785 69.8907C129.252 68.1835 124.471 61.847 122.647 56.7004L122.679 102.014C126.286 92.639 133.532 69.7837 133.785 69.8907Z" fill="#FCEEC0"/>
<path d="M115.658 96.7351H110.274C108.787 96.7351 106.685 99.0987 106.685 102.014H119.247C119.247 99.0987 117.144 96.7351 115.658 96.7351Z" fill="white"/>
<path d="M110.273 102.014C110.273 100.695 110.273 98.4949 111.171 98.0549" stroke="black"/>
<path d="M115.209 102.014C115.209 100.695 115.209 98.4949 114.312 98.0549" stroke="black"/>
<path d="M134.317 96.7351H128.933C127.446 96.7351 125.344 99.0987 125.344 102.014H137.906C137.906 99.0987 135.804 96.7351 134.317 96.7351Z" fill="white"/>
<path d="M129.382 102.014C129.382 100.695 129.382 98.4949 130.279 98.0549" stroke="black"/>
<path d="M134.316 102.014C134.316 100.695 134.316 98.4949 133.419 98.0549" stroke="black"/>
<path d="M108.603 27.2958C110.039 21.0667 115.585 16.6536 121.977 16.6536C128.601 16.6536 134.28 21.3848 135.476 27.9L135.672 28.9693C135.877 30.0835 135.762 31.233 135.342 32.285L130.315 44.8689C128.94 48.3091 125.609 50.5653 121.905 50.5653C118.2 50.5653 114.869 48.3091 113.495 44.8689L108.55 32.491C108.077 31.3085 107.977 30.0098 108.263 28.7689L108.603 27.2958Z" fill="#ECDD79"/>
<path d="M114.906 7.19727C116.385 7.19727 116.221 18.2698 116.221 18.2698C112.445 19.2128 109.438 26.2302 108.731 26.9248C105.333 25.416 111.782 7.19727 114.906 7.19727Z" fill="#C3AD4D"/>
<path d="M128.815 7.19727C127.336 7.19727 127.5 18.2698 127.5 18.2698C131.276 19.2128 134.283 26.2302 134.989 26.9248C138.388 25.416 131.938 7.19727 128.815 7.19727Z" fill="#C3AD4D"/>
<ellipse cx="122.234" cy="47.6306" rx="5.91765" ry="4.23897" fill="white"/>
<path d="M122.234 46.3264V48.935" stroke="black"/>
<path d="M117.96 49.2197C118.879 49.5518 121.131 49.9598 122.234 48.9351" stroke="black"/>
<path d="M126.837 49.2197C125.847 49.5518 123.422 49.9598 122.234 48.9351" stroke="black"/>
<ellipse cx="122.399" cy="45.022" rx="2.79444" ry="1.63037" fill="black"/>
<ellipse cx="126.582" cy="32.1239" rx="1.20768" ry="1.20768" fill="black"/>
<ellipse cx="116.92" cy="32.1239" rx="1.20768" ry="1.20768" fill="black"/>
<path d="M4.90918 102.215C4.90918 100.757 6.09099 99.575 7.54883 99.575H16.1255V102.215H4.90918Z" fill="#494846"/>
<rect width="10.1076" height="27.328" rx="5.05382" transform="matrix(0.967172 -0.254121 0.263591 0.964634 2.66602 76.627)" fill="#494846"/>
<path d="M44.8486 102.215C44.8486 100.757 43.6668 99.575 42.209 99.575H33.6323V102.215H44.8486Z" fill="#494846"/>
<rect width="10.1065" height="27.325" rx="5.05327" transform="matrix(-0.967172 -0.254121 -0.263591 0.964634 47.0918 76.6267)" fill="#494846"/>
<path d="M12.8494 49.2195C13.5148 43.0774 18.7006 38.4231 24.8786 38.4231C31.0566 38.4231 36.2424 43.0774 36.9078 49.2195L40.7349 84.5478C41.7568 93.9809 34.3669 102.215 24.8786 102.215C15.3903 102.215 8.00037 93.9809 9.02227 84.5478L12.8494 49.2195Z" fill="#7B7A73"/>
<path d="M13.3281 70.5113C18.1268 68.8264 23.3608 61.9804 25.2913 56.9006L25.323 102.215C21.5049 92.961 13.5965 70.4058 13.3281 70.5113Z" fill="#B2B2B2"/>
<path d="M36.4297 70.0909C31.8963 68.3837 27.1154 62.0472 25.2916 56.9006L25.3233 102.215C28.9304 92.8392 36.1761 69.9839 36.4297 70.0909Z" fill="#B2B2B2"/>
<path d="M18.3022 96.9353H12.9183C11.4316 96.9353 9.3291 99.2989 9.3291 102.215H21.8914C21.8914 99.2989 19.7889 96.9353 18.3022 96.9353Z" fill="#B2B2B2"/>
<path d="M12.918 102.215C12.918 100.895 12.918 98.6951 13.8153 98.2551" stroke="black"/>
<path d="M17.8535 102.215C17.8535 100.895 17.8535 98.6951 16.9562 98.2551" stroke="black"/>
<path d="M36.9614 96.9353H31.5775C30.0908 96.9353 27.9883 99.2989 27.9883 102.215H40.5506C40.5506 99.2989 38.4481 96.9353 36.9614 96.9353Z" fill="#B2B2B2"/>
<path d="M32.0264 102.215C32.0264 100.895 32.0264 98.6951 32.9237 98.2551" stroke="black"/>
<path d="M36.9609 102.215C36.9609 100.895 36.9609 98.6951 36.0636 98.2551" stroke="black"/>
<path d="M10.0561 27.296C11.4917 21.067 17.0376 16.6538 23.43 16.6538C30.0541 16.6538 35.7329 21.3851 36.9289 27.9002L37.1252 28.9695C37.3298 30.0838 37.2153 31.2332 36.795 32.2853L31.7677 44.8692C30.3933 48.3093 27.0623 50.5656 23.3578 50.5656C19.6533 50.5656 16.3223 48.3093 14.9479 44.8692L10.0029 32.4913C9.53051 31.3087 9.4306 30.01 9.71659 28.7691L10.0561 27.296Z" fill="#86857F"/>
<ellipse cx="23.6872" cy="47.6308" rx="5.91765" ry="4.23897" fill="#B2B2B2"/>
<path d="M23.6875 46.3267V48.9353" stroke="black"/>
<path d="M19.4131 49.2199C20.3322 49.552 22.584 49.96 23.6869 48.9353" stroke="black"/>
<path d="M28.29 49.2199C27.3002 49.552 24.8752 49.96 23.6874 48.9353" stroke="black"/>
<ellipse cx="23.8521" cy="45.0222" rx="2.79444" ry="1.63037" fill="black"/>
<ellipse cx="18.3727" cy="32.1242" rx="1.20768" ry="1.20768" fill="black"/>
<path d="M30.4085 32.0624C30.4085 32.6884 29.8678 33.1959 29.2008 33.1959C28.5339 33.1959 27.9932 32.6884 27.9932 32.0624C27.9932 31.4364 28.5339 30.929 29.2008 30.929C29.8678 30.929 30.4085 31.4364 30.4085 32.0624Z" fill="black"/>
<path d="M6.03391 11.0547C7.18818 5.48572 19.0983 18.4087 19.0983 18.4087C14.4813 19.5609 10.8047 28.1356 9.94083 28.9843C5.78546 27.1408 4.87964 16.6237 6.03391 11.0547Z" fill="#494846"/>
<path d="M40.8577 11.0547C39.7034 5.48572 27.7933 18.4087 27.7933 18.4087C32.4103 19.5609 36.0869 28.1356 36.9508 28.9843C41.1061 27.1408 42.012 16.6237 40.8577 11.0547Z" fill="#494846"/>
<path d="M56.4805 102.069C56.4805 100.866 57.4558 99.8911 58.6588 99.8911H65.7367V102.069H56.4805Z" fill="#D3D3D3"/>
<rect width="8.34125" height="22.5522" rx="4.17063" transform="matrix(0.967172 -0.254121 0.263591 0.964634 54.6289 80.9534)" fill="#D3D3D3"/>
<path d="M89.4395 102.069C89.4395 100.866 88.4642 99.8911 87.2611 99.8911H80.1833V102.069H89.4395Z" fill="#D3D3D3"/>
<rect width="8.34035" height="22.5498" rx="4.17018" transform="matrix(-0.967172 -0.254121 -0.263591 0.964634 91.291 80.9531)" fill="#D3D3D3"/>
<path d="M63.0337 58.3357C63.5828 53.267 67.8623 49.426 72.9606 49.426C78.059 49.426 82.3385 53.267 82.8876 58.3357L86.0459 87.4901C86.8893 95.2747 80.7908 102.07 72.9606 102.07C65.1305 102.07 59.032 95.2747 59.8753 87.4901L63.0337 58.3357Z" fill="#EAEAEA"/>
<path d="M63.4287 75.9067C67.3888 74.5162 71.7081 68.8666 73.3012 64.6746L73.3274 102.07C70.1766 94.4331 63.6502 75.8196 63.4287 75.9067Z" fill="white"/>
<path d="M82.4932 75.5597C78.752 74.1509 74.8066 68.9218 73.3015 64.6746L73.3277 102.07C76.3044 94.3326 82.2839 75.4715 82.4932 75.5597Z" fill="white"/>
<path d="M67.5339 97.7129H63.0909C61.864 97.7129 60.1289 99.6635 60.1289 102.07H70.4959C70.4959 99.6635 68.7608 97.7129 67.5339 97.7129Z" fill="white"/>
<path d="M63.0908 102.07C63.0908 100.98 63.0908 99.1651 63.8313 98.802" stroke="black"/>
<path d="M67.1641 102.07C67.1641 100.98 67.1641 99.1651 66.4236 98.802" stroke="black"/>
<path d="M82.9313 97.7129H78.4884C77.2615 97.7129 75.5264 99.6635 75.5264 102.07H85.8933C85.8933 99.6635 84.1582 97.7129 82.9313 97.7129Z" fill="white"/>
<path d="M78.8584 102.07C78.8584 100.98 78.8584 99.1651 79.5989 98.802" stroke="black"/>
<path d="M82.9316 102.07C82.9316 100.98 82.9316 99.1651 82.1911 98.802" stroke="black"/>
<path d="M61.712 40.4086C62.8967 35.2682 67.4735 31.6262 72.7487 31.6262C78.2152 31.6262 82.9016 35.5306 83.8886 40.9073L84.0506 41.7897C84.2194 42.7092 84.1249 43.6578 83.7781 44.526L79.6293 54.9107C78.4952 57.7497 75.7463 59.6116 72.6891 59.6116C69.632 59.6116 66.8831 57.7497 65.749 54.9107L61.6681 44.696C61.2783 43.7201 61.1958 42.6484 61.4318 41.6243L61.712 40.4086Z" fill="#EAEAEA"/>
<ellipse cx="72.9606" cy="57.1901" rx="4.8835" ry="3.49818" fill="white"/>
<path d="M72.9609 56.1138V58.2665" stroke="black"/>
<path d="M69.4336 58.5013C70.1921 58.7753 72.0504 59.112 72.9606 58.2664" stroke="black"/>
<path d="M76.7588 58.5013C75.942 58.7753 73.9407 59.112 72.9605 58.2664" stroke="black"/>
<ellipse cx="73.0961" cy="55.0373" rx="2.3061" ry="1.34545" fill="black"/>
<path d="M86.0156 38.6708V34.9746C86.0156 33.1346 84.7416 31.5398 82.9469 31.1334C79.2657 30.2998 76.6334 34.6215 79.0631 37.5099L81.4424 40.3385C82.9983 42.1882 86.0156 41.0879 86.0156 38.6708Z" fill="#ACACAC"/>
<path d="M58.9639 38.6708V34.9746C58.9639 33.1346 60.2379 31.5398 62.0326 31.1334C65.7138 30.2998 68.3461 34.6215 65.9164 37.5099L63.5371 40.3385C61.9812 42.1882 58.9639 41.0879 58.9639 38.6708Z" fill="#ACACAC"/>
<ellipse cx="68.3708" cy="43.5493" rx="1.44922" ry="0.966147" transform="rotate(-11.6101 68.3708 43.5493)" fill="#111111"/>
<ellipse cx="77.2663" cy="43.7171" rx="1.44922" ry="0.966147" transform="rotate(14.8571 77.2663 43.7171)" fill="#111111"/>
</svg>
