<svg width="41" height="40" viewBox="0 0 41 40" fill="none" xmlns="http://www.w3.org/2000/svg">
<path d="M39.0419 38.2876C39.3044 38.0363 39.1528 37.5424 39.2003 37.3684C39.3061 36.98 39.2182 36.8893 39.1446 36.8163C39.0644 36.7535 38.965 36.7421 38.8916 36.7965C38.78 36.8679 38.8445 37.2448 38.6666 37.7903C38.4886 38.2889 38.0266 39.1532 36.7784 39.1719C36.7784 39.1719 36.7783 39.1719 36.7783 39.1719C36.754 39.1719 36.7294 39.1716 36.7045 39.171C36.2334 39.1489 35.7132 38.9353 35.178 38.9354C34.6427 38.9266 31.2001 39.0921 30.9961 38.9287C30.7242 38.6892 31.5372 37.6763 31.4965 37.4542C31.4644 37.3047 31.1464 37.1174 31.0921 36.8987C30.9369 36.1494 31.1366 35.8737 30.5737 34.6218C31.1293 34.2983 31.735 33.9795 32.4074 33.7665C32.4948 33.4654 32.8135 33.1573 33.2087 32.9569C33.3273 33.0201 33.5092 33.1064 33.5243 33.0642C33.5466 33.0032 33.3058 32.7407 33.3253 32.6926C33.3434 32.6399 33.7145 32.7898 33.7494 32.63C33.8047 32.366 32.9984 31.8965 32.9393 31.7507C32.8748 31.6061 33.4267 31.578 33.1705 31.2946C33.1449 31.2802 33.1192 31.266 33.0935 31.2518C33.0297 31.2093 32.9657 31.1672 32.9015 31.1255C32.6739 31.0838 32.4467 31.0406 32.2198 30.9959C32.149 30.8553 32.6171 30.933 32.6544 30.8251C32.6981 30.6982 32.2787 30.5276 32.3 30.4456C32.3177 30.3786 32.6891 30.3605 32.6864 30.2617C32.6836 30.1192 32.1688 30.0504 32.0867 29.9632C32.0585 29.9265 31.8565 29.3729 31.8527 29.3451C31.8596 29.1251 32.5662 29.1803 32.6461 28.9948C32.8636 28.472 32.3019 27.8863 32.0685 27.4115C31.9644 27.1945 31.9925 26.9656 32.0873 26.7321C33.9279 26.9768 35.2614 25.9806 32.4615 26.5609C32.8396 26.2605 32.0568 26.1612 32.1539 25.9059C32.2166 25.7383 32.5906 25.5698 32.5429 25.3392C32.4539 24.9182 31.2686 24.7212 33.2177 24.1676C32.7612 23.7455 33.3503 23.1128 31.58 23.4106C31.443 23.3217 32.3722 22.7065 32.4639 22.5147C32.5608 22.343 32.6572 21.1262 32.6092 20.9389C32.5702 20.7554 32.4786 20.4378 32.2746 20.3511C32.0179 20.2327 30.2655 20.8368 32.1214 19.6698C31.7977 19.3626 31.796 19.2086 31.8612 18.7529C31.8728 18.6705 32.16 18.526 32.1426 18.4885C32.1061 18.4114 31.8297 18.3841 31.7376 18.262C31.5867 18.0619 32.1254 17.63 31.2158 18.1204C30.9885 18.0545 30.7613 17.9916 30.5342 17.9317C30.6849 17.7897 30.8349 17.6468 30.9842 17.503C30.7517 17.5287 30.5198 17.5563 30.2884 17.5856C31.6516 16.9608 30.5807 16.8463 29.928 17.4388C30.0499 17.0218 30.1631 16.5988 30.267 16.1696C31.7496 15.3346 30.0683 15.4661 29.3216 16.0181C29.3041 15.9875 29.2865 15.9569 29.2688 15.9264C29.4846 15.4219 29.0203 15.3841 29.06 14.9005C29.0968 14.4148 29.2517 14.3508 29.8257 13.8066C29.736 13.7563 29.6456 13.7055 29.5554 13.6557C27.5372 14.5194 30.5882 12.3975 28.7617 12.7111C29.6677 11.6779 28.6803 11.5733 28.0918 11.5123C28.0228 11.504 27.8227 11.6721 27.718 11.6735C27.466 11.6749 27.4465 11.1431 26.8247 11.7134C26.9158 11.4482 27.0008 11.1778 27.0846 10.9078C26.8923 10.9246 26.7012 10.9436 26.5112 10.965C26.3195 11.1453 26.1277 11.3256 25.936 11.5059C26.4377 10.7284 25.9304 10.6999 25.9602 10.4266C25.9662 10.371 26.2183 10.1094 26.2091 9.96049C26.1989 9.7842 25.9471 9.68856 25.9128 9.49966C25.5914 9.74899 25.2723 10.0007 24.9553 10.2547C24.6166 10.2366 25.2606 9.38841 25.1945 9.21801C25.1826 9.18602 24.7369 8.8984 24.6989 8.89801C24.4037 8.88612 23.8819 9.61887 23.5084 9.07666C23.4419 8.98041 23.5598 8.67667 23.4857 8.60518C23.4639 8.58406 23.4217 8.57338 23.3648 8.57311C23.0926 8.57742 22.5138 8.89399 22.2047 9.34529C22.5118 8.56243 21.9605 8.63535 21.9597 8.37509C21.9584 8.29336 22.1814 7.81941 22.1125 7.66448C22.0551 7.53655 21.6529 7.82174 21.5709 7.71886C21.4799 7.60457 21.5729 7.17353 21.521 7.12413C21.472 7.07825 21.3182 7.40191 21.2483 7.38C21.0389 7.30752 20.9364 6.70324 20.7335 6.66097C20.4294 6.59752 20.0953 7.62946 19.922 8.09388C19.8787 8.02527 19.8314 7.80006 19.7796 7.799C19.1593 7.77315 18.3465 7.74934 17.4915 7.86501C17.1304 7.88272 15.4874 7.16125 16.9022 9.09778C17.0068 9.50278 15.6579 9.2264 15.4639 9.36149C15.2878 9.4711 15.4156 9.90917 15.2942 10.0114C14.9297 10.3208 14.4545 10.3171 14.2514 11.0068C14.2003 11.1859 14.4269 11.6674 14.3575 11.7263C14.2726 11.7966 13.8447 11.5318 13.7171 11.6154C13.4151 11.8149 13.075 12.4117 12.7832 12.6163C12.7288 12.6527 12.3927 12.3853 12.2305 12.3669C11.5959 12.2953 11.3599 12.652 12.4618 13.4683C11.5702 13.3251 11.8526 14.1119 11.6345 14.4725C11.2601 15.0769 10.4283 15.9491 10.1522 16.7849C10.0994 16.9712 10.0871 17.1523 10.1267 17.326C10.2515 17.8523 10.8092 18.0974 10.0982 18.3653C9.94089 18.4275 9.74565 18.4785 9.55747 18.5681C9.12058 18.7617 7.91629 18.7742 9.13617 19.4603C8.67365 19.7621 8.84023 20.138 7.6259 20.2276C7.89175 20.3258 8.15828 20.4216 8.42545 20.5152C8.42147 20.5699 8.41781 20.6246 8.41446 20.6795C8.14854 20.6464 7.88246 20.6142 7.61623 20.5831C7.46616 20.9898 8.48556 21.6566 8.44572 21.9849C8.36036 22.5332 7.89128 24.0852 7.56082 24.7308C7.3788 25.0658 7.95269 25.0588 6.78427 25.3006C6.86942 25.3728 6.9548 25.4447 7.04042 25.5163C7.30028 25.5507 7.56018 25.5839 7.82013 25.6164C7.85295 26.0393 7.49099 26.5831 7.53157 27.0044C7.5485 27.1798 7.60447 27.3711 7.67695 27.5742C7.94009 28.5203 8.3036 29.3304 7.98399 29.9567C7.87818 30.1592 7.36307 30.4341 7.3826 30.6218C7.41087 30.8937 8.29502 30.8902 8.34043 31.2119C8.41142 31.76 7.53236 32.8786 7.71788 33.3031C7.76935 33.4259 8.1026 33.4033 8.15635 33.4698C8.3805 33.7371 8.4592 33.9898 8.93596 33.8033C8.19535 34.2119 7.29785 34.8422 6.47616 35.5794C5.80486 36.0926 4.78293 37.8154 4.49356 38.5054C4.24844 38.9664 3.55412 39.2449 3.29388 39.7611C1.6422 38.8526 1.83049 37.9216 2.16493 36.8355C1.51797 35.4403 1.29788 34.2787 1.10041 33.162C1.39075 33.0184 1.68238 32.8791 1.97514 32.7442C1.9758 32.7441 1.97647 32.7441 1.97714 32.744C2.27918 32.2963 1.477 32.2153 1.27612 32.0095C0.317839 31.0743 0.161527 29.3852 0.214942 28.2909C0.205897 26.7384 0.510133 25.0926 0.61535 23.9135C0.643843 23.4214 0.312844 21.7063 0.858206 21.3894C0.996367 21.3093 1.47032 21.3308 1.50058 21.2378C1.30832 20.356 1.16737 19.4357 1.09786 18.48C2.22544 16.8404 2.34378 14.8595 3.23412 13.1136C3.31746 12.9496 3.4036 12.786 3.4926 12.6227C5.66701 8.66916 8.32752 4.76911 12.8516 2.20628C13.7434 1.7116 14.8714 0.806026 16.0148 0.699578C16.4962 0.654018 16.8464 1.34212 17.3097 0.659974C17.3583 0.859224 17.4067 1.05854 17.4547 1.25792C17.8973 0.915317 18.1705 0.396639 18.7844 0.290717C19.2927 0.183591 20.7099 0.170884 21.1622 0.320956C21.3991 0.387488 21.2627 0.756727 21.4797 0.784033C21.8387 0.821829 22.752 0.465557 23.2666 0.62234C23.7483 0.756984 24.3194 1.44472 24.6619 1.53069C25.6852 1.7714 26.9037 1.93143 27.8335 2.5471C28.0028 2.65701 28.1605 2.78404 28.3011 2.93188C28.5313 3.17329 28.5279 3.81339 28.6108 3.86484C28.7758 3.96476 29.1314 3.63395 29.2723 3.6726C29.9884 3.86781 30.3532 4.99013 30.7777 5.45092C32.1768 6.94947 33.7046 8.47027 34.7882 10.1694C35.4797 11.2276 36.6573 12.9853 36.8784 14.1896C36.9276 14.4476 36.4292 14.6364 36.5256 14.8194C36.6319 15.0222 37.0062 14.9706 37.0813 15.0545C37.6077 15.6214 38.6375 17.018 38.5585 17.8313C38.5445 17.985 38.1948 18.2278 38.2256 18.3026C38.2404 18.3407 38.5378 18.3256 38.6112 18.4373C39.2555 19.4231 39.367 20.2951 39.5718 21.4182C39.9636 23.5504 40.8845 26.08 40.5113 28.5492C40.4314 29.0834 39.5827 29.3839 39.5859 29.4523C39.589 29.6109 40.1307 29.7595 40.2291 30.1094C40.4972 31.072 39.9377 32.2171 39.6777 33.1789C39.6131 33.4198 39.558 33.6549 39.5241 33.8864C39.4419 34.5247 39.6468 35.7175 39.3013 36.4891C39.0912 37.0512 37.9627 37.9673 37.653 38.4267C37.7267 38.3907 37.7892 38.3654 37.8415 38.3543C38.1929 38.281 38.7561 38.5502 39.0419 38.2876ZM32.9537 25.0117C33.9019 24.8945 33.0227 24.5052 32.5584 24.8018C32.4539 24.8661 32.708 25.0411 32.9537 25.0117ZM18.5887 6.25817C18.6459 6.52427 18.7025 6.79048 18.7587 7.05679C18.7927 6.93473 18.8294 6.81294 18.8693 6.69143C18.8092 6.53562 18.7469 6.38046 18.6819 6.22604C18.6508 6.23653 18.6197 6.24724 18.5887 6.25817Z" fill="#7A6F46"/>
<path d="M33.0009 16.9948C33.0423 16.9363 33.0035 17.2929 33.0282 17.3173C33.1254 17.4219 33.1077 17.6701 33.1535 17.8205C33.2761 18.05 33.2714 17.5795 33.3056 20.0578C33.3056 20.0579 33.3056 20.058 33.3056 20.058C33.3056 20.0823 33.3056 20.1069 33.3055 20.1318C33.3065 20.6039 33.2648 21.119 33.247 21.6527C33.2289 22.1863 33.193 25.6354 33.0336 25.8245C32.7963 26.0757 32.4011 25.1498 32.3179 25.1756C32.2502 25.1942 32.1271 25.4937 32.0346 25.536C31.7369 25.6712 31.6563 25.4219 31.2719 26.2131C31.2756 25.7558 31.2905 25.3002 31.3122 24.8458C31.1702 25.0279 31.1634 24.4199 31.1052 24.4403C31.0567 24.457 30.9549 24.7978 30.9091 24.8045C30.8575 24.8141 30.8682 24.4242 30.7765 24.4637C30.6273 24.5271 30.4281 25.4317 30.3472 25.5358C30.2667 25.6442 30.2611 25.1329 30.1528 25.4467C30.1313 25.5465 30.1106 25.6464 30.0907 25.7465C30.0647 25.9753 30.0376 26.2041 30.0094 26.4326C29.9765 26.5363 30.0292 26.0673 30.0108 26.0565C29.9899 26.0438 29.9376 26.4883 29.9308 26.4856C29.9256 26.483 29.9437 26.1246 29.9318 26.1463C29.9162 26.1764 29.8924 26.6939 29.8861 26.7907C29.8839 26.8149 29.8769 26.9435 29.884 27.0322C29.8619 27.0804 29.8445 27.1169 29.8419 27.1184C29.7872 27.1395 29.7659 26.4308 29.7083 26.3705C29.545 26.2064 29.4044 26.7903 29.2655 27.021C29.2018 27.1242 29.1196 27.0914 29.0266 26.9877C28.9629 25.1687 28.4884 23.8014 28.9329 26.6086C28.7912 26.2184 28.8153 26.9878 28.7066 26.8712C28.635 26.7952 28.54 26.4106 28.4488 26.4334C28.2867 26.4765 28.2535 27.6119 27.9147 25.6169C27.7537 26.0002 27.4577 25.3013 27.6235 27.0813C27.5788 27.1978 27.2773 26.1657 27.1901 26.0316C27.1092 25.9062 26.5384 25.494 26.4482 25.4757C26.3594 25.4587 26.2048 25.4454 26.1446 25.6084C26.0751 25.8097 26.1509 27.6628 25.8029 25.518C25.6161 25.7077 25.534 25.6506 25.3319 25.4086C25.2952 25.3648 25.2774 25.0437 25.2578 25.0443C25.2176 25.046 25.1564 25.2861 25.0821 25.3172C24.9585 25.368 24.8789 24.6922 24.9073 25.7251C24.8485 25.8499 24.7876 25.9744 24.7244 26.0983C24.707 26.1476 24.6896 26.1968 24.6722 26.2461C24.6506 26.0467 24.6288 25.8473 24.6068 25.648C24.5742 25.8653 24.5418 26.0827 24.5096 26.3001C24.5443 24.8049 24.3141 25.688 24.3935 26.5456C24.2738 26.2368 24.1526 25.9283 24.03 25.62C24.0321 23.9207 23.7628 25.4265 23.7985 26.3502C23.7849 26.349 23.7712 26.3478 23.7576 26.3466C23.6326 25.8965 23.5277 26.2673 23.377 25.9666C23.2256 25.6659 23.2363 25.5003 23.1772 24.7197C23.1431 24.7651 23.1091 24.8105 23.0751 24.8559C22.9366 27.0017 22.8906 23.292 22.6129 24.9425C22.4799 23.5987 22.2468 24.3123 22.0953 24.7253C22.0776 24.7733 22.0849 25.0345 22.062 25.1159C22.0059 25.3114 21.8372 24.9805 21.8693 25.823C21.8071 25.5809 21.7446 25.3389 21.6817 25.0969C21.642 25.2516 21.6024 25.4063 21.563 25.5611C21.5723 25.8241 21.5816 26.0871 21.5908 26.3501C21.4705 25.4567 21.341 25.8063 21.2636 25.5946C21.2481 25.5517 21.2316 25.189 21.1846 25.0916C21.1295 24.9761 21.0392 25.087 20.9743 24.9761C20.9666 25.3788 20.9591 25.7816 20.9518 26.1844C20.8537 26.4066 20.7728 25.3476 20.7058 25.2678C20.6938 25.2539 20.4888 25.3389 20.4786 25.3621C20.3944 25.5456 20.4602 26.4477 20.1877 26.2662C20.1391 26.2333 20.0865 25.9225 20.0433 25.9119C19.9666 25.8927 19.7738 26.6125 19.7884 27.2684C19.6576 26.453 19.4301 26.8003 19.3462 26.5673C19.3208 26.4956 19.289 25.9737 19.2161 25.8661C19.157 25.7783 19.0391 26.2037 18.9666 26.1374C18.8895 26.0652 18.8395 25.6281 18.8049 25.5989C18.7723 25.5717 18.763 25.9273 18.7207 25.9275C18.5882 25.9224 18.4365 25.3594 18.3311 25.3549C18.1785 25.347 18.1054 26.4027 18.0069 26.8753C17.9717 26.8092 17.9276 26.5862 17.8946 26.586C17.4865 26.5771 17.015 26.4126 16.5902 26.2146C16.3937 26.1236 15.8255 24.7329 16.1074 27.0969C16.0687 27.5166 15.5237 26.592 15.4304 26.5838C15.3376 26.5756 15.2931 27.0058 15.2213 27.0169C15.0045 27.0501 14.8301 26.7539 14.5889 27.1422C14.5267 27.2437 14.487 27.7525 14.4459 27.7494C14.3963 27.7445 14.3105 27.2608 14.2448 27.2341C14.0884 27.1744 13.8161 27.3539 13.6645 27.2794C13.6367 27.2647 13.5985 26.8375 13.5514 26.7063C13.3677 26.1937 13.2044 26.2502 13.3256 27.6144C13.083 26.8516 12.954 27.5709 12.7796 27.6261C12.411 27.7396 11.7061 27.4652 11.4134 28.0601C11.2288 28.4354 11.272 29.0481 10.9325 28.5381C10.8572 28.425 10.7798 28.2709 10.6887 28.136C10.4747 27.8184 10.2313 26.6964 10.1636 28.0698C9.92772 27.7284 9.76966 27.9892 9.54478 26.8308C9.54164 27.1118 9.53841 27.3929 9.53511 27.6739C9.50904 27.6823 9.48297 27.6907 9.45689 27.6991C9.4339 27.4325 9.41094 27.1659 9.38802 26.8993C9.19578 26.8378 9.01392 27.9483 8.85179 27.9486C8.58087 27.9507 7.86223 27.5576 7.59034 27.2078C7.44607 27.0223 7.46272 27.5948 7.3353 26.4218C7.30845 26.5049 7.28153 26.588 7.25456 26.6711C7.24623 26.9295 7.23779 27.1879 7.22924 27.4462C7.05422 27.4638 6.83084 27.0717 6.66436 27.0819C6.3619 27.1014 5.92435 27.8255 5.60307 27.3679C5.52263 27.2525 5.41274 26.7235 5.33794 26.7314C5.22902 26.7424 5.22345 27.6251 5.08357 27.6448C4.84147 27.6772 4.37497 26.6604 4.1506 26.7414C4.08358 26.765 4.05603 27.0936 4.00965 27.1292C3.81505 27.282 3.6542 27.2566 3.46759 27.7649C3.25982 26.9204 3.2749 25.8289 3.21053 24.7279C3.16126 23.8969 3.02077 21.9709 3.00234 21.243C2.98897 20.7316 3.03881 20.0737 3.01992 19.5108C3.24033 19.0611 3.33216 19.5555 3.51892 20.3463C3.8541 20.3126 4.18947 20.2768 4.52522 20.2391C4.56141 20.5458 4.59791 20.8524 4.63472 21.159C4.63473 21.1597 4.63474 21.1604 4.63476 21.161C4.77245 21.5131 4.8117 20.7207 4.87748 20.5396C5.50288 18.8076 6.847 20.1073 7.60692 20.2646C7.7693 20.2987 8.2695 19.8595 8.4053 20.352C8.44051 20.4803 8.47291 20.9531 8.50448 20.9721C8.7623 20.6766 9.019 20.3805 9.27491 20.0838C9.87632 20.7873 10.4223 20.145 10.9809 19.9959C12.4943 19.5919 13.9973 19.1113 15.541 19.124C15.839 19.1272 16.194 18.7486 16.5005 18.9587C16.6284 19.0458 16.7261 19.8021 16.8511 19.2262C16.8654 19.4307 16.8797 19.6352 16.894 19.8397C17.0182 19.5841 17.0792 19.1131 17.2334 19.0563C17.3632 19.0091 17.7118 18.9581 17.8336 19.0297C17.8966 19.0653 17.8958 19.449 17.9523 19.4439C18.0486 19.4322 18.2262 18.8918 18.3606 18.8844C18.4824 18.8777 18.7109 19.3074 18.8008 19.2387C19.125 18.9945 19.4621 18.3229 19.8328 18.4814C19.9351 18.5264 20.0856 19.0169 20.1162 19.0017C20.1759 18.9702 20.1732 18.4874 20.2117 18.4236C20.4079 18.1014 20.7582 18.6611 20.9638 18.6763C21.6347 18.7254 22.341 18.4942 23.0157 18.5704C23.4408 18.6175 24.1497 18.5252 24.5442 18.8879C24.6292 18.9661 24.6073 19.4947 24.678 19.4946C24.6951 19.4946 24.7104 19.4776 24.7244 19.4508C24.7573 19.3545 24.7758 19.1309 24.7933 19.1082C24.9508 18.9065 25.2828 18.5248 25.4977 18.8691C25.5377 18.9357 25.6044 19.3452 25.6257 19.3416C25.6367 19.3404 25.6318 19.0568 25.6621 19.0245C25.9312 18.7382 26.182 18.8705 26.5377 18.9183C27.2118 19.0095 28.0387 18.3448 29.0124 18.5691C29.2241 18.618 29.3978 19.4319 29.4234 19.4226C29.4837 19.404 29.5048 18.8516 29.6355 18.7128C29.7119 18.6322 29.7957 18.5845 29.884 18.5596C30.4215 18.442 30.9534 18.8633 31.3492 18.7003C31.5919 18.6017 32.0171 17.9736 32.2338 17.8622C32.4161 17.7747 32.6407 18.1067 32.7463 17.8153C32.8145 17.6404 32.9551 17.0612 33.0009 16.9948ZM28.2857 25.9916C28.1753 25.045 28.0711 25.8592 28.2228 26.3543C28.257 26.4657 28.3146 26.2373 28.2857 25.9916ZM17.2479 24.9537C17.2667 25.2252 17.2854 25.4967 17.3042 25.7682C17.3268 25.6533 17.3494 25.5385 17.372 25.4236C17.3454 25.2614 17.3188 25.0991 17.2922 24.9368C17.2774 24.9424 17.2626 24.948 17.2479 24.9537Z" fill="#7A6F46"/>
</svg>
