<svg width="38" height="37" viewBox="0 0 38 37" fill="none" xmlns="http://www.w3.org/2000/svg">
<path d="M36.1629 35.527C36.4925 35.1824 36.3073 34.7324 36.3681 34.5352C36.3824 34.4877 36.3937 34.443 36.4013 34.4051C36.475 33.9671 36.3153 33.9118 36.2069 33.8584C36.1615 33.8447 36.1167 33.8447 36.0787 33.8634C36.0428 33.881 36.0249 33.9217 36.0109 33.9923C35.9923 34.0838 35.9812 34.2259 35.942 34.4055C35.9032 34.5817 35.8372 34.7943 35.7028 35.0217C35.4557 35.423 34.9525 36.0018 33.9568 36C33.9567 36 33.9567 36 33.9566 36C33.9323 36 33.9077 35.9997 33.8829 35.9991C33.4119 35.976 32.8919 35.7779 32.3568 35.7816C31.8216 35.7752 28.3786 35.937 28.176 35.7971C28.1156 35.7458 28.11 35.6652 28.1366 35.5632C28.1916 35.3549 28.3844 35.0541 28.5275 34.8117C28.6247 34.6464 28.6986 34.5096 28.6841 34.4455C28.6547 34.3174 28.3803 34.1606 28.2965 33.9748C28.2897 33.96 28.2843 33.9452 28.2802 33.93C28.1853 33.5705 28.2247 33.2764 28.1655 32.9398C28.1208 32.6498 27.9925 32.3504 27.7492 31.7663C27.9236 31.6704 28.1041 31.5705 28.2884 31.4793C28.6867 31.2782 29.1091 31.0948 29.5635 30.9566C29.6556 30.6296 30.0934 30.2344 30.343 30.1719C30.4914 30.208 30.6035 30.3567 30.6311 30.3042C30.6357 30.286 30.6087 30.2404 30.5716 30.1885C30.5048 30.094 30.404 29.9803 30.4125 29.9539C30.4202 29.9263 30.541 29.9779 30.6496 29.991C30.7261 30.001 30.7958 29.992 30.8032 29.9364C30.8096 29.8906 30.7802 29.8305 30.7279 29.7658C30.5333 29.5204 30.0195 29.2218 29.9609 29.1186C29.9606 29.1181 29.9603 29.1175 29.9601 29.117C29.9218 29.0438 30.0563 29.028 30.1514 28.9731C30.2357 28.9158 30.2728 28.8855 30.1567 28.7535C30.1314 28.7382 30.1061 28.7227 30.0809 28.7068C30.0174 28.6633 29.9537 28.6201 29.8897 28.5772C29.6621 28.5358 29.4346 28.4936 29.2072 28.4509C29.1395 28.2992 29.6072 28.3769 29.6443 28.2678C29.6873 28.1403 29.2684 27.9646 29.288 27.8868C29.3042 27.8235 29.6713 27.8213 29.6654 27.7341C29.6578 27.6098 29.146 27.5269 29.0614 27.4503C29.033 27.4085 28.8066 26.9869 28.8024 26.969C28.8015 26.8062 29.5082 26.8657 29.5856 26.7058C29.795 26.2515 29.2466 25.7404 29.0106 25.3291C29.0079 25.3244 29.0053 25.3197 29.0028 25.315C28.8996 25.1248 28.9293 24.9241 29.0263 24.7174C30.8642 24.9255 32.205 24.0151 29.4019 24.5625C29.7827 24.2915 29.0023 24.213 29.1031 23.9865C29.1682 23.8371 29.544 23.6812 29.5005 23.4763C29.4186 23.0993 28.244 22.9537 30.196 22.4135C29.8521 22.1255 30.1338 21.7222 29.4693 21.6853C29.272 21.6757 28.9916 21.7003 28.5875 21.7744C28.4544 21.6997 29.3936 21.1191 29.4898 20.9418C29.5918 20.7859 29.7244 19.6763 29.6826 19.5063C29.6502 19.3404 29.5703 19.0533 29.3722 18.9812C29.1225 18.8804 27.375 19.4969 29.2455 18.3637C28.967 18.1194 28.9438 17.9812 29.0031 17.6439C29.0092 17.6089 29.0161 17.5719 29.0237 17.5323C29.0382 17.4562 29.3258 17.3124 29.3101 17.2786C29.2771 17.2089 29.0068 17.1944 28.9213 17.0856C28.7812 16.9077 29.3261 16.4879 28.4153 16.9759C28.1953 16.9244 27.9754 16.8758 27.7558 16.8302C27.9091 16.6932 28.0617 16.5553 28.2137 16.4164C27.9853 16.4498 27.7574 16.4849 27.5301 16.5217C28.8886 15.8881 27.8463 15.8256 27.1846 16.4019C27.3216 16.0122 27.4505 15.6163 27.5703 15.2138C29.0505 14.3746 27.4066 14.5673 26.6575 15.1155C26.6418 15.0879 26.6261 15.0604 26.6103 15.0328C26.7794 14.6882 26.5887 14.5822 26.4962 14.3826C26.4603 14.3056 26.4385 14.2145 26.455 14.0891C26.5131 13.6349 26.6661 13.5677 27.2468 13.0332C27.1623 12.9902 27.077 12.9467 26.9919 12.9042C25.0022 13.808 28.0483 11.6806 26.2692 12.0556C27.1911 11.0431 26.2422 10.9866 25.6816 10.9588C25.6157 10.9543 25.4157 11.1225 25.3153 11.1288C25.0738 11.1426 25.0808 10.6411 24.4581 11.2104C24.5339 11.0189 24.6055 10.8235 24.6768 10.6287C24.7002 10.5647 24.7233 10.5005 24.7463 10.4363C24.5618 10.4616 24.3784 10.489 24.1962 10.5188C24.0045 10.699 23.8127 10.8793 23.6209 11.0595C24.1377 10.2982 23.6563 10.2965 23.699 10.0361C23.7075 9.98296 23.9601 9.72193 23.9587 9.58079C23.9575 9.41348 23.7233 9.335 23.7002 9.15679C23.3832 9.41026 23.0684 9.66603 22.7558 9.92422C22.4391 9.9267 23.0946 9.08877 23.0431 8.93136C23.0337 8.90172 22.6435 8.66185 22.6071 8.6627C22.3322 8.6677 21.8246 9.41326 21.4858 8.89595C21.4236 8.80275 21.5423 8.49949 21.4705 8.42956C21.4493 8.40885 21.4078 8.39871 21.3513 8.39873C21.0674 8.39375 20.4784 8.70814 20.1622 9.15568C20.4742 8.3797 20.0073 8.50881 20.0545 8.27241C20.0643 8.19642 20.2957 7.72698 20.255 7.58552C20.2256 7.47086 19.8545 7.76867 19.7899 7.67226C19.7166 7.56444 19.8158 7.13533 19.7718 7.08846C19.7303 7.04497 19.5835 7.37078 19.5242 7.35186C19.4663 7.3316 19.4248 7.26276 19.3855 7.17473C19.2974 6.97547 19.2177 6.67818 19.0979 6.65218C18.8303 6.59445 18.5304 7.62889 18.3909 8.09382C18.3556 8.02531 18.3162 7.80008 18.2727 7.79886C18.005 7.78714 17.7022 7.76316 17.3598 7.75681C17.0322 7.74999 16.669 7.76077 16.3002 7.79516C15.9907 7.79051 14.4434 7.01707 15.8334 8.96802C15.8764 9.14007 15.7024 9.16801 15.4634 9.16106C15.1202 9.14919 14.6258 9.08552 14.5316 9.14415C14.3742 9.24025 14.5165 9.6673 14.4097 9.75817C14.0892 10.0333 13.6436 10.0049 13.4896 10.6493C13.4653 10.7571 13.5557 10.9922 13.6073 11.1579C13.6353 11.2485 13.6514 11.3186 13.6292 11.3371C13.5533 11.3989 13.135 11.1246 13.0186 11.1971C12.7433 11.3698 12.4522 11.9145 12.1847 12.0918C12.1348 12.1232 11.8002 11.8539 11.6443 11.8285C11.0341 11.729 10.8244 12.054 11.9221 12.8754C11.5246 12.7894 11.3738 12.9106 11.3117 13.0923C11.2396 13.3025 11.2831 13.5969 11.1793 13.7729C10.831 14.3461 10.1333 15.021 9.85789 15.8514C9.7977 16.0497 9.79077 16.2243 9.84071 16.3807C10.0028 16.8441 10.5773 17.057 9.89228 17.2673C9.82068 17.2899 9.74093 17.3091 9.6571 17.3315C9.56458 17.3561 9.46758 17.3835 9.37286 17.4207C8.95483 17.5678 7.76442 17.5395 8.99449 18.1925C8.8337 18.2797 8.75272 18.3853 8.65906 18.482C8.49326 18.6547 8.28887 18.7924 7.51781 18.8296C7.78462 18.9232 8.05209 19.0146 8.32018 19.1036C8.31749 19.1519 8.31508 19.2002 8.31294 19.2487C8.0474 19.2136 7.78169 19.1795 7.51583 19.1464C7.43217 19.3579 7.76753 19.6775 8.0437 19.9462C8.22583 20.1251 8.38099 20.2856 8.36574 20.4047C8.33213 20.6637 8.17743 21.1365 8.00356 21.6343C7.83952 22.097 7.65708 22.5793 7.49044 22.8521C7.30755 23.1542 7.88125 23.1455 6.71199 23.3679C6.76841 23.411 6.82492 23.4539 6.88152 23.4967C6.91002 23.5183 6.93854 23.5398 6.96708 23.5613C7.22671 23.591 7.48637 23.6196 7.74607 23.6474C7.77673 24.03 7.4106 24.5159 7.44727 24.8928C7.46271 25.0511 7.5172 25.2267 7.58837 25.4162C7.75777 25.9719 7.96787 26.5096 8.00521 26.9501C8.02445 27.1858 7.99529 27.4022 7.88296 27.5952C7.77599 27.7783 7.25947 28.0311 7.27767 28.2002C7.28233 28.2445 7.3146 28.2803 7.36464 28.3108C7.59411 28.4515 8.19514 28.4873 8.23009 28.7237C8.25819 28.9161 8.13662 29.1822 7.99058 29.4601C7.75843 29.897 7.47377 30.3735 7.57506 30.596C7.57637 30.5989 7.57788 30.6018 7.5796 30.6045C7.6409 30.7015 7.95564 30.6745 8.00513 30.7286C8.17732 30.9114 8.24319 31.0652 8.50638 31.0274C8.57215 31.0158 8.64952 30.9895 8.73911 30.9391C7.97425 31.3044 7.07968 31.9428 6.24746 32.6651C5.56252 33.1618 4.51172 34.8593 4.22912 35.5543C3.98291 36.0147 3.29858 36.3015 3.03301 36.8129C1.43246 35.9408 1.62737 35.0361 1.97848 33.9928C1.97123 33.9777 1.96403 33.9626 1.9569 33.9475C1.63206 33.2532 1.44127 32.6318 1.28775 32.0449C1.15582 31.5323 1.05883 31.0452 0.978603 30.5726C1.19392 30.4723 1.40988 30.3742 1.62649 30.2788C1.70307 30.2451 1.77972 30.2116 1.85644 30.1784C1.85711 30.1783 1.85777 30.1782 1.85844 30.1782C2.16474 29.7643 1.36385 29.6975 1.16465 29.5092C0.94538 29.305 0.766953 29.0706 0.624189 28.8155C0.375891 28.3733 0.236402 27.87 0.169176 27.3663C0.107968 26.9084 0.106829 26.4752 0.126368 26.1329C0.132231 25.3836 0.219353 24.5458 0.322326 23.8122C0.40707 23.1903 0.50013 22.6109 0.546006 22.1169C0.559294 21.9707 0.529142 21.7223 0.502402 21.4344C0.439755 20.8099 0.41469 19.988 0.779543 19.7956C0.917023 19.7228 1.39078 19.7463 1.42024 19.661C1.37154 19.4627 1.32574 19.2616 1.28298 19.0588C1.15067 18.4304 1.0482 17.7798 0.983898 17.1086C1.12192 16.9179 1.24308 16.7241 1.35089 16.5282C1.77025 15.7665 1.99355 14.9518 2.24001 14.1153C2.43216 13.4551 2.65773 12.7468 2.97643 12.1186C3.05114 11.97 3.12496 11.8274 3.19833 11.6891C3.78222 10.5723 4.50806 9.36131 5.2547 8.28215C6.02073 7.17612 6.87114 6.10781 7.84979 5.10753C8.83277 4.10534 9.94493 3.16832 11.247 2.38317C11.4245 2.27642 11.6064 2.1721 11.7926 2.07097C12.6197 1.61302 13.6577 0.747574 14.7365 0.661306C15.1194 0.629648 15.4348 1.13043 15.769 0.856519C15.8274 0.809828 15.8874 0.740641 15.9515 0.642539C15.9998 0.841875 16.0477 1.04128 16.0953 1.24075C16.5035 0.905458 16.7551 0.390339 17.3305 0.287689C17.8062 0.182161 19.135 0.168178 19.5604 0.316629C19.7823 0.381581 19.6515 0.751491 19.8546 0.776805C20.0882 0.804651 20.5324 0.635404 20.9705 0.579936C21.1791 0.551254 21.3788 0.546448 21.5361 0.592377C21.9952 0.720614 22.5072 1.38605 22.8388 1.46738C23.8671 1.70634 25.091 1.89969 25.82 2.37271C25.9634 2.46339 26.0983 2.57266 26.2201 2.7054C26.4196 2.92201 26.3976 3.54567 26.476 3.59327C26.6311 3.68462 26.9804 3.34833 27.1164 3.38253C27.823 3.56799 28.1407 4.64796 28.524 5.06787C28.8686 5.43997 29.2256 5.81416 29.5784 6.18898C30.5404 7.21041 31.4923 8.26188 32.2162 9.40574C32.3726 9.65279 32.5612 9.93674 32.7578 10.2445C33.3443 11.154 33.9776 12.279 34.1138 13.1141C34.1534 13.3541 33.6576 13.5477 33.746 13.7157C33.8435 13.9016 34.2132 13.8408 34.2843 13.9169C34.4866 14.1316 34.774 14.4646 35.0322 14.8422C35.4043 15.3831 35.7121 16.0193 35.6563 16.4619C35.6382 16.6054 35.2857 16.8409 35.314 16.9094C35.3276 16.9444 35.6222 16.9221 35.6919 17.0241C36.3037 17.9247 36.3936 18.7306 36.5751 19.7664C36.576 19.772 36.577 19.7775 36.5779 19.7831C36.859 21.3841 37.4987 23.1762 37.5303 25.0554C37.538 25.4878 37.5132 25.9231 37.4455 26.3458C37.3669 26.8415 36.5206 27.1138 36.5243 27.1763C36.5282 27.3237 37.071 27.4599 37.1709 27.7961C37.4429 28.7454 36.8734 29.8615 36.665 30.6339C36.6177 30.8192 36.5488 31.0988 36.5252 31.2999C36.5225 31.3199 36.5202 31.3405 36.5182 31.3614C36.4965 31.5978 36.5198 31.8916 36.5339 32.2127C36.5478 32.5185 36.5526 32.8498 36.5145 33.1623C36.4873 33.3884 36.4379 33.6042 36.3611 33.7864C36.3249 33.8725 36.2688 33.9695 36.1977 34.0728C36.0339 34.3119 35.7868 34.5841 35.5326 34.839C35.2628 35.1177 34.8272 35.5009 34.7873 35.6417C34.8229 35.6368 34.8643 35.6332 34.9033 35.6362C35.1717 35.6537 35.773 35.9228 36.1629 35.527ZM29.916 23.1764C30.8633 23.0536 29.9943 22.7194 29.5263 22.9963C29.4208 23.0559 29.6705 23.2071 29.916 23.1764ZM17.2197 6.24294C17.2764 6.50914 17.3325 6.77545 17.3881 7.04186C17.4148 6.92125 17.4442 6.80079 17.4766 6.68052C17.4207 6.52402 17.3625 6.36813 17.3018 6.21295C17.2744 6.22275 17.247 6.23275 17.2197 6.24294Z" fill="#7A6F46"/>
<path d="M30.4008 15.339C30.4391 15.2798 30.3958 15.6354 30.4167 15.659C30.4583 15.7089 30.47 15.7923 30.4785 15.8828C30.487 15.9776 30.4914 16.0799 30.5059 16.1553C30.5214 16.2321 30.5588 16.2273 30.568 16.2914C30.582 16.4114 30.547 16.7861 30.5725 18.4586C30.5739 18.9308 30.5377 19.4459 30.5205 19.9796C30.5027 20.5132 30.4673 23.9622 30.315 24.1516C30.1469 24.3464 29.8622 23.8331 29.734 23.6058C29.6947 23.5411 29.6643 23.5001 29.6434 23.5063C29.5799 23.5255 29.4617 23.8257 29.3744 23.8687C29.1618 23.9738 29.0668 23.8549 28.8741 24.141C28.8129 24.2314 28.7414 24.3623 28.6522 24.5531C28.6618 24.0971 28.6826 23.6427 28.7103 23.1895C28.5862 23.3597 28.5805 22.8536 28.5388 22.7945C28.5353 22.7898 28.5316 22.7879 28.5276 22.7895C28.483 22.807 28.3835 23.1483 28.3416 23.1559C28.2946 23.1665 28.3124 22.7782 28.2288 22.8194C28.1197 22.8726 27.9714 23.4679 27.8794 23.7541C27.8569 23.8241 27.8379 23.8756 27.8236 23.8964C27.7519 24.0064 27.7596 23.4974 27.6618 23.8127C27.6416 23.9127 27.6222 24.0128 27.6037 24.113C27.5768 24.3418 27.5487 24.5704 27.5195 24.7988C27.4922 24.9033 27.5472 24.4345 27.5338 24.4243C27.5333 24.4239 27.5328 24.424 27.5322 24.4246C27.5152 24.4418 27.4694 24.857 27.4667 24.8547C27.4665 24.8526 27.483 24.4941 27.486 24.5168C27.4919 24.548 27.4671 25.0654 27.4731 25.1626C27.4767 25.1874 27.5003 25.315 27.4595 25.4031C27.4291 25.4513 27.409 25.488 27.4061 25.4895C27.3469 25.511 27.3354 24.8022 27.293 24.7416C27.2284 24.6235 27.1172 24.8838 27.0404 25.1258C27.0066 25.2247 26.9734 25.3207 26.9382 25.387C26.8842 25.4894 26.8121 25.4554 26.7287 25.3507C26.6519 23.5332 26.2082 22.1623 26.6408 24.9709C26.5343 24.6508 26.534 25.1063 26.4858 25.2184C26.4748 25.2435 26.4611 25.2515 26.4428 25.23C26.3778 25.1532 26.2873 24.768 26.2054 24.7895C26.0598 24.8303 26.0449 25.9631 25.7108 23.9674C25.6803 24.0495 25.6434 24.0813 25.6059 24.0984C25.4693 24.161 25.3274 24.0303 25.4627 25.4257C25.4231 25.5415 25.1343 24.5077 25.0528 24.3728C25.0176 24.3152 24.8911 24.1984 24.7538 24.0857C24.5888 23.9503 24.4087 23.8201 24.3638 23.8103C24.2817 23.7926 24.1388 23.7781 24.0842 23.9405C24.0238 24.1336 24.0997 25.8557 23.8026 24.0746C23.7913 24.0046 23.7795 23.9292 23.7672 23.848C23.5947 24.0365 23.5194 23.9791 23.3287 23.7366C23.2931 23.6926 23.2757 23.3716 23.2566 23.3721C23.2177 23.3738 23.1558 23.6139 23.0837 23.6448C22.9641 23.6954 22.8987 23.0192 22.9197 24.0523C22.8672 24.177 22.8157 24.3012 22.7652 24.4252C22.7491 24.4744 22.7329 24.5237 22.7167 24.573C22.6967 24.3736 22.6767 24.1742 22.6565 23.9748C22.6262 24.1922 22.5961 24.4096 22.5661 24.6269C22.5995 23.1317 22.3869 24.0148 22.4587 24.8724C22.3488 24.5636 22.2387 24.255 22.1277 23.9467C22.1326 22.2473 21.8851 23.753 21.9165 24.6766C21.9042 24.6754 21.8919 24.6742 21.8796 24.673C21.7674 24.2228 21.6729 24.5935 21.5381 24.2925C21.4025 23.9916 21.4119 23.826 21.3584 23.0453C21.3277 23.0906 21.2971 23.1359 21.2666 23.1813C21.1452 25.3268 21.0984 21.6171 20.8493 23.2669C20.7255 21.9229 20.5151 22.6359 20.3788 23.0485C20.3629 23.0964 20.3703 23.3577 20.3496 23.4389C20.2993 23.6343 20.1452 23.3029 20.1768 24.1454C20.1197 23.9032 20.0622 23.661 20.0044 23.4188C19.9688 23.5734 19.9333 23.728 19.8981 23.8826C19.9073 24.1456 19.9166 24.4086 19.9258 24.6717C19.8138 23.778 19.6973 24.1271 19.6264 23.9151C19.6131 23.8749 19.5981 23.5552 19.561 23.4342C19.5585 23.4257 19.5558 23.4183 19.553 23.412C19.5026 23.2962 19.4209 23.4068 19.3616 23.2957C19.356 23.6984 19.3507 24.101 19.3456 24.5037C19.2574 24.7255 19.18 23.6663 19.1189 23.5863C19.1079 23.5724 18.922 23.6566 18.9129 23.6797C18.8372 23.8629 18.9005 24.7651 18.6525 24.5825C18.6082 24.5494 18.5592 24.2384 18.5199 24.2277C18.4501 24.2081 18.2782 24.9269 18.2945 25.5827C18.1722 24.7669 17.9672 25.1131 17.89 24.8797C17.8665 24.8079 17.8352 24.286 17.7685 24.1781C17.7143 24.09 17.6093 24.5147 17.5432 24.4482C17.4727 24.3755 17.4252 23.9383 17.3936 23.9089C17.3638 23.8816 17.3572 24.2371 17.3187 24.2371C17.1983 24.2313 17.0576 23.6677 16.9618 23.6626C16.823 23.654 16.7621 24.7089 16.6752 25.1809C16.6428 25.1146 16.6016 24.8914 16.5716 24.8911C16.5156 24.8894 16.4583 24.8842 16.4 24.8758C16.0721 24.8287 15.7127 24.6826 15.3839 24.5124C15.2048 24.4203 14.6796 23.0268 14.95 25.3916C14.9174 25.8108 14.4162 24.8834 14.3312 24.8746C14.2467 24.8659 14.2088 25.2957 14.1436 25.3063C13.9465 25.3381 13.786 25.0411 13.5689 25.4278C13.5129 25.5288 13.4799 26.0372 13.4425 26.0338C13.3973 26.0286 13.3163 25.5446 13.2563 25.5175C13.2292 25.506 13.1984 25.5031 13.1653 25.5054C13.0239 25.5152 12.8406 25.6203 12.7283 25.5592C12.7029 25.5444 12.6656 25.1171 12.6219 24.9857C12.4516 24.4722 12.3032 24.5277 12.4218 25.8921C12.1963 25.1282 12.0831 25.8464 11.9246 25.9005C11.5896 26.0118 10.9457 25.7335 10.6822 26.3265C10.5161 26.7006 10.5588 27.3133 10.2465 26.8017C10.1772 26.6882 10.1057 26.5337 10.0219 26.3983C9.96947 26.3132 9.9146 26.1707 9.86144 26.0337C9.71545 25.6579 9.58293 25.3234 9.54274 26.3294C9.32592 25.9869 9.183 26.2469 8.97219 25.0877C8.97072 25.3686 8.96916 25.6495 8.96752 25.9305C8.94378 25.9388 8.92004 25.947 8.89629 25.9553C8.87403 25.6887 8.8518 25.422 8.82961 25.1554C8.65415 25.093 8.49349 26.2023 8.34544 26.2019C8.09823 26.2027 7.44063 25.8068 7.1913 25.456C7.059 25.2699 7.07629 25.8425 6.95568 24.6691C6.9315 24.7521 6.90726 24.8351 6.88295 24.9181C6.8763 25.1764 6.86953 25.4347 6.86265 25.693C6.73234 25.7068 6.57138 25.4475 6.4343 25.3571C6.40346 25.3368 6.3738 25.325 6.34588 25.3268C6.07019 25.3453 5.6726 26.0681 5.37788 25.6098C5.30413 25.4942 5.20262 24.9651 5.1344 24.9728C5.03504 24.9835 5.03181 25.8661 4.90403 25.8855C4.68265 25.9176 4.25503 24.9 4.05062 24.9808C3.98946 25.0043 3.96465 25.3329 3.92231 25.3684C3.74467 25.521 3.59775 25.4955 3.42748 26.0037C3.23725 25.1591 3.25085 24.0676 3.19182 22.9666C3.14653 22.1356 3.01865 20.2096 3.00212 19.4817C2.99003 18.9703 3.03519 18.3124 3.01803 17.7495C3.21743 17.2998 3.30051 17.7943 3.47026 18.5852C3.77402 18.5516 4.07798 18.5162 4.3823 18.4791C4.41562 18.7858 4.44927 19.0925 4.48322 19.3992C4.48323 19.3999 4.48324 19.4006 4.48326 19.4012C4.60893 19.7535 4.64305 18.9612 4.7023 18.7803C5.04198 17.7462 5.60491 17.7964 6.15998 18.0366C6.53391 18.199 6.90274 18.4486 7.17837 18.5141C7.32604 18.5489 7.77818 18.1121 7.90383 18.6051C7.93641 18.7335 7.96809 19.2063 7.99687 19.2255C8.22977 18.9313 8.46154 18.6365 8.69254 18.3413C8.94334 18.6638 9.18326 18.7058 9.41741 18.6423C9.6962 18.5668 9.96682 18.3419 10.2427 18.2627C11.0389 18.0337 11.8316 17.7794 12.6315 17.6101C13.212 17.4873 13.7964 17.4093 14.3876 17.4184C14.6591 17.4233 14.9804 17.0469 15.2609 17.2587C15.378 17.3464 15.4712 18.103 15.582 17.528C15.5961 17.7325 15.6102 17.937 15.6244 18.1415C15.7361 17.8867 15.7892 17.4161 15.9294 17.3602C15.9353 17.3579 15.9416 17.3556 15.9483 17.3533C16.0782 17.3092 16.3706 17.2681 16.4764 17.3367C16.534 17.3727 16.5353 17.7563 16.5867 17.7514C16.6744 17.7402 16.8337 17.2008 16.9563 17.1941C17.0673 17.188 17.2777 17.6186 17.3594 17.5504C17.6537 17.3077 17.9585 16.6378 18.2975 16.7977C18.3911 16.8431 18.5303 17.3341 18.5581 17.319C18.6125 17.2877 18.6082 16.805 18.6431 16.7414C18.8177 16.4258 19.1312 16.9606 19.32 16.9952C19.3235 16.9959 19.327 16.9964 19.3305 16.9966C19.9444 17.0479 20.5832 16.8186 21.2083 16.8957C21.6037 16.9434 22.2534 16.8519 22.6042 17.2147C22.6802 17.2929 22.6603 17.8215 22.7237 17.8215C22.739 17.8215 22.7528 17.8045 22.7652 17.7777C22.8015 17.6814 22.8215 17.4577 22.8393 17.4349C22.9548 17.2885 23.0786 17.0573 23.2559 17.0609C23.3201 17.0627 23.3832 17.1023 23.4375 17.2012C23.4736 17.2682 23.5373 17.678 23.5564 17.6745C23.5661 17.6735 23.5586 17.3902 23.5851 17.3583C23.6826 17.2417 23.7782 17.1961 23.88 17.1867C24.0248 17.1732 24.1812 17.2329 24.3712 17.2635C24.4542 17.2766 24.5391 17.2764 24.6261 17.2668C24.8781 17.2388 25.148 17.1311 25.4446 17.0374C25.7363 16.9451 26.0561 16.8667 26.3926 16.8952C26.4768 16.9023 26.5616 16.9162 26.6469 16.9382C26.841 16.9881 27.0157 17.8018 27.0399 17.7926C27.0984 17.7741 27.1244 17.2217 27.2465 17.0832C27.3171 17.0028 27.3891 16.9554 27.4595 16.9306C27.6916 16.8555 28.1305 16.9911 28.3717 17.0622C28.5421 17.1065 28.6973 17.1276 28.8437 17.0641C28.9554 17.0157 29.106 16.842 29.257 16.6635C29.4179 16.4729 29.5777 16.2764 29.6822 16.2172C29.78 16.1628 29.9013 16.2586 29.9932 16.2812C30.0569 16.2968 30.1103 16.2789 30.154 16.1612C30.2192 15.9856 30.3585 15.4061 30.4008 15.339ZM26.0523 24.3463C25.94 23.4 25.856 24.2113 26.0002 24.7075C26.0327 24.8192 26.0817 24.5919 26.0523 24.3463ZM15.9748 23.2557C15.9933 23.5272 16.0119 23.7987 16.0305 24.0702C16.0504 23.9555 16.0703 23.8409 16.0903 23.7262C16.0652 23.5638 16.0401 23.4015 16.0149 23.2391C16.0015 23.2446 15.9881 23.2502 15.9748 23.2557Z" fill="#7A6F46"/>
</svg>
