<svg width="32" height="29" viewBox="0 0 32 29" fill="none" xmlns="http://www.w3.org/2000/svg">
<path d="M16.877 10.875L18.4826 1.12148C18.5882 0.475781 19.1382 0 19.7827 0C20.1994 0 20.5883 0.198242 20.8383 0.538086L21.7772 1.8125H24.6718C25.3774 1.8125 26.0552 2.10137 26.5553 2.61113L27.5553 3.625H30.6666C31.4055 3.625 32 4.23105 32 4.98438V6.34375C32 8.84727 30.011 10.875 27.5553 10.875H23.7051L23.0995 14.5L16.877 10.875ZM23.1106 14.5057V27.1875C23.1106 28.19 22.3162 29 21.3328 29H19.5549C18.5715 29 17.777 28.19 17.777 27.1875V20.6625C16.4436 21.3592 14.9324 21.75 13.3323 21.75C11.7323 21.75 10.2211 21.3592 8.88767 20.6625V27.1875C8.88767 28.19 8.09319 29 7.1098 29H5.33193C4.34854 29 3.55406 28.19 3.55406 27.1875V14.1488C1.95397 13.5314 0.698352 12.1494 0.264995 10.3822L0.0538733 9.5043C-0.185028 8.53574 0.39278 7.5502 1.34839 7.30664C2.30399 7.06309 3.26515 7.65215 3.50405 8.62637L3.72073 9.5043C3.91519 10.3086 4.62634 10.875 5.44305 10.875H16.877L23.1106 14.5057ZM25.7774 4.53125C25.7774 4.2909 25.6838 4.06039 25.5171 3.89043C25.3504 3.72048 25.1243 3.625 24.8885 3.625C24.6528 3.625 24.4266 3.72048 24.2599 3.89043C24.0932 4.06039 23.9996 4.2909 23.9996 4.53125C23.9996 4.7716 24.0932 5.00211 24.2599 5.17207C24.4266 5.34202 24.6528 5.4375 24.8885 5.4375C25.1243 5.4375 25.3504 5.34202 25.5171 5.17207C25.6838 5.00211 25.7774 4.7716 25.7774 4.53125Z" fill="white"/>
</svg>
