<svg width="62" height="62" viewBox="0 0 62 62" fill="none" xmlns="http://www.w3.org/2000/svg">
<path d="M22.1975 36.4837C23.0435 36.4837 23.8548 36.1476 24.453 35.5495C25.0512 34.9513 25.3873 34.1399 25.3873 33.294C25.3873 32.448 25.0512 31.6367 24.453 31.0385C23.8548 30.4403 23.0435 30.1042 22.1975 30.1042C21.3516 30.1042 20.5403 30.4403 19.9421 31.0385C19.3439 31.6367 19.0078 32.448 19.0078 33.294C19.0078 34.1399 19.3439 34.9513 19.9421 35.5495C20.5403 36.1476 21.3516 36.4837 22.1975 36.4837ZM22.1975 45.4149C23.0435 45.4149 23.8548 45.0789 24.453 44.4807C25.0512 43.8825 25.3873 43.0712 25.3873 42.2252C25.3873 41.3792 25.0512 40.5679 24.453 39.9697C23.8548 39.3715 23.0435 39.0355 22.1975 39.0355C21.3516 39.0355 20.5403 39.3715 19.9421 39.9697C19.3439 40.5679 19.0078 41.3792 19.0078 42.2252C19.0078 43.0712 19.3439 43.8825 19.9421 44.4807C20.5403 45.0789 21.3516 45.4149 22.1975 45.4149ZM34.3185 33.294C34.3185 34.1399 33.9824 34.9513 33.3843 35.5495C32.7861 36.1476 31.9747 36.4837 31.1288 36.4837C30.2828 36.4837 29.4715 36.1476 28.8733 35.5495C28.2751 34.9513 27.939 34.1399 27.939 33.294C27.939 32.448 28.2751 31.6367 28.8733 31.0385C29.4715 30.4403 30.2828 30.1042 31.1288 30.1042C31.9747 30.1042 32.7861 30.4403 33.3843 31.0385C33.9824 31.6367 34.3185 32.448 34.3185 33.294ZM31.1288 45.4149C31.9747 45.4149 32.7861 45.0789 33.3843 44.4807C33.9824 43.8825 34.3185 43.0712 34.3185 42.2252C34.3185 41.3792 33.9824 40.5679 33.3843 39.9697C32.7861 39.3715 31.9747 39.0355 31.1288 39.0355C30.2828 39.0355 29.4715 39.3715 28.8733 39.9697C28.2751 40.5679 27.939 41.3792 27.939 42.2252C27.939 43.0712 28.2751 43.8825 28.8733 44.4807C29.4715 45.0789 30.2828 45.4149 31.1288 45.4149ZM43.2497 33.294C43.2497 34.1399 42.9137 34.9513 42.3155 35.5495C41.7173 36.1476 40.906 36.4837 40.06 36.4837C39.214 36.4837 38.4027 36.1476 37.8045 35.5495C37.2063 34.9513 36.8703 34.1399 36.8703 33.294C36.8703 32.448 37.2063 31.6367 37.8045 31.0385C38.4027 30.4403 39.214 30.1042 40.06 30.1042C40.906 30.1042 41.7173 30.4403 42.3155 31.0385C42.9137 31.6367 43.2497 32.448 43.2497 33.294Z" fill="black"/>
<path fill-rule="evenodd" clip-rule="evenodd" d="M20.9227 9.052C21.4303 9.052 21.9171 9.25364 22.276 9.61255C22.6349 9.97147 22.8365 10.4583 22.8365 10.9658V12.8797H39.4231V10.9658C39.4231 10.4583 39.6248 9.97147 39.9837 9.61255C40.3426 9.25364 40.8294 9.052 41.337 9.052C41.8445 9.052 42.3313 9.25364 42.6902 9.61255C43.0492 9.97147 43.2508 10.4583 43.2508 10.9658V12.9001C43.6387 12.9103 44.0002 12.929 44.3353 12.9562C45.305 13.0328 46.2134 13.2063 47.0734 13.6452C48.394 14.318 49.4678 15.3918 50.1406 16.7125C50.5795 17.5724 50.753 18.4808 50.8296 19.4505C50.9061 20.3819 50.9061 21.5175 50.9061 22.8827V42.4293C50.9061 43.7945 50.9061 44.9301 50.8296 45.8615C50.753 46.8311 50.5795 47.7396 50.1406 48.5995C49.4684 49.9198 48.3956 50.9935 47.0759 51.6668C46.2134 52.1057 45.305 52.2792 44.3353 52.3557C43.4039 52.4323 42.2684 52.4323 40.9057 52.4323H21.3565C19.9913 52.4323 18.8558 52.4323 17.9244 52.3557C16.9547 52.2792 16.0462 52.1057 15.1863 51.6668C13.8664 50.9953 12.7927 49.9234 12.1191 48.6046C11.6801 47.7421 11.5066 46.8337 11.4301 45.864C11.3535 44.9326 11.3535 43.7971 11.3535 42.4344V22.8827C11.3535 21.5175 11.3535 20.3819 11.4301 19.4505C11.5066 18.4808 11.6801 17.5724 12.1191 16.7125C12.7919 15.3918 13.8656 14.318 15.1863 13.6452C16.0462 13.2063 16.9547 13.0328 17.9244 12.9562C18.2595 12.929 18.621 12.9103 19.0089 12.9001V10.9658C19.0089 10.7145 19.0584 10.4656 19.1545 10.2334C19.2507 10.0012 19.3917 9.79027 19.5694 9.61255C19.7471 9.43484 19.9581 9.29386 20.1903 9.19768C20.4225 9.1015 20.6714 9.052 20.9227 9.052ZM47.0785 26.9145H15.1812V42.3528C15.1812 43.8124 15.1812 44.7948 15.245 45.5476C15.3037 46.2825 15.4108 46.6321 15.5282 46.8618C15.8344 47.464 16.3218 47.9514 16.9241 48.2576C17.1537 48.375 17.5033 48.4821 18.2357 48.5408C18.991 48.6021 19.9709 48.6046 21.4331 48.6046H40.8266C42.2862 48.6046 43.2687 48.6046 44.0214 48.5408C44.7563 48.4821 45.1059 48.375 45.3356 48.2576C45.9368 47.9516 46.4254 47.4629 46.7314 46.8618C46.8488 46.6321 46.956 46.2825 47.0147 45.5476C47.0759 44.7948 47.0785 43.8124 47.0785 42.3528V26.9145ZM27.3022 18.6212C26.7946 18.6212 26.3078 18.8228 25.9489 19.1817C25.59 19.5406 25.3883 20.0274 25.3883 20.535C25.3883 21.0426 25.59 21.5294 25.9489 21.8883C26.3078 22.2472 26.7946 22.4489 27.3022 22.4489H34.9575C35.4651 22.4489 35.9519 22.2472 36.3108 21.8883C36.6697 21.5294 36.8713 21.0426 36.8713 20.535C36.8713 20.0274 36.6697 19.5406 36.3108 19.1817C35.9519 18.8228 35.4651 18.6212 34.9575 18.6212H27.3022Z" fill="black"/>
</svg>
