<svg width="62" height="62" viewBox="0 0 62 62" fill="none" xmlns="http://www.w3.org/2000/svg">
<path d="M30.6206 11.6902C28.9286 11.6902 27.306 12.3623 26.1096 13.5587C24.9132 14.7551 24.2411 16.3777 24.2411 18.0697C24.2411 19.7616 24.9132 21.3842 26.1096 22.5806C27.306 23.777 28.9286 24.4491 30.6206 24.4491C32.3125 24.4491 33.9352 23.777 35.1315 22.5806C36.3279 21.3842 37 19.7616 37 18.0697C37 16.3777 36.3279 14.7551 35.1315 13.5587C33.9352 12.3623 32.3125 11.6902 30.6206 11.6902ZM21.6893 18.0697C21.6893 16.8968 21.9204 15.7354 22.3692 14.6518C22.818 13.5682 23.4759 12.5837 24.3052 11.7543C25.1346 10.925 26.1192 10.2671 27.2027 9.81828C28.2863 9.36944 29.4477 9.13843 30.6206 9.13843C31.7934 9.13843 32.9548 9.36944 34.0384 9.81828C35.122 10.2671 36.1066 10.925 36.9359 11.7543C37.7653 12.5837 38.4231 13.5682 38.872 14.6518C39.3208 15.7354 39.5518 16.8968 39.5518 18.0697C39.5518 20.4384 38.6108 22.7101 36.9359 24.385C35.261 26.0599 32.9893 27.0009 30.6206 27.0009C28.2519 27.0009 25.9802 26.0599 24.3052 24.385C22.6303 22.7101 21.6893 20.4384 21.6893 18.0697ZM23.9094 32.2218C23.314 32.375 22.7245 32.5468 22.141 32.7373L19.6938 33.5411C18.6942 33.8666 17.7914 34.436 17.067 35.1978C16.3426 35.9596 15.8194 36.8899 15.5447 37.9047L14.5265 45.2538C14.2968 46.9048 15.1721 48.2649 16.5577 48.5966C19.2805 49.2473 23.8328 49.9669 30.618 49.9669C37.4058 49.9669 41.9607 49.2473 44.6834 48.5966C46.0691 48.2649 46.9418 46.9048 46.7147 45.2538L45.694 37.9047C45.4192 36.8899 44.896 35.9596 44.1716 35.1978C43.4472 34.436 42.5444 33.8666 41.5448 33.5411L39.0976 32.7373C38.5141 32.5451 37.9255 32.3733 37.3318 32.2218C36.8708 32.5835 36.3828 32.9094 35.8721 33.1966C34.2733 34.1151 32.4644 34.6056 30.6206 34.6205C28.426 34.6205 26.6143 33.8984 25.369 33.1966C24.8574 32.9095 24.3712 32.5836 23.9094 32.2218ZM24.6341 29.4276L25.1291 29.915L25.1419 29.9278L25.2031 29.9839C25.2627 30.0384 25.3571 30.1166 25.4864 30.2187C25.7416 30.4228 26.1269 30.6984 26.6194 30.974C27.6069 31.5303 28.9849 32.0687 30.618 32.0687C32.2512 32.0687 33.6291 31.5329 34.6167 30.974C35.1188 30.6904 35.5922 30.3588 36.0304 29.9839L36.0942 29.9252L36.1044 29.9176L36.5994 29.4276L37.2833 29.5859C38.1611 29.7866 39.0304 30.029 39.8912 30.3131L42.3409 31.1169C43.7609 31.578 45.0412 32.3906 46.0628 33.4792C47.0845 34.5677 47.8143 35.897 48.1845 37.3433L48.2024 37.4122L49.2384 44.9042C49.6135 47.6091 48.1666 50.3905 45.2729 51.0795C42.3384 51.7787 37.5844 52.5187 30.618 52.5187C23.6517 52.5187 18.8977 51.7787 15.9631 51.0795C13.0694 50.3905 11.6226 47.6091 11.9951 44.9042L13.0337 37.4122L13.0516 37.3433C13.4217 35.897 14.1516 34.5677 15.1732 33.4792C16.1949 32.3906 17.4752 31.578 18.8951 31.1169L21.3449 30.3131C22.2057 30.0307 23.075 29.7883 23.9528 29.5859L24.6341 29.4276Z" fill="black"/>
</svg>
