<svg width="31" height="31" viewBox="0 0 31 31" fill="none" xmlns="http://www.w3.org/2000/svg">
<path fill-rule="evenodd" clip-rule="evenodd" d="M11.625 6.45833C11.625 5.77319 11.8972 5.11611 12.3816 4.63164C12.8661 4.14717 13.5232 3.875 14.2083 3.875H16.7917C17.4768 3.875 18.1339 4.14717 18.6184 4.63164C19.1028 5.11611 19.375 5.77319 19.375 6.45833V11.625H24.5417C25.2268 11.625 25.8839 11.8972 26.3684 12.3816C26.8528 12.8661 27.125 13.5232 27.125 14.2083V16.7917C27.125 17.4768 26.8528 18.1339 26.3684 18.6184C25.8839 19.1028 25.2268 19.375 24.5417 19.375H19.375V24.5417C19.375 25.2268 19.1028 25.8839 18.6184 26.3684C18.1339 26.8528 17.4768 27.125 16.7917 27.125H14.2083C13.5232 27.125 12.8661 26.8528 12.3816 26.3684C11.8972 25.8839 11.625 25.2268 11.625 24.5417V19.375H6.45833C5.77319 19.375 5.11611 19.1028 4.63164 18.6184C4.14717 18.1339 3.875 17.4768 3.875 16.7917V14.2083C3.875 13.5232 4.14717 12.8661 4.63164 12.3816C5.11611 11.8972 5.77319 11.625 6.45833 11.625H11.625V6.45833Z" fill="#7A6F46"/>
</svg>
