<svg width="489" height="585" viewBox="0 0 489 585" fill="none" xmlns="http://www.w3.org/2000/svg">
<path fill-rule="evenodd" clip-rule="evenodd" d="M123.2 73.2833C122.681 74.0589 121.387 75.206 120.345 75.7935C119.268 76.4854 118.568 77.6117 118.642 78.3664C118.837 79.1514 118.749 79.8086 118.594 79.8829C118.361 79.9944 117.517 80.5749 116.792 81.1856C115.801 82.0123 115.712 82.6695 116.544 83.501C117.204 84.0631 117.356 84.7807 116.891 85.0036C116.426 85.2265 116.337 85.8837 116.679 86.4225C117.021 86.9614 116.856 87.6557 116.236 87.9529C114.685 88.6959 115.599 93.0017 117.445 93.5222C118.528 93.794 118.536 93.9659 117.555 94.1724C116.849 94.3349 116.598 94.8946 117.01 95.2245C117.386 95.6588 117.333 96.2115 116.868 96.4344C116.403 96.6573 116.547 97.203 117.164 97.6978C117.739 98.1251 117.832 98.4317 117.239 98.4525C116.646 98.4733 116.678 99.1608 117.276 100.104C117.875 101.047 118 102.041 117.535 102.264C117.147 102.449 117.206 102.86 117.653 103.086C118.219 103.341 118.492 104.089 118.403 104.746C118.315 105.404 118.908 107.93 119.854 110.376C120.799 112.821 121.881 115.641 122.247 116.695C122.894 118.669 126.263 126.366 128.9 131.954C129.736 133.749 130.519 136.097 130.807 137.189C131.096 138.28 132.325 140.854 133.53 142.912C134.812 144.932 136.306 148.081 136.859 149.749C137.454 151.484 140.607 157.088 143.977 162.237C148.971 169.946 150.443 171.788 152.546 172.712C155.259 173.96 158.124 173.377 156.117 171.967C154.599 170.85 154.621 167.062 156.238 166.902C157.459 166.756 157.368 165.657 156.075 164.257C155.407 163.523 156.009 161.126 157.094 160.606C157.636 160.346 157.73 160.653 157.324 161.287C156.77 162.167 156.856 162.301 158.077 162.155C159.892 161.988 159.964 160.987 158.35 157.808C157.693 156.454 157.218 154.749 157.461 154.018C157.584 153.256 157.167 151.962 156.534 151.124C155.567 149.918 155.628 149.537 156.954 149.078C158.357 148.581 158.314 148.514 156.999 148.353C155.607 148.23 155.479 148.028 156.128 146.662C156.751 145.573 156.428 144.586 155.049 143.051C153.799 141.718 152.912 139.683 152.661 137.695C152.37 134.848 152.113 134.444 150.088 133.482C148.148 132.655 148.019 132.453 149.104 131.933C150.5 131.264 149.543 129.439 147.926 129.599C147.178 129.694 147.205 129.418 147.98 129.046C148.867 128.533 148.886 128.085 148.063 127.425C147.162 126.803 147.266 126.489 148.29 126.35C149.236 126.248 149.677 125.51 149.613 124.135C149.437 122.901 149.173 122.325 148.879 122.818C148.542 123.243 148.293 123.01 148.184 122.36C148.032 121.643 148.403 121.113 148.919 121.129C149.435 121.146 149.232 120.189 148.462 118.976C147.137 116.889 147.017 116.858 146.744 118.658C146.49 120.01 146.14 119.299 145.25 115.509C144.572 112.847 143.762 110.776 143.53 110.887C143.297 110.999 143.239 110.588 143.447 109.96C143.656 109.333 143.375 108.414 142.843 108.054C142.269 107.626 141.946 106.639 142.146 105.84C142.347 105.042 142.202 104.496 141.815 104.682C141.427 104.867 141.524 104.382 142.042 103.606C142.526 102.935 142.419 101.493 141.821 100.55C140.923 99.1356 140.64 99.0078 140.102 100.232C139.747 101.105 139.325 101.395 139.025 100.924C138.769 100.52 138.78 99.8994 139.074 99.4071C139.333 99.0193 139.103 98.3388 138.529 97.9115C137.834 97.4539 138.077 96.7223 139.146 95.8585C140.94 94.384 140.122 92.1406 137.538 91.0952C136.654 90.8164 136.638 90.4727 137.49 90.064C138.11 89.7668 138.741 88.8495 138.942 88.0507C139.239 86.7664 139.118 86.7362 138.437 87.4143C137.833 88.0552 137.188 87.8368 136.555 86.9984C135.922 86.1599 136.01 85.5027 136.863 85.0941C138.025 84.5368 137.94 84.4021 136.59 84.3462C135.318 84.2532 135.233 84.1185 136.508 83.4196C137.36 83.0109 137.465 82.6975 136.871 82.7183C135.968 82.8877 135.832 82.5138 136.171 81.2969C136.623 79.9384 136.452 79.669 134.632 78.8722C132.168 77.857 130.645 75.776 131.885 75.1816C133.125 74.5872 129.782 71.7095 127.548 71.3748C125.279 71.1446 124.384 71.4859 123.2 73.2833ZM122.854 78.6316C123.068 78.9684 122.972 79.4538 122.584 79.6395C122.119 79.8624 121.363 79.7857 120.916 79.5604C120.427 79.2677 120.566 78.8497 121.186 78.5525C121.884 78.2182 122.598 78.2275 122.854 78.6316Z" fill="#B4D699"/>
<path fill-rule="evenodd" clip-rule="evenodd" d="M204.442 79.76C200.922 83.2919 196.583 89.6756 197.096 90.4839C197.31 90.8207 196.931 91.1783 196.26 91.2363C195.511 91.3314 194.49 93.2264 193.923 95.5185C193.314 97.7432 192.378 99.7729 191.913 99.9958C191.448 100.219 190.694 101.898 190.181 103.637C189.64 105.653 189.199 106.391 188.996 105.434C188.516 102.766 185.829 108.885 186.24 111.763C186.381 113.1 186.202 115.207 185.82 116.356C185.36 117.543 185.384 118.059 185.755 117.529C187.164 115.448 187.129 118.101 185.701 120.629C183.574 124.285 182.782 126.86 183.667 127.139C184.105 127.192 184.001 127.506 183.458 127.766C182.838 128.063 182.862 128.579 183.6 129.104C184.174 129.531 184.31 129.905 183.795 129.889C183.279 129.872 183.241 130.769 183.693 131.958C184.144 133.147 184.259 134.761 183.981 135.597C183.703 136.433 183.689 137.845 183.892 138.802C184.501 141.672 187.945 147.576 188.977 147.609C189.57 147.588 190.118 148.292 190.313 149.077C190.551 149.929 191.253 150.559 192.165 150.561C192.956 150.533 193.84 150.812 194.097 151.216C194.832 152.533 196.288 151.483 195.898 149.913C195.695 148.957 197.803 141.446 200.591 133.258C203.38 125.069 205.468 118.007 205.212 117.603C204.955 117.199 205.07 116.265 205.391 115.497C205.712 114.728 205.637 113.973 205.191 113.748C204.745 113.523 204.806 113.142 205.349 112.882C206.279 112.436 210.27 104.55 210.137 103.384C210.078 102.973 210.415 102.548 210.725 102.399C211.577 101.991 213.323 96.9372 212.853 96.1963C212.682 95.9269 212.851 94.4407 213.26 93.0148C213.669 91.5889 213.648 90.2814 213.167 90.1606C212.763 90.0026 213.151 89.8169 213.976 89.6846C215.078 89.5082 215.372 89.0159 214.843 87.864C214.442 86.9141 214.677 86.0106 215.452 85.6391C216.15 85.3048 217.04 83.9997 217.422 82.8502C217.762 81.6333 218.412 80.2678 218.869 79.8731C219.473 79.2322 219.182 78.9326 217.661 78.6073C216.579 78.3354 215.306 78.2423 214.841 78.4652C214.376 78.6881 213.689 78.4024 213.347 77.8636C212.963 77.2574 212.369 77.2782 211.8 77.8146C211.196 78.4555 210.637 78.3718 209.996 77.3615C208.927 75.6777 208.23 76.0121 204.442 79.76Z" fill="#B4D699"/>
<path fill-rule="evenodd" clip-rule="evenodd" d="M64.099 161.256C64.6547 162.131 60.5543 166.82 58.7208 167.435C56.8873 168.05 57.2294 168.589 63.2685 174.918C66.9347 178.783 70.9137 181.707 79.8018 187.11C86.2448 191.05 93.4521 195.238 95.8893 196.529C98.2838 197.753 100.609 199.186 101.028 199.688C102.073 200.856 110.112 203.328 111.197 202.808C111.739 202.548 112.891 202.611 113.776 202.89C114.661 203.169 115.812 203.231 116.355 202.971C117.828 202.265 117.165 199.948 115.431 199.286C114.306 198.946 114.006 198.475 114.25 197.743C114.528 196.907 114.958 196.789 115.567 197.112C116.134 197.367 117.2 197.296 117.898 196.961C119.06 196.404 118.975 196.269 117.625 196.213C116.276 196.157 116.19 196.023 117.275 195.503C117.973 195.168 118.983 193.893 119.478 192.602C120.874 189.386 124.276 185.032 125.359 185.304C125.84 185.424 125.498 184.886 124.589 184.091C123.681 183.297 122.505 182.719 122.152 182.8C121.008 182.909 119.854 181.09 120.784 180.644C121.171 180.459 117.655 178.103 112.97 175.342C108.165 172.55 104.157 170.694 103.7 171.088C103.165 171.52 102.676 171.228 102.396 170.308C102.115 169.388 100.236 168.18 97.5319 167.105C95.0332 166.194 91.3158 164.638 89.2902 163.676C80.7492 159.776 62.0042 157.955 64.099 161.256Z" fill="#B4D699"/>
<path fill-rule="evenodd" clip-rule="evenodd" d="M150.34 195.994C140.975 201.624 129.89 209.484 129.783 210.59C129.722 210.971 128.273 212.192 126.464 213.323C121.81 216.344 118.507 219.421 117.95 221.093C117.672 221.929 117.146 222.532 116.785 222.442C116.063 222.261 111.073 228.254 108.557 232.095C107.788 233.43 105.515 236.54 103.607 238.948C101.741 241.423 100.313 243.952 100.38 244.535C100.49 245.185 100.126 245.887 99.506 246.184C98.9634 246.444 98.1935 247.779 97.8619 249.168C97.4876 250.489 96.4584 252.212 95.5443 253.002C94.4751 253.866 94.1623 254.806 94.7181 255.682C95.1884 256.423 95.0386 257.461 94.2367 258.109C93.5123 258.719 93.3037 259.346 93.75 259.572C94.1963 259.797 93.929 260.013 93.1807 260.108C92.3548 260.24 91.6972 261.434 91.3816 263.166C91.1783 264.757 90.6061 266.086 90.0903 266.069C89.5317 265.986 89.4783 266.538 89.9058 267.212C90.3333 267.885 90.0656 270.649 89.2394 273.329C88.456 276.076 88.1028 278.705 88.4448 279.244C88.7868 279.783 88.7065 280.612 88.2147 281.111C87.4208 281.931 85.7756 292.558 86.3314 293.433C86.4169 293.568 86.4621 295.391 86.3174 297.393C86.1728 299.395 86.5332 302.033 87.2253 303.283C87.9173 304.532 88.0747 306.214 87.6764 307.02C87.2005 307.863 87.3072 309.305 87.863 310.18C88.4188 311.056 88.7073 312.147 88.3705 312.572C88.1112 312.96 88.3221 314.089 88.8779 314.964C89.4337 315.84 89.6794 316.864 89.4201 317.252C89.1608 317.64 89.3877 319.112 89.9675 320.503C90.5125 321.999 91.012 324.219 91.0331 325.527C91.0543 326.834 91.495 328.644 92.0508 329.519C92.6066 330.395 93.0313 331.86 93.0712 332.72C93.0764 333.683 93.8084 335.792 94.5592 337.453C99.502 347.47 100.253 349.13 99.9825 350.138C99.8515 350.728 100.073 351.237 100.357 351.364C100.717 351.455 101.973 353.752 103.055 356.571C104.215 359.354 105.767 362.914 106.552 364.47C109.387 370.051 120.564 387.182 122.288 388.464C123.308 389.117 123.942 389.956 123.88 390.336C123.776 390.65 124.281 391.286 125.019 391.811C125.756 392.336 127.255 393.902 128.351 395.309C129.369 396.754 131.691 398.979 133.415 400.261C135.061 401.58 136.672 403.004 137.014 403.543C137.313 404.014 140.178 405.98 143.481 407.998C153.107 413.926 155.913 415.48 156.944 415.512C157.46 415.529 158.027 415.784 158.198 416.054C158.513 416.869 163.104 419.324 164.376 419.417C165.21 419.457 165.202 419.285 164.43 418.864C163.657 418.444 163.649 418.272 164.483 418.312C165.119 418.358 165.814 418.816 166.036 419.324C166.402 420.379 181.114 424.923 182.354 424.329C182.741 424.143 183.661 424.317 184.278 424.812C184.852 425.239 185.566 425.249 185.903 424.824C186.162 424.436 186.721 424.519 187.063 425.058C187.832 426.271 191.365 426.422 191.748 425.273C191.964 424.817 192.05 424.952 192.116 425.535C192.052 426.708 197.328 427.693 198.955 426.913C199.575 426.616 200.254 426.73 200.511 427.134C201.024 427.942 205.663 428.881 206.869 428.391C207.334 428.168 208.881 428.217 210.436 428.438C211.992 428.658 214.004 428.484 215.012 428.002C216.175 427.444 216.811 427.491 216.765 428.215C216.72 428.94 217.15 428.822 218.107 428.099C219.133 427.168 219.727 427.147 220.317 427.919C220.916 428.861 221.028 428.72 220.886 427.382C220.753 426.216 220.9 425.97 221.413 426.778C222.345 428.088 227.26 428.983 231.363 428.598C235.465 428.213 235.388 428.25 233.915 426.408C232.614 424.836 233.082 423.821 234.704 424.625C235.228 424.813 235.217 425.433 234.88 425.858C234.121 426.573 234.645 426.761 240.952 427.779C242.43 428.037 246.404 427.45 247.128 426.839C247.396 426.623 247.756 426.714 247.927 426.983C248.141 427.32 248.855 427.329 249.475 427.032C250.328 426.624 250.234 426.317 249.392 426.106C247.468 425.622 247.479 425.002 249.459 424.141C250.432 423.762 251.544 422.966 251.83 422.302C252.271 421.563 252.814 421.303 253.423 421.626C253.99 421.882 255.296 421.87 256.475 421.657C257.576 421.48 258.693 421.648 258.907 421.984C259.463 422.86 258.292 423.245 256.488 422.792C255.208 422.527 255.139 422.737 256.296 423.763C257.084 424.527 257.356 425.275 256.969 425.461C256.581 425.647 256.485 426.132 256.742 426.536C256.955 426.873 257.428 426.822 257.688 426.434C258.025 426.009 258.42 425.995 258.634 426.332C258.89 426.736 259.647 426.813 260.267 426.516C260.887 426.218 261.6 426.228 261.857 426.632C262.071 426.969 262.827 427.045 263.525 426.711C264.222 426.377 264.909 426.662 265.181 427.41C265.531 428.121 266.285 428.99 267.015 429.343C267.701 429.628 269.43 431.874 270.892 434.336C272.353 436.798 278.181 444.546 283.857 451.577C289.412 458.577 295.095 465.779 296.447 467.591C299.315 471.312 302.294 474.891 307.141 480.298C309.025 482.469 311.67 485.681 313.143 487.523C318.123 494.096 321.223 497.705 321.995 498.126C322.442 498.351 323.641 499.445 324.601 500.479C326.861 503.085 330.699 504.671 333.04 503.901C334.409 503.508 334.932 503.696 335.221 504.788C335.416 505.573 336.041 506.24 336.557 506.256C337.115 506.339 337.402 505.675 337.241 504.786C336.996 503.762 337.445 503.195 338.581 502.914C339.561 502.708 340.131 502.171 339.874 501.767C339.618 501.363 338.741 501.256 338.001 501.523C337.226 501.894 336.21 502.205 335.702 502.361C335.229 502.412 334.489 502.679 333.981 502.835C333.551 502.953 333.562 502.333 333.995 501.423C334.505 500.475 334.439 499.892 333.973 500.115C333.431 500.375 332.787 500.157 332.445 499.618C332.103 499.079 332.509 498.445 333.37 498.208C334.11 497.941 334.995 498.22 335.216 498.729C335.446 499.409 336.245 499.553 337.098 499.145C338.028 498.699 338.159 498.109 337.499 497.547C336.882 497.052 337.432 496.964 338.961 497.461C340.249 497.898 342.777 497.74 344.533 497.162C347.735 496.155 349.868 496.011 348.008 496.903C347.388 497.2 347.524 497.574 348.665 498.257C350.493 499.225 350.42 500.226 348.528 500.43C347.78 500.525 347.443 500.95 347.7 501.354C347.956 501.759 349.022 501.687 350.03 501.204C351.27 500.609 351.746 499.766 351.337 498.645C350.955 497.247 351.223 497.031 352.58 497.258C353.5 497.433 354.636 497.152 355.007 496.622C355.379 496.093 355.36 496.541 354.927 497.451C354.349 498.665 354.577 499.024 355.611 498.529C356.386 498.157 357.808 497.212 358.722 496.423L360.361 495.023L358.124 495.48C356.736 495.735 356.802 495.469 358.324 494.681C359.986 493.796 360.772 492.805 360.716 491.602C360.698 489.502 361.291 489.482 363.124 491.414C364.127 492.515 364.135 492.687 362.777 492.459C361.858 492.285 361.272 492.478 361.486 492.814C362.469 494.363 366.179 493.2 369.413 490.333C371.733 488.254 372.853 487.63 373.47 488.124C374.542 489.016 375.774 488.25 375.005 487.038C374.663 486.499 374.751 485.842 375.216 485.619C375.681 485.396 376.264 485.995 376.544 486.915C376.867 487.902 377.038 488.171 376.972 487.588C376.948 487.073 377.389 486.334 377.931 486.074C378.474 485.814 378.88 485.18 378.779 484.702C378.677 484.223 379.428 483.336 380.591 482.779C382.056 481.901 382.237 481.551 381.19 481.174C380.426 480.926 379.402 481.065 378.91 481.564C378.496 482.026 377.86 481.98 377.518 481.441C377.176 480.902 377.419 480.171 378.039 479.873C378.659 479.576 378.988 478.979 378.774 478.643C378.475 478.171 378.94 477.948 380.324 477.9C381.949 477.912 382.139 477.733 381.076 477.013C380.089 476.255 380.244 476.181 382.187 476.216C383.382 476.346 384.542 476.581 384.713 476.851C384.927 477.187 385.597 477.129 386.295 476.795C387.07 476.423 387.439 476.686 387.393 477.411C387.329 478.583 387.968 480.385 388.355 480.2C388.51 480.125 388.909 479.32 389.221 478.379C389.951 476.185 391.034 476.456 391.025 478.832C391.089 480.207 391.303 480.544 392.078 480.172C393.938 479.281 393.995 477.936 392.303 474.794C390.834 472.16 390.786 471.129 392.112 468.122C392.893 466.166 394.483 463.735 395.467 462.736C401.852 456.074 402.173 455.305 399.707 452.535C399.536 452.265 398.569 451.06 397.601 449.854C396.121 447.841 395.88 447.78 395.747 449.162C395.369 451.275 394.386 449.726 394.515 447.381C394.606 445.931 394.229 445.497 391.661 444.795C389.977 444.373 389.197 443.78 389.739 443.52C390.282 443.26 390.336 442.708 389.641 442.25C389.066 441.823 388.855 440.694 389.211 439.821C389.446 438.917 389.406 438.058 388.968 438.005C388.607 437.914 388.377 437.233 388.543 436.539C388.813 435.531 388.445 435.269 387.301 435.378C386.002 435.561 385.874 435.359 386.403 433.963C386.742 432.747 386.563 432.305 385.396 431.899C384.228 431.492 384.177 431.253 384.909 430.814C385.529 430.517 385.126 430.359 384.06 430.431C382.993 430.503 382.512 430.382 382.977 430.159C384.519 429.244 383.504 427.008 381.51 426.733C379.998 426.58 379.792 426.415 380.602 425.939C381.454 425.53 381.206 425.298 379.736 425.212C378.379 424.984 377.967 424.654 378.296 424.058C378.667 423.528 379.14 423.477 379.354 423.814C379.611 424.218 380.057 424.443 380.444 424.257C380.754 424.109 380.517 423.257 379.961 422.381C379.405 421.505 378.788 421.011 378.606 421.361C377.898 422.316 376.968 420.214 377.42 418.855C377.733 417.915 377.527 417.75 376.519 418.233C375.357 418.79 375.151 418.625 375.149 416.869C375.157 414.494 374.184 412.324 373.177 412.807C372.789 412.993 372.541 412.761 372.517 412.245C372.536 411.797 371.825 410.996 370.889 410.478C369.585 409.697 369.484 409.219 370.149 408.197C370.745 407.384 370.687 406.973 370.067 407.27C369.292 407.642 369.078 407.305 369.057 405.998C369.07 404.586 368.907 404.488 368.071 405.24C367.466 405.881 366.908 405.798 366.267 404.787C365.711 403.912 365.834 403.15 366.764 402.704C367.961 402.043 367.919 401.975 366.286 401.792C364.094 401.524 360.434 396.076 361.829 395.407C362.371 395.147 362.203 394.085 361.554 392.903C360.699 391.556 359.841 391.001 358.585 391.252C357.639 391.354 356.599 391.149 356.343 390.745C355.702 389.735 355.838 387.561 356.578 387.294C358.102 386.828 358.129 386.551 356.659 386.465C355.069 386.349 352.388 383.241 353.474 382.721C353.784 382.573 353.794 381.952 353.452 381.414C353.11 380.875 352.424 380.589 351.881 380.849C351.416 381.072 351.314 380.594 351.79 379.751C352.448 378.557 352.125 377.57 350.952 376.2C350.027 375.062 349.429 374.119 349.739 373.97C350.049 373.821 350.819 372.486 351.46 370.949C352.535 368.501 352.725 368.322 353.951 369.14C354.646 369.598 354.964 369.621 354.665 369.149C354.443 368.641 354.702 368.253 355.218 368.269C355.854 368.316 356.579 367.705 356.942 367.004C357.263 366.235 357.72 365.84 357.934 366.177C358.148 366.514 358.329 366.163 358.375 365.439C358.498 364.677 358.148 363.966 357.702 363.741C357.255 363.516 356.876 363.873 356.788 364.53C356.75 365.427 356.518 365.538 356.176 364.999C355.406 363.787 356.649 362.401 357.988 363.077C359.284 363.685 359.845 362.977 362.075 357.253C362.987 354.707 362.947 353.848 361.806 353.165C359.772 352.032 359.558 351.695 360.953 351.026C361.574 350.729 361.902 350.132 361.689 349.795C361.389 349.324 362.354 348.774 364.23 348.226C366.614 347.522 367.071 347.128 366.516 346.252C366.131 345.646 366.297 344.951 366.917 344.654C367.537 344.357 368.291 342.678 368.684 340.908C369.12 339.206 370.443 334.443 371.601 330.374C372.759 326.306 373.476 322.976 373.115 322.885C372.754 322.794 372.858 322.481 373.324 322.258C373.789 322.035 374.024 321.132 373.786 320.279C373.548 319.427 373.861 318.486 374.326 318.264C374.869 318.003 375.337 316.989 375.366 315.92C375.535 314.434 375.837 314.114 377.152 314.274C379.111 314.653 378.582 313.501 376.495 312.92C375.214 312.655 375.156 312.244 375.848 310.946C376.281 310.036 377.118 309.283 377.556 309.337C378.072 309.353 378.248 308.039 378.014 306.394C377.821 304.817 377.99 303.331 378.377 303.145C378.843 302.922 378.915 301.922 378.549 300.867C378.26 299.776 378.333 298.775 378.72 298.589C379.185 298.366 378.87 297.551 377.961 296.756C376.762 295.662 376.738 295.147 377.59 294.738C379.296 293.921 380.106 290.897 378.957 290.043C378.425 289.683 378.195 289.002 378.454 288.614C378.749 288.122 378.674 287.367 378.289 286.761C377.349 285.279 376.791 277.553 377.644 277.144C377.954 276.995 378.408 277.392 378.44 278.08C378.811 280.098 379.787 278.928 379.605 276.731C379.44 274.877 379.234 274.713 377.272 275.126C374.648 275.769 374.653 274.185 377.366 272.885C378.917 272.142 379.021 271.828 377.938 271.556C375.654 270.982 375.571 270.056 377.867 270.01C379.809 270.045 379.844 269.94 378.137 269.002C377.038 268.386 376.661 267.952 377.298 267.998C377.891 267.978 378.391 267.65 378.444 267.097C378.463 266.649 378.172 266.35 377.707 266.572C377.242 266.795 376.787 266.398 376.678 265.748C376.646 265.06 375.927 264.087 375.19 263.562C373.148 262.257 372.451 260.044 373.402 258.358C373.913 257.41 373.787 256.416 372.999 255.652C372.296 255.023 372.067 254.342 372.454 254.156C372.842 253.971 372.27 252.751 371.26 251.479L369.333 249.24L369.643 251.639C369.867 253.903 369.661 253.738 367.698 249.848C366.442 247.551 364.93 244.85 364.288 243.84C363.356 242.53 363.409 241.977 364.355 241.875C365.104 241.78 365.39 241.116 364.981 239.994C364.121 237.683 360.166 232.727 359.682 233.398C359.501 233.748 358.718 233.948 357.841 233.841C357.007 233.801 356.681 233.606 357.146 233.383C357.999 232.975 355.22 228.597 353.05 227.089C352.192 226.534 351.92 225.786 352.326 225.152C352.81 224.481 352.374 223.636 351.175 222.542C350.18 221.613 349.416 221.364 349.518 221.843C349.846 223.794 348.678 223.387 347.104 221.067C346.164 219.585 346.012 218.867 346.741 219.22C347.514 219.641 347.49 219.125 346.72 217.913C346.079 216.903 344.895 216.152 344.147 216.247C343.356 216.275 342.789 216.02 342.808 215.572C342.826 215.123 341.969 214.568 340.886 214.296C339.4 213.867 339.066 213.5 339.294 212.424C339.494 211.625 339.265 210.945 338.784 210.824C338.423 210.734 338.276 210.98 338.532 211.384C338.831 211.855 338.735 212.341 338.27 212.564C337.883 212.749 337.196 212.464 336.854 211.925C336.512 211.386 336.6 210.729 337.065 210.506C337.53 210.283 337.335 209.498 336.624 208.697C335.956 207.963 335.029 207.617 334.494 208.048C333.805 208.555 333.351 208.158 332.763 206.594C332.269 205.338 331.181 204.102 330.168 203.622C329.198 203.208 327.568 202.232 326.659 201.438C323.814 199.025 317.654 195.213 317.111 195.473C316.724 195.659 316.235 195.366 315.935 194.895C315.636 194.423 314.383 193.882 313.103 193.617C311.865 193.42 310.484 192.676 310.056 192.003C309.629 191.329 307.079 190.179 304.468 189.41C301.78 188.679 299.075 187.603 298.338 187.078C296.692 185.759 290.55 184.046 288.383 184.295C286.964 184.448 286.758 184.283 287.389 183.366C288.054 182.344 287.891 182.246 286.806 182.766C286.031 183.138 285.197 183.098 284.898 182.627C284.641 182.223 283.586 181.675 282.581 181.366C275.435 179.344 267.137 177.26 266.827 177.409C266.052 177.78 256.939 175.208 256.511 174.535C256.255 174.131 255.627 174.256 255.135 174.755C254.686 175.322 254.015 175.38 253.801 175.043C253.545 174.639 251.508 174.297 249.367 174.269C247.227 174.241 244.511 173.786 243.413 173.17C242.315 172.555 240.914 172.26 240.294 172.557C239.674 172.854 237.619 172.961 235.746 172.717C229.609 171.968 212.04 173.274 210.041 174.583C209.808 174.695 208.897 174.692 207.977 174.518C207.058 174.344 203.755 174.873 200.665 175.739C197.575 176.605 194.633 177.224 193.997 177.178C193.481 177.162 191.329 177.753 189.349 178.615C187.368 179.476 184.399 180.372 182.67 180.674C180.313 181.101 179.658 181.503 179.543 182.436C179.47 183.437 179.315 183.512 178.888 182.838C178.503 182.232 177.092 182.557 174.344 183.962C172.096 185.039 167.791 187.015 164.682 188.329C161.652 189.606 155.157 193.07 150.34 195.994ZM179.332 200.897C181.154 200.902 181.24 201.037 180.753 202.5C180.344 203.925 179.956 204.111 178.358 203.823C176.923 203.633 176.613 203.781 176.765 204.499C177.07 205.934 175.124 206.691 173.769 205.671C173.195 205.244 173.101 204.937 173.695 204.916C174.288 204.896 174.659 204.366 174.55 203.716C174.323 202.243 176.442 200.964 179.332 200.897ZM156.356 213.753C156.078 214.589 155.458 214.887 154.031 214.868C152.406 214.856 152.518 214.714 154.491 213.681C156.119 212.901 156.634 212.917 156.356 213.753ZM159.7 211.536C159.785 211.671 159.414 212.2 158.965 212.767C158.473 213.266 157.845 213.391 157.631 213.055C157.375 212.65 157.746 212.121 158.366 211.824C158.986 211.527 159.614 211.401 159.7 211.536ZM163.142 210.589C163.399 210.993 163.252 211.239 162.814 211.186C162.41 211.028 161.798 211.497 161.477 212.265C160.967 213.213 160.846 213.183 160.678 212.121C160.451 210.649 162.373 209.376 163.142 210.589ZM167.662 208.95C167.558 209.263 166.809 209.358 165.967 209.147C164.842 208.808 164.877 208.703 166.219 208.587C167.122 208.418 167.766 208.636 167.662 208.95ZM171.85 206.152C172.296 206.377 172.088 207.004 171.364 207.615C170.027 208.695 169.22 208.379 169.672 207.02C169.942 206.012 170.915 205.634 171.85 206.152ZM187.111 201.209C187.322 202.338 187.012 202.486 185.534 202.228C183.936 201.94 183.851 201.806 184.578 200.403C185.564 198.612 186.775 199.086 187.111 201.209ZM203.113 193.452C203.808 193.909 203.506 194.23 202.37 194.511C201.467 194.68 200.427 194.476 200.085 193.937C199.401 192.859 201.758 192.432 203.113 193.452ZM142.597 222.017C143.086 222.31 142.637 222.877 141.552 223.397C140.544 223.88 138.897 225.108 137.948 226.002C136.55 227.463 136.395 227.537 136.615 226.29C136.815 225.491 137.826 224.216 138.825 223.561C139.903 222.869 140.937 222.11 141.204 221.894C141.514 221.745 142.108 221.725 142.597 222.017ZM148.781 218.702C148.677 219.015 148.022 219.417 147.352 219.475C146.603 219.57 146.707 219.256 147.56 218.848C148.37 218.372 148.963 218.351 148.781 218.702ZM133.723 227.149C134.169 227.374 133.787 228.524 132.854 229.761C131.809 231.141 131.042 231.684 130.7 231.145C130.443 230.741 130.842 229.935 131.566 229.325C132.29 228.714 132.731 227.975 132.518 227.639C132.005 226.83 132.59 226.638 133.723 227.149ZM156.332 215.786C156.46 215.988 156.364 216.473 156.027 216.898C155.768 217.286 155.295 217.337 155.081 217C154.824 216.596 154.998 216.073 155.386 215.888C155.851 215.665 156.246 215.651 156.332 215.786ZM150.51 220.948C150.724 221.284 150.585 221.702 150.12 221.925C149.732 222.111 149.046 221.825 148.661 221.219C148.319 220.68 148.535 220.225 149.051 220.241C149.645 220.221 150.254 220.543 150.51 220.948ZM164.187 214.305C164.89 214.934 165.972 215.206 166.592 214.909C167.367 214.537 167.343 214.022 166.52 213.362C165.371 212.507 165.448 212.47 167.183 213.132C168.634 213.667 170.045 213.342 173.448 211.535C176.005 210.309 179.381 208.779 181.06 208.238C182.816 207.66 184.28 206.782 184.299 206.334C184.275 205.819 184.938 205.589 185.935 205.726C187.971 206.068 198.582 203.354 201.752 201.659C203.104 200.923 204.36 200.672 204.659 201.144C204.959 201.615 206.017 201.371 207.284 200.501C208.473 199.667 209.567 199.319 209.78 199.656C209.951 199.925 209.657 200.417 209.192 200.64C207.409 201.495 211.287 201.393 213.148 200.501C214.078 200.055 215.024 199.953 215.28 200.358C215.494 200.694 216.646 200.757 217.902 200.506C219.038 200.226 220.663 200.237 221.427 200.486C222.234 200.802 223.293 200.558 223.784 200.059C224.276 199.56 224.912 199.606 225.212 200.078C225.639 200.751 225.872 200.64 225.96 199.982C226.013 199.43 226.652 198.684 227.427 198.313C228.358 197.867 228.924 198.123 229.092 199.184C229.338 200.208 230.145 200.524 232.003 200.424C233.344 200.308 236.412 200.683 238.655 201.189C240.974 201.659 243.476 201.777 244.328 201.369C245.103 200.997 245.852 200.902 245.945 201.209C246.148 202.165 252.049 203.817 253.134 203.297C253.599 203.074 254.596 203.211 255.213 203.706C255.908 204.164 256.819 204.166 257.346 203.562C257.838 203.063 258.191 202.982 258.215 203.497C258.196 203.946 259.74 204.787 261.587 205.307C263.477 205.895 267.333 207.033 270.15 207.967C272.966 208.901 276.986 210.137 279.116 210.785C281.203 211.366 282.817 211.998 282.748 212.207C282.678 212.416 284.052 212.987 285.658 213.447C287.384 213.937 288.517 214.448 288.285 214.56C288.052 214.671 288.584 215.031 289.469 215.31C290.353 215.589 291.222 215.524 291.481 215.136C291.74 214.748 292.35 215.071 292.82 215.812C293.29 216.553 294.191 217.176 294.707 217.192C295.3 217.171 297.248 218.17 299.084 219.31C300.92 220.451 303.039 221.719 303.846 222.035C310.781 225.475 326.197 237.5 331.138 243.213C334.323 246.958 348.516 269.319 348.188 269.916C347.886 270.236 348.252 271.291 348.85 272.234C350.86 275.399 354.364 286.017 354.431 289.148C354.39 290.836 354.625 292.481 354.839 292.817C355.48 293.828 355.61 300.881 354.99 301.178C354.448 301.438 355.011 307.581 355.828 309.824C356.766 312.098 356.482 314.518 355.32 315.075C354.699 315.372 354.274 316.455 354.202 317.455C354.223 318.763 354.394 319.032 354.843 318.466C355.137 317.973 355.61 317.922 355.824 318.259C356.081 318.663 355.752 319.26 355.132 319.557C354.512 319.854 354.268 320.586 354.653 321.192C354.995 321.731 354.899 322.216 354.461 322.163C354.022 322.109 352.993 323.833 352.178 325.892C351.44 327.915 350.453 329.706 350.143 329.854C349.833 330.003 349.253 331.159 348.914 332.376C347.748 336.273 345.761 341.266 344.516 343.444C343.815 344.57 343.518 345.855 343.818 346.326C344.074 346.73 343.598 347.573 342.754 348.154C341.909 348.734 341.329 349.891 341.524 350.676C341.762 351.528 341.136 353.409 340.134 354.856C339.174 356.37 338.169 358.609 337.949 359.856C337.73 361.103 336.596 363.139 335.466 364.384C334.335 365.629 332.857 367.918 332.293 369.419C331.694 371.023 330.162 373.866 328.745 375.774C327.449 377.714 326.029 380.414 325.612 381.668C325.238 382.99 324.166 384.645 323.252 385.435L321.493 386.805L321.485 384.085C321.534 382.569 321.943 381.143 322.485 380.883C323.028 380.623 322.961 380.04 322.387 379.613C321.735 379.222 321.668 378.64 322.133 378.417C322.598 378.194 322.558 377.334 322.002 376.459C321.489 375.651 321.58 374.201 322.169 373.217C323.128 371.703 323.12 371.531 321.573 371.482C320.266 371.493 319.812 371.096 319.876 369.923C319.836 369.064 319.4 368.219 318.919 368.098C318.396 367.91 318.783 367.724 319.687 367.555C320.555 367.49 321.09 367.058 320.876 366.721C320.619 366.317 320.836 365.862 321.301 365.639C321.689 365.453 322.015 365.648 322.039 366.164C322.02 366.612 322.389 366.874 322.776 366.689C323.861 366.169 322.707 364.35 321.357 364.294C319.372 364.192 319.257 362.578 321.112 360.722C322.777 359.046 322.753 358.53 321.214 356.105C320.188 354.489 319.849 353.158 320.314 352.935C320.934 352.638 320.6 352.271 319.475 351.932C317.904 351.367 317.938 351.263 319.745 350.924C320.966 350.778 321.579 350.309 321.322 349.905C321.066 349.501 320.507 349.417 320.007 349.744C319.628 350.102 318.743 349.823 318.118 349.157C317.57 348.453 317.519 348.214 318.008 348.506C318.54 348.866 319.339 349.01 319.727 348.825C320.192 348.602 320.056 348.228 319.566 347.935C319.043 347.747 318.789 346.551 319.171 345.401C319.425 344.05 319.409 343.706 318.848 344.414C318.217 345.332 318.124 345.025 318.311 343.091C318.445 341.709 318.218 340.236 317.841 339.802C316.454 338.095 316.414 337.236 317.887 336.53C318.895 336.047 319.138 335.315 318.582 334.44C318.112 333.699 318.192 332.87 318.692 332.542C319.157 332.319 318.831 332.124 318.005 332.257C316.466 332.38 316.415 332.14 317.129 329.602C317.53 328.004 317.768 326.309 317.589 325.868C317.368 325.359 317.207 324.47 317.296 323.812C317.306 323.192 317.093 322.856 316.748 323.109C315.214 324.195 314.829 323.589 314.963 319.66C315.014 317.351 315.236 315.312 315.383 315.066C315.651 314.85 315.009 313.84 314.17 312.836C313.126 311.668 312.888 310.816 313.508 310.519C314.593 309.999 311.988 307.646 310.157 307.469C309.443 307.46 309.54 306.974 310.454 306.185C311.98 304.926 311.168 301.099 309.303 301.027C308.787 301.01 308.918 300.421 309.72 299.773C310.522 299.125 310.765 298.393 310.319 298.168C309.83 297.875 309.317 297.067 309.199 296.245C308.98 294.944 309.1 294.975 310.912 295.599C312.604 296.194 312.724 296.224 311.653 295.332C310.958 294.875 310.771 294.262 311.158 294.076C311.546 293.89 311.076 293.149 309.892 292.399C308.219 291.356 308.04 290.915 308.628 289.93C309.147 289.155 309.018 288.953 308.398 289.25C307.856 289.51 306.963 289.059 306.485 288.146C305.587 286.732 305.665 286.695 307.175 287.64C308.195 288.293 307.76 287.448 305.833 285.209C304.241 283.337 302.426 280.956 301.75 280.05C300.938 278.77 300.372 278.515 299.647 279.126C298.923 279.736 298.88 279.669 299.244 278.968C299.572 278.371 299.369 277.414 298.744 276.747C298.119 276.081 297.504 274.794 297.387 273.972C296.981 272.058 293.798 270.07 288.98 268.69C286.893 268.109 285.115 267.38 284.859 266.976C284.004 265.629 274.118 267.732 268.623 270.541C267.382 271.135 266.131 272.35 265.853 273.186C265.575 274.022 264.894 274.7 264.378 274.684C263.785 274.705 262.464 276.128 261.435 277.851C259.117 281.685 257.73 282.526 255.533 281.294C253.294 279.996 252.773 279.016 254.168 278.347C254.788 278.05 255.16 277.521 254.903 277.116C254.69 276.78 254.061 276.905 253.57 277.404C252.931 278.15 252.562 277.887 252.113 275.906C251.731 274.508 251.09 273.498 250.497 273.519C249.938 273.435 249.756 273.786 250.013 274.19C250.312 274.661 249.882 274.78 248.842 274.575C247.682 274.34 247.263 273.839 247.463 273.04C247.629 272.346 247.151 271.433 246.534 270.938C245.711 270.278 245.737 270.002 246.804 269.93C247.827 269.791 247.924 269.306 247.111 268.026C246.513 267.083 245.861 266.693 245.524 267.118C245.265 267.505 244.621 267.287 244.193 266.614C243.723 265.873 242.667 265.324 241.841 265.457C241.093 265.552 240.406 265.266 240.425 264.818C240.521 264.333 240.032 264.04 239.482 264.128C238.733 264.223 238.632 263.745 238.937 262.632C239.501 261.132 239.295 260.967 237.173 260.491C235.653 260.166 235.078 259.738 235.484 259.104C236.34 257.904 234.194 256.912 233.098 258.052C232.571 258.656 231.927 258.437 231.286 257.427C230.054 255.646 224.017 253.62 220.294 253.647C217.526 253.745 210.491 256.677 209.996 257.968C209.935 258.349 209.408 258.953 208.908 259.28C206.909 260.59 202.539 266.286 203.009 267.027C203.265 267.431 203.118 267.677 202.68 267.624C201.598 267.352 199.983 271.815 200.71 272.96C201.009 273.432 200.878 274.022 200.413 274.245C199.948 274.468 200.014 275.05 200.666 275.441C201.241 275.868 201.385 276.414 200.998 276.6C200.533 276.822 200.428 277.136 200.677 277.368C200.968 277.668 201.102 278.834 201.002 280.111C200.903 281.388 201.112 283.309 201.52 284.431C201.964 285.448 202.319 287.122 202.359 287.982C202.399 288.841 203.31 291.391 204.445 293.658C205.538 295.857 206.441 298.236 206.388 298.788C206.299 299.445 206.914 300.732 207.675 301.773C209.49 304.153 211.154 310.12 209.815 309.444C207.3 308.189 199.061 309.064 195.503 310.945C193.608 311.941 191.507 312.772 190.837 312.83C190.201 312.783 189.701 313.111 189.605 313.596C189.629 314.112 189.016 314.581 188.225 314.609C186.178 314.887 183.289 317.502 184.422 318.013C185.031 318.336 184.806 318.619 183.628 318.832C182.329 319.016 181.888 319.754 181.882 321.338C181.938 322.541 181.633 323.653 181.246 323.839C180.858 324.025 180.567 323.725 180.578 323.105C180.631 322.553 179.966 323.574 179.022 325.432C178.009 327.499 177.805 329.09 178.508 329.719C179.048 330.251 179.088 331.11 178.596 331.61C177.957 332.355 178.529 333.574 181.738 337.834C188.285 346.555 188.875 347.326 190.711 348.467C191.732 349.119 194.57 351.361 197.245 353.505C201.822 357.372 205.93 360.498 209.609 362.951C210.673 363.671 211.702 364.496 211.958 364.9C212.25 365.2 213.394 365.09 214.556 364.533C216.219 363.649 216.622 363.807 217.245 365.265C217.696 366.454 218.065 366.717 218.471 366.083C218.92 365.516 219.041 365.546 219.073 366.234C219.027 366.958 218.527 367.286 217.608 367.111C216.689 366.937 216.507 367.288 217.028 368.268C217.378 368.979 217.995 369.473 218.383 369.288C218.77 369.102 220.299 369.599 221.766 370.477C223.233 371.355 225.173 372.182 226.058 372.461C228.059 372.907 228.821 373.947 227.581 374.542C227.116 374.765 227.733 375.259 228.978 375.629C230.267 376.066 231.651 376.017 231.953 375.697C232.367 375.234 233.439 376.126 234.5 377.638C235.595 379.046 237.001 380.305 237.757 380.381C238.471 380.391 238.797 380.586 238.409 380.772C237.944 380.994 238.511 381.25 239.663 381.313C240.78 381.48 241.672 381.931 241.653 382.379C241.589 383.552 244.141 383.91 245.563 382.965C246.218 382.563 247.199 382.356 247.645 382.582C248.092 382.807 247.987 383.121 247.324 383.35C246.111 383.668 248.342 387.343 249.932 387.459C250.371 387.512 252.156 388.414 253.708 389.427C255.707 390.665 256.91 390.967 257.557 390.393C258.161 389.752 258.564 389.91 258.93 390.964C259.246 391.78 261.338 393.324 263.527 394.384C265.715 395.443 270.469 397.996 274.168 400C277.909 402.072 281.643 403.972 282.562 404.147C283.524 404.388 284.545 405.041 284.844 405.512C285.143 405.984 286.105 406.225 287.009 406.056C287.95 405.839 288.095 406.121 287.444 406.901C286.314 408.146 269.588 411.419 265.729 411.072C264.655 410.972 263.364 411.328 262.949 411.79C262.38 412.326 261.822 412.242 261.351 411.501C260.967 410.895 260.443 410.707 260.184 411.095C259.967 411.55 258.187 411.613 256.348 411.264C254.51 410.915 252.567 410.88 252.102 411.103C251.637 411.326 251.078 411.243 250.822 410.838C250.608 410.502 248.459 410.302 246.051 410.49C243.6 410.61 240.626 410.542 239.466 410.308C236.743 409.68 231.98 409.503 228.789 409.891C227.292 410.081 225.935 409.853 225.678 409.449C225.379 408.978 222.431 408.634 219.026 408.684C215.699 408.698 212.433 408.331 211.859 407.903C211.284 407.476 210.175 407.48 209.322 407.889C208.547 408.261 207.834 408.251 207.852 407.803C207.871 407.355 206.102 406.797 203.79 406.5C198.651 405.888 180.053 401.274 179.54 400.466C179.327 400.129 177.464 399.265 175.377 398.684C173.367 398.066 171.384 397.172 171.085 396.7C170.786 396.229 170.176 395.906 169.703 395.957C168.68 396.096 161.341 392.498 160.786 391.622C160.529 391.218 158.394 389.606 156.026 388.106C153.659 386.605 150.898 384.327 149.896 383.226C148.929 382.02 147.48 380.694 146.665 380.206C145.928 379.682 144.351 378.153 143.333 376.709C141.22 373.856 140.156 373.136 139.603 374.017C139.498 374.33 138.889 374.007 138.419 373.266C137.991 372.593 137.994 371.801 138.459 371.578C138.847 371.392 138.598 371.16 137.764 371.12C136.492 371.027 136.073 370.526 135.53 368.238C134.751 365.098 132.824 362.859 131.429 363.528C130.964 363.751 130.905 363.34 131.269 362.638C131.632 361.937 131.608 361.421 131.015 361.442C130.464 361.53 129.326 360.056 128.327 358.163C127.02 355.627 126.996 355.111 128.103 355.898C129.372 356.783 129.407 356.679 128.381 355.062C127.817 354.015 126.994 353.355 126.684 353.504C126.296 353.69 125.337 352.656 124.594 351.167C123.646 349.514 123.598 348.483 124.303 348.32C125.164 348.083 125.078 347.949 123.833 347.579C120.45 346.39 117.567 339.778 120.763 340.354C121.244 340.475 121.116 340.273 120.507 339.95C119.897 339.627 119.497 338.677 119.697 337.878C119.959 336.698 119.831 336.496 119.029 337.144C117.538 338.298 116.296 334.589 117.378 332.314C118.244 330.493 118.236 330.321 116.483 330.107C114.73 329.893 114.602 329.691 114.466 326.77C114.429 325.118 113.817 323.04 113.227 322.269C112.593 321.43 112.297 320.167 112.54 319.435C112.783 318.704 112.674 318.054 112.27 317.896C111.832 317.842 111.859 317.566 112.324 317.343C112.711 317.157 112.124 315.594 110.814 313.85C109.625 312.136 108.746 310.273 108.843 309.788C108.896 309.235 108.456 307.426 107.782 305.728C107.066 303.963 106.96 302.521 107.467 302.365C108.053 302.173 108.184 301.583 107.919 301.007C106.835 298.979 106.167 295.698 106.864 295.363C107.252 295.178 107.356 294.864 107.065 294.564C106.739 294.369 106.683 293.166 106.86 291.852C107.071 290.433 107.365 289.941 107.75 290.547C108.306 291.422 108.46 291.348 108.49 290.28C108.57 289.451 108.015 288.575 107.122 288.125C106.144 287.539 106 286.993 106.604 286.352C107.096 285.853 107.083 284.718 106.527 283.842C105.971 282.966 105.736 281.322 105.998 280.142C106.225 279.067 106.576 277.23 106.726 276.192C106.833 275.087 107.378 274.035 107.921 273.775C108.463 273.515 108.757 273.022 108.543 272.685C107.902 271.675 109.752 266.308 112.035 262.579C113.177 260.714 113.923 258.863 113.709 258.527C113.495 258.19 113.84 257.937 114.356 257.953C114.949 257.932 115.321 257.403 115.211 256.752C115.059 256.035 115.457 255.229 116.077 254.932C117.395 254.3 116.959 253.455 114.993 252.904C113.712 252.639 114.022 252.491 116.19 252.242C118.633 251.95 118.745 251.808 117.545 250.714C116.842 250.085 116.45 249.307 116.709 248.919C116.891 248.568 117.655 248.817 118.358 249.447C120.055 251.005 121.562 250.195 120.408 248.376C119.681 247.231 119.94 246.843 121.619 246.302C122.832 245.984 123.832 245.33 123.893 244.949C123.912 244.5 124.671 243.785 125.601 243.339C126.919 242.708 126.989 242.499 125.837 242.436C125.003 242.396 123.91 242.745 123.298 243.214C122.728 243.75 122.79 243.369 123.498 242.415C124.509 241.14 125.284 240.769 126.754 240.855C128.301 240.904 129.188 240.39 130.733 238.684C131.864 237.439 133.209 236.531 133.69 236.652C134.248 236.736 134.12 236.534 133.511 236.211C132.901 235.888 132.196 236.05 131.859 236.475C131.565 236.968 131.204 236.877 131.095 236.227C130.985 235.576 131.349 234.875 131.969 234.578C132.546 234.213 133.762 233.103 134.583 232.007C135.818 230.449 136.67 230.04 138.218 230.089C140.401 230.185 146.37 227.324 145.969 226.374C145.875 226.068 145.611 225.492 145.475 225.118C144.809 223.592 145.766 222.87 146.966 223.964C147.96 224.893 148.829 224.828 150.844 223.862C152.196 223.126 153.076 222.441 152.87 222.276C152.587 222.148 154.043 221.099 156.248 219.954C161.778 217.04 163.433 215.984 163.633 215.185C163.773 214.767 162.714 215.011 161.199 215.649C159.028 216.689 158.788 216.629 159.729 215.563C161.611 213.431 162.901 213.076 164.187 214.305ZM129.925 231.517C130.523 232.46 130.307 232.915 128.973 233.203C127.992 233.409 126.995 233.272 126.782 232.935C126.568 232.599 126.792 232.315 127.351 232.399C127.867 232.415 128.324 232.02 128.377 231.468C128.434 230.123 129.027 230.102 129.925 231.517ZM195.942 198.558C196.07 198.76 195.974 199.245 195.637 199.67C195.378 200.058 194.905 200.109 194.691 199.772C194.434 199.368 194.608 198.846 194.996 198.66C195.461 198.437 195.856 198.423 195.942 198.558ZM143.123 226.509C143.494 225.979 143.657 226.077 143.604 226.63C143.52 228.251 142.187 228.539 141.409 227.154C140.982 226.481 141.129 226.235 141.703 226.662C142.115 226.992 142.863 226.897 143.123 226.509ZM191.732 202.596C191.275 202.991 190.345 203.437 189.794 203.525C189.123 203.583 189.426 203.262 190.511 202.742C191.596 202.222 192.069 202.171 191.732 202.596ZM126.947 234.789C127.161 235.125 127.064 235.611 126.599 235.834C126.212 236.019 125.611 235.868 125.397 235.532C125.14 235.127 125.357 234.672 125.744 234.487C126.209 234.264 126.69 234.384 126.947 234.789ZM196.035 201.412C195.578 201.807 194.648 202.253 194.097 202.341C193.426 202.399 193.729 202.078 194.814 201.558C195.899 201.038 196.372 200.987 196.035 201.412ZM201.033 200.686C200.928 200.999 200.274 201.401 199.603 201.459C198.855 201.554 198.959 201.241 199.811 200.832C200.621 200.356 201.215 200.335 201.033 200.686ZM209.559 196.599C209.455 196.913 208.8 197.315 208.129 197.373C207.381 197.468 207.485 197.154 208.337 196.745C209.147 196.269 209.741 196.249 209.559 196.599ZM129.951 236.336C130.036 236.47 129.665 237 129.216 237.566C128.724 238.066 128.096 238.191 127.882 237.854C127.625 237.45 127.997 236.921 128.617 236.623C129.237 236.326 129.865 236.201 129.951 236.336ZM119.345 245.108C119.43 245.243 118.973 245.638 118.353 245.935C117.733 246.232 117.019 246.223 116.763 245.819C116.549 245.482 117.006 245.087 117.754 244.992C118.546 244.964 119.259 244.974 119.345 245.108ZM223.502 197.383C223.715 197.72 223.576 198.138 223.266 198.287C222.879 198.473 222.269 198.15 221.927 197.611C221.585 197.072 221.724 196.654 222.24 196.67C222.678 196.724 223.245 196.979 223.502 197.383ZM285.915 211.304C286.128 211.64 286.187 212.052 286.032 212.126C285.8 212.237 285.198 212.086 284.752 211.861C284.263 211.568 284.247 211.225 284.635 211.039C285.1 210.816 285.658 210.9 285.915 211.304ZM227.979 283.433C229.753 284.954 232.204 287.381 233.377 288.752C237.556 293.425 249.93 312.442 250.865 315.507C251.34 317.212 252.03 319.253 252.388 320.136C253.146 321.968 253.031 325.45 252.256 325.821C251.868 326.007 251.849 326.455 252.106 326.859C252.362 327.263 252.99 327.138 253.637 326.564C254.293 325.899 254.45 326.146 254.108 327.305C253.506 329.702 250.352 331.741 250.841 329.486C251.103 328.306 251.414 328.157 252.306 328.608C253.722 329.247 253.493 328.566 251.855 327.419C251.074 326.827 250.524 326.915 250.16 327.616C249.874 328.28 249.099 328.652 248.188 328.649C247.036 328.586 246.908 328.384 247.605 328.05C248.38 327.679 247.987 326.901 246.232 324.931C244.861 323.568 243.218 321.456 242.448 320.244C241.644 319.136 240.898 318.439 240.717 318.79C240.008 319.744 239.378 318.114 239.864 316.651C240.594 314.456 238.486 310.02 236.306 309.133C234.21 308.38 233.174 307.384 234.523 307.44C234.919 307.426 234.211 305.833 232.928 303.812C231.568 301.829 230.775 300.101 231.085 299.952C231.395 299.803 231.243 299.086 230.695 298.382C230.147 297.678 229.452 297.221 229.142 297.369C228.832 297.518 228.223 297.195 227.881 296.656C227.539 296.117 227.747 295.49 228.333 295.298C229.666 295.01 227.227 291.963 225.482 291.921C224.605 291.814 224.306 291.342 224.439 289.96C224.469 288.892 223.932 287.568 223.229 286.939C222.364 286.212 222.262 285.734 223.115 285.325C224.51 284.656 224.272 283.804 222.546 283.314C221.944 283.163 221.063 282.092 220.611 280.903L219.836 278.727L222.258 279.674C223.588 280.179 226.162 281.844 227.979 283.433ZM363.236 239.952C363.132 240.265 362.383 240.36 361.541 240.149C360.416 239.81 360.451 239.705 361.793 239.589C362.696 239.42 363.34 239.638 363.236 239.952ZM199.494 325.195C199.836 325.734 199.748 326.391 199.283 326.614C198.818 326.837 198.962 327.383 199.579 327.878C200.359 328.47 200.255 328.783 199.162 329.132C198.379 329.331 197.452 328.985 197.179 328.237C196.821 327.355 196.383 327.301 195.546 328.054C194.52 328.985 194.477 328.917 195.196 327.343C196.279 325.067 198.639 323.848 199.494 325.195ZM203.703 326.252C204.149 326.478 204.208 326.889 203.821 327.074C203.356 327.297 202.754 327.146 202.54 326.81C202.284 326.405 202.268 326.062 202.423 325.987C202.655 325.876 203.214 325.96 203.703 326.252ZM236.816 310.733C236.901 310.868 236.53 311.397 236.081 311.964C235.589 312.463 234.961 312.589 234.747 312.252C234.491 311.848 234.862 311.318 235.482 311.021C236.102 310.724 236.73 310.598 236.816 310.733ZM279.799 292.767C280.338 293.299 281.017 293.413 281.277 293.025C282.902 290.489 291.895 310.073 291.993 316.438C291.99 317.23 292.305 318.046 292.744 318.099C293.147 318.257 293.358 319.386 293.216 320.596C293.117 321.873 293.472 323.547 293.943 324.288C294.456 325.096 294.888 326.734 294.91 328.041C295.008 329.312 295.519 330.912 296.101 331.511C296.649 332.215 296.892 334.031 296.491 335.629C296.124 337.122 296.127 338.878 296.469 339.416C296.811 339.955 296.68 340.545 296.215 340.768C295.672 341.028 295.987 341.843 296.947 342.877C297.82 343.776 298.555 345.093 298.432 345.854C298.387 346.579 298.162 346.862 297.948 346.525C297.614 346.158 297.507 347.264 297.622 348.878C297.675 350.873 298.119 351.89 298.875 351.967C299.554 352.081 299.682 352.283 299.062 352.58C298.519 352.84 298.353 353.534 298.696 354.073C299.038 354.612 299.027 355.232 298.717 355.381C297.477 355.975 297.949 361.019 299.397 362.346C300.512 363.305 300.519 363.477 299.386 362.966C298.133 362.424 297.978 362.499 298.619 363.509C299.047 364.183 299.153 365.625 298.926 366.7C298.621 367.812 298.557 368.985 298.65 369.292C298.821 369.561 299.056 371.205 299.214 372.887C299.337 374.673 299.863 376.617 300.29 377.29C300.761 378.031 300.894 379.197 300.53 379.898C299.889 381.436 300.541 384.373 301.471 383.928C302.556 383.408 303.149 385.934 302.352 387.546C301.876 388.389 301.916 389.248 302.483 389.504C302.972 389.796 303.276 391.232 303.108 392.718C302.862 394.242 302.933 395.788 303.19 396.192C303.874 397.27 300.955 398.405 299.143 397.78C298.259 397.502 297.805 397.104 298.115 396.956C298.425 396.807 297.644 396.215 296.348 395.606C295.095 395.065 293.783 394.113 293.484 393.641C293.142 393.103 292.086 392.554 291.167 392.38C290.247 392.206 289.106 391.523 288.679 390.849C288.208 390.108 287.324 389.83 286.704 390.127C286.006 390.461 285.156 390.078 284.472 389C283.703 387.788 283.179 387.6 282.463 388.382C281.669 389.202 281.797 389.404 282.949 389.467C284.066 389.634 284.109 389.702 283.008 389.878C282.147 390.115 281.324 389.455 280.538 387.899C279.625 386.141 278.484 385.458 275.718 384.763C273.751 384.213 271.733 383.423 271.391 382.884C270.21 381.342 269.884 381.147 266.658 379.091C264.865 378.018 262.102 376.531 260.41 375.937C258.753 375.237 256.883 374.201 256.258 373.535C255.71 372.831 254.93 372.239 254.569 372.148C253.246 371.816 250.063 369.828 249.55 369.019C249.251 368.548 248.04 368.074 246.846 367.944C245.651 367.814 244.269 367.07 243.714 366.195C243.201 365.386 242.378 364.727 241.742 364.68C241.226 364.664 240.686 364.132 240.654 363.445C240.494 362.555 240.176 362.532 239.417 363.247C238.7 364.03 238.254 363.804 237.495 361.972C236.744 360.311 236.17 359.884 235.24 360.33C234.542 360.664 233.976 360.409 233.901 359.654C233.791 359.003 233.337 358.606 232.95 358.792C232.562 358.978 231.635 358.632 230.932 358.002C230.229 357.373 228.914 357.212 228.139 357.584C227.287 357.992 225.894 357.869 224.959 357.351C223.818 356.668 223.561 356.264 224.104 356.004C224.491 355.818 225.05 355.902 225.306 356.306C225.52 356.643 226.044 356.831 226.432 356.645C227.207 356.274 225.494 354.372 222.955 352.602C222.097 352.047 220.117 350.36 218.42 348.802C216.689 347.348 215.171 346.231 214.861 346.379C214.551 346.528 213.444 345.74 212.4 344.572C211.277 343.441 209.725 342.428 208.805 342.254C207.886 342.08 206.659 341.262 206.104 340.387C204.907 338.501 203.616 338.856 203.557 340.992C203.519 341.889 203.217 342.209 202.918 341.738C202.661 341.334 202.718 339.989 203.1 338.839C203.899 336.436 203.662 335.584 202.488 336.761C202.074 337.223 200.802 337.13 199.712 336.686C197.926 335.785 197.884 335.718 199.679 335.999C201.398 336.317 201.51 336.176 200.337 334.805C199.626 334.004 198.555 333.112 197.945 332.789C197.379 332.534 197.114 331.958 197.296 331.607C198.074 330.444 203.524 328.359 203.951 329.032C204.165 329.369 204.75 329.176 205.32 328.64C206.079 327.925 206.397 327.948 206.48 328.875C206.589 329.525 207.043 329.922 207.508 329.699C207.973 329.476 208.462 329.769 208.572 330.419C208.681 331.069 209.376 331.527 210.125 331.432C210.873 331.337 211.68 331.653 212.022 332.192C212.792 333.404 216.669 335.85 217.444 335.478C217.754 335.33 218.371 335.824 218.884 336.633C219.355 337.374 219.921 337.629 220.258 337.204C220.595 336.779 220.843 337.011 220.996 337.729C221.18 339.134 225.287 342.26 226.217 341.815C226.527 341.666 228.379 343.15 230.255 345.15C232.208 347.113 234.146 348.732 234.662 348.748C235.298 348.794 236.42 349.926 237.318 351.34C238.216 352.754 239.381 353.953 240.102 354.134C240.703 354.285 242.058 355.305 242.983 356.443C243.865 357.514 245.227 358.705 246.069 358.917C246.876 359.233 247.373 359.697 247.269 360.011C247.165 360.324 248.381 361.762 249.906 363.051C251.398 364.444 253.017 366.04 253.436 366.542C253.856 367.043 255.048 367.966 256.103 368.514C257.202 369.129 257.784 369.729 257.474 369.877C256.587 370.39 262.052 371.197 263.06 370.714C263.525 370.491 262.868 369.137 261.147 367.063C259.049 364.554 258.606 363.537 259.228 362.448C260.354 360.24 263.425 359.822 265.766 361.599C266.915 362.453 267.54 363.12 267.024 363.104C265.795 363.078 266.97 366.204 269.145 368.675C270.113 369.881 272.347 372.763 274.041 375.114C277.592 379.912 283.826 384.478 285.609 383.624C286.229 383.327 286.985 383.404 287.242 383.808C287.456 384.144 287.154 384.465 286.44 384.456C285.726 384.446 285.692 384.551 286.301 384.874C287.64 385.55 289.375 383.664 288.183 382.742C287.608 382.314 287.507 381.836 287.894 381.65C288.204 381.502 288.106 380.231 287.646 378.87C286.182 374.653 287.273 370.001 290.414 366.827C292.044 365.255 293.795 363.713 294.338 363.453C294.76 363.163 294.969 362.536 294.669 362.064C294.37 361.593 294.357 360.457 294.713 359.584C294.948 358.68 294.881 358.097 294.416 358.32C293.951 358.543 293.264 358.258 292.879 357.651C292.537 357.113 292.754 356.657 293.347 356.637C294.104 356.713 293.668 355.868 291.87 353.831C289.986 351.659 289.593 350.881 290.505 350.884C292.172 350.963 291.376 350.027 289.048 349.386C287.279 348.828 287.193 348.693 288.41 347.583C289.212 346.936 289.396 345.793 288.969 345.119C288.541 344.446 288.416 343.452 288.675 343.064C289.012 342.639 288.809 341.682 288.381 341.009C287.954 340.335 287.949 339.371 288.406 338.977C288.742 338.552 288.459 338.424 287.607 338.833C286.169 339.434 286.126 339.367 286.631 337.455C286.936 336.343 286.784 335.625 286.319 335.848C285.699 336.145 285.322 335.711 285.138 334.306C284.97 333.245 284.448 332.265 284.088 332.174C283.649 332.12 283.986 331.696 284.684 331.361C286.001 330.73 285.916 330.595 283.77 329.603C281.787 328.709 281.445 328.17 281.331 326.556C281.36 325.488 281.277 324.561 281.114 324.463C280.187 324.117 280.174 322.981 281.128 323.051C281.721 323.03 281.147 322.603 279.808 321.927C278.391 321.288 277.689 320.659 278.231 320.399C279.394 319.842 277.478 316.983 275.631 316.462C274.626 316.153 274.464 316.056 275.177 316.065C275.968 316.037 275.877 314.939 274.99 312.904C271.637 305.551 271.034 303.644 271.576 303.384C271.886 303.236 271.916 302.168 271.55 301.113C270.564 297.808 272.529 294.056 275.878 292.802C277.866 292.112 279.173 292.101 279.799 292.767ZM199.262 342.348C199.518 342.752 199.507 343.372 199.171 343.797C198.911 344.185 198.353 344.101 198.011 343.563C197.626 342.956 197.714 342.299 198.102 342.113C198.567 341.891 199.048 342.011 199.262 342.348ZM202.094 343.626C202.308 343.963 203.096 344.727 203.834 345.252C204.906 346.144 204.828 346.181 202.663 345.637C200.258 345.033 199.539 344.06 201.012 343.354C201.4 343.168 201.881 343.289 202.094 343.626ZM199.624 349.29C199.838 349.627 199.742 350.112 199.277 350.335C198.889 350.521 198.288 350.37 198.074 350.033C197.817 349.629 198.034 349.174 198.422 348.988C198.887 348.765 199.368 348.886 199.624 349.29ZM207.921 356.469C207.74 356.82 208.512 357.24 209.629 357.408C210.669 357.612 210.995 357.807 210.359 357.761C209.688 357.819 209.308 358.176 209.565 358.58C209.821 358.985 209.597 359.268 209.003 359.289C207.533 359.203 206.072 356.741 207.235 356.183C207.7 355.961 207.983 356.088 207.921 356.469ZM216.156 354.631C216.37 354.968 215.645 355.578 214.595 355.994C212.219 356.869 211.946 356.121 214.186 354.872C215.073 354.359 215.899 354.227 216.156 354.631ZM311.388 311.798C310.936 313.157 309.501 312.966 309.635 311.584C309.611 311.069 310.146 310.637 310.739 310.616C311.375 310.662 311.632 311.067 311.388 311.798ZM218.986 356.7C219.432 356.926 219.336 357.411 218.716 357.708C218.018 358.043 217.262 357.966 217.048 357.629C216.792 357.225 216.93 356.807 217.318 356.621C217.783 356.398 218.497 356.408 218.986 356.7ZM221.072 362.376C221.158 362.511 220.701 362.906 220.081 363.203C219.461 363.5 218.747 363.491 218.49 363.087C218.277 362.75 218.734 362.355 219.482 362.26C220.273 362.232 220.987 362.242 221.072 362.376ZM223.145 369.465C222.963 369.815 222.293 369.873 221.563 369.52C219.374 368.461 219.3 367.706 221.387 368.287C222.469 368.559 223.207 369.084 223.145 369.465ZM231.452 369.173C231.665 369.51 231.491 370.032 231.026 370.255C230.639 370.441 230.27 370.178 230.289 369.73C230.265 369.215 230.481 368.759 230.714 368.648C230.869 368.574 231.195 368.769 231.452 369.173ZM234.525 370.511C234.281 371.242 233.937 371.496 233.68 371.091C233.082 370.148 233.499 368.894 234.34 369.106C234.624 369.234 234.733 369.884 234.525 370.511ZM232.838 373.428C232.734 373.741 232.079 374.143 231.408 374.201C230.66 374.296 230.764 373.982 231.616 373.574C232.426 373.098 233.02 373.077 232.838 373.428ZM243.793 373.008C243.902 373.659 243.379 373.471 242.513 372.744C241.476 371.747 241.382 371.441 242.345 371.682C242.946 371.833 243.649 372.463 243.793 373.008ZM247.513 373.773C247.727 374.11 247.63 374.595 247.165 374.818C246.778 375.004 246.177 374.853 245.963 374.516C245.706 374.112 245.923 373.657 246.31 373.471C246.775 373.248 247.256 373.369 247.513 373.773ZM252.484 373.323C252.241 374.055 251.896 374.308 251.639 373.903C251.041 372.961 251.458 371.706 252.3 371.918C252.583 372.046 252.693 372.696 252.484 373.323ZM242.119 379.609C243.067 381.262 243.075 381.434 241.694 380.691C240.921 380.27 240.211 379.469 240.229 379.021C240.278 377.504 240.922 377.723 242.119 379.609ZM249.242 376.019C249.394 376.737 249.22 377.259 248.937 377.131C248.576 377.041 248.397 376.599 248.451 376.047C248.464 374.635 249.058 374.614 249.242 376.019ZM256.08 379.944C255.733 380.99 254.394 380.314 254.536 379.104C254.53 378.14 254.685 378.066 255.466 378.658C255.92 379.055 256.185 379.631 256.08 379.944ZM254.19 387C254.35 387.889 254.556 388.054 254.962 387.42C255.411 386.853 255.892 386.974 256.363 387.715C257.047 388.793 256.969 388.83 255.165 388.377C254.083 388.105 253.26 387.445 253.236 386.93C253.361 385.376 253.92 385.46 254.19 387ZM266.807 388.243C267.021 388.58 267.079 388.991 266.924 389.066C266.692 389.177 266.09 389.026 265.644 388.801C265.155 388.508 265.139 388.164 265.527 387.979C265.992 387.756 266.55 387.839 266.807 388.243ZM271.968 387.615C273.547 388.351 272.788 389.066 270.976 388.441C269.971 388.132 269.715 387.728 270.18 387.505C270.645 387.282 271.479 387.322 271.968 387.615ZM268.129 393.671C268.963 393.711 269.297 394.078 269.003 394.57C268.743 394.958 267.797 395.06 266.913 394.781C265.144 394.223 265.825 393.545 268.129 393.671ZM272.803 394.505C272.889 394.64 272.517 395.169 272.068 395.736C271.576 396.235 270.948 396.361 270.734 396.024C270.478 395.62 270.849 395.09 271.469 394.793C272.09 394.496 272.718 394.371 272.803 394.505ZM273.915 396.256C274.128 396.593 273.955 397.116 273.489 397.339C273.102 397.524 272.733 397.262 272.752 396.814C272.728 396.298 272.945 395.843 273.177 395.732C273.332 395.657 273.658 395.852 273.915 396.256ZM213.89 426.87C213.895 427.834 212.115 427.897 211.559 427.021C211.345 426.684 211.802 426.29 212.551 426.194C213.342 426.167 213.908 426.422 213.89 426.87ZM355.165 366.274C354.922 367.006 354.577 367.259 354.32 366.855C353.722 365.912 354.139 364.658 354.981 364.869C355.264 364.997 355.374 365.647 355.165 366.274ZM244.539 424.83C244.721 424.479 245.357 424.526 245.931 424.953C246.669 425.478 246.444 425.762 245.231 426.08C244.328 426.249 243.203 425.91 242.895 425.266C242.468 424.593 242.58 424.451 243.232 424.842C243.644 425.171 244.28 425.218 244.539 424.83ZM297.203 399.501C297.673 400.242 296.372 401.217 295.522 400.834C295.075 400.609 295.172 400.123 295.792 399.826C296.489 399.492 297.117 399.366 297.203 399.501ZM260.534 423.752C260.981 423.977 261.039 424.388 260.652 424.574C260.187 424.797 259.586 424.646 259.372 424.309C259.115 423.905 259.099 423.561 259.254 423.487C259.487 423.376 260.045 423.459 260.534 423.752ZM335.61 401.561C336.348 402.086 337.36 402.566 337.876 402.583C339.707 402.759 339.389 405.284 337.451 406.213C336.443 406.695 335.657 407.687 335.81 408.405C335.919 409.055 335.323 409.868 334.54 410.067C333.722 410.372 332.765 411.094 332.316 411.66C331.097 413.562 327.411 415.241 326.77 414.231C326.471 413.759 326.912 413.021 327.687 412.649C328.54 412.24 329.438 411.107 329.785 410.062C330.176 409.085 330.574 408.279 330.815 408.339C331.055 408.4 331.443 408.214 331.624 407.863C331.849 407.58 331.616 407.691 331.194 407.981C330.013 408.987 329.056 407.161 329.81 405.482C330.529 403.908 332.387 403.808 332.622 405.453C332.934 407.06 334.054 406.435 335.137 404.159C335.57 403.249 335.666 402.764 335.252 403.226C334.958 403.718 334.175 403.918 333.686 403.625C333.119 403.369 333.025 403.063 333.456 402.944C335.134 402.404 335.463 401.807 333.993 401.721C332.919 401.621 332.713 401.456 333.411 401.121C333.953 400.861 334.993 401.066 335.61 401.561ZM288.904 424.649C289.788 424.928 290.165 425.362 289.7 425.585C289.312 425.771 288.238 425.671 287.353 425.392C286.469 425.113 286.092 424.679 286.557 424.456C286.945 424.27 288.019 424.37 288.904 424.649ZM298.506 422.419C298.964 422.024 299.91 421.922 300.596 422.207C302.502 423.139 302.689 423.752 301.216 424.458C300.053 425.015 299.891 424.917 300.556 423.896C300.962 423.262 300.981 422.814 300.473 422.969C300.043 423.087 299.303 423.354 298.752 423.443C298.322 423.561 297.229 423.909 296.531 424.244C295.713 424.548 294.837 424.441 294.623 424.104C294.324 423.633 294.789 423.41 295.933 423.301C296.844 423.303 298.015 422.918 298.506 422.419ZM306.957 420.125C307.067 420.775 306.706 420.684 306.236 419.944C305.688 419.24 305.664 418.724 306.068 418.882C306.428 418.973 306.891 419.542 306.957 420.125ZM294.695 428.198C295.256 427.49 295.651 427.476 295.606 428.201C295.56 428.925 296.223 428.696 297.912 427.535C299.369 426.485 299.989 426.188 299.626 426.889C299.107 427.665 299.863 427.741 302.247 427.038C304.089 426.595 305.957 425.875 306.379 425.585C307.724 424.677 311.257 424.828 311.856 425.771C312.753 427.186 310.011 429.554 306.103 430.724C304.072 431.346 301.979 432.349 301.496 433.02C299.552 435.533 293.168 434.552 291.158 431.387C290.132 429.77 291.161 428.047 292.663 428.821C293.187 429.009 294.048 428.772 294.695 428.198ZM307.179 423.181C307.606 423.855 304.773 425.125 303.571 424.823C303.09 424.702 303.659 424.165 304.744 423.645C305.907 423.088 307.008 422.912 307.179 423.181ZM345.98 418.376C347.848 417.656 349.176 418.952 351.498 423.725L353.17 427.315L348.635 431.158C346.117 433.244 344.502 435.159 344.948 435.385C345.438 435.677 345.403 435.782 344.887 435.766C344.371 435.749 341.752 437.356 339.148 439.307C336.468 441.294 332.314 443.988 329.799 445.281C327.327 446.642 324.94 448.137 324.611 448.734C324.317 449.226 323.585 449.665 323.069 449.649C322.51 449.565 320.057 450.477 317.654 451.629C314.356 453.122 312.549 453.461 311.141 452.994C310.015 452.655 308.984 452.622 308.759 452.905C308.577 453.256 308.038 452.724 307.517 451.744C306.918 450.801 306.991 449.8 307.533 449.54C307.998 449.317 308.25 448.758 308.036 448.421C307.779 448.017 307.143 447.97 306.635 448.126C305.938 448.46 305.852 448.325 306.456 447.684C307.095 446.939 307.01 446.804 305.858 446.742C304.826 446.709 305.086 446.321 306.713 445.541C308.341 444.761 308.857 444.777 308.338 445.553C307.119 447.455 311.82 448.012 315.033 446.385C316.618 445.537 317.831 445.219 317.778 445.772C317.713 446.945 320.715 444.189 321.383 442.375C321.731 441.33 321.56 441.06 320.94 441.358C320.397 441.618 319.668 441.265 319.283 440.658C318.642 439.648 318.839 439.641 320.806 440.192C322.653 440.712 322.944 441.012 322.562 442.161C321.936 444.042 322.262 444.237 324.045 443.383C324.898 442.974 325.908 441.699 326.325 440.445C326.881 438.773 327.338 438.379 328.653 438.539C329.495 438.75 330.743 438.328 331.27 437.724C332.288 436.621 332.168 436.591 330.474 436.788L328.539 436.925L330.089 436.182C331.364 435.483 331.356 435.311 329.963 435.188C328.649 435.028 328.606 434.96 329.982 434.74C334.937 433.946 335.945 433.463 334.839 432.676C334.264 432.248 333.991 431.501 334.286 431.008C334.7 430.546 335.224 430.734 335.737 431.542C336.763 433.159 337.468 432.997 338.551 430.721C339.104 429.841 340.018 429.051 340.569 428.963C341.24 428.905 341.956 428.122 342.157 427.323C342.315 426.457 342.841 425.853 343.357 425.87C344.707 425.926 343.654 424.586 341.543 423.489C339.963 422.753 339.827 422.379 340.589 420.872C341.1 419.924 342.091 419.098 342.96 419.033C343.751 419.005 345.119 418.613 345.98 418.376ZM340.666 425.93C341.542 426.037 341.55 426.209 340.93 426.506C340.465 426.729 339.554 426.726 339.108 426.501C338.541 426.245 337.878 426.475 337.584 426.968C337.213 427.497 337.154 427.086 337.346 426.115C337.6 424.764 337.868 424.548 338.605 425.073C339.102 425.537 340.03 425.883 340.666 425.93ZM335.449 427.903C335.791 428.442 335.652 428.86 335.058 428.881C334.542 428.865 333.856 428.579 333.599 428.175C333.385 427.838 333.602 427.383 333.989 427.197C334.455 426.974 335.064 427.297 335.449 427.903ZM327.163 434.598C327.435 435.346 327.045 436.323 326.2 436.904C325.433 437.447 324.888 438.499 325.117 439.18C325.312 439.965 325.029 439.837 324.268 438.796C323.421 437.621 323.493 436.62 324.391 435.487C326.153 433.325 326.583 433.207 327.163 434.598ZM316.124 441.733C315.667 442.128 315.691 442.644 316.215 442.832C316.661 443.057 316.832 443.326 316.599 443.438C316.367 443.549 315.439 443.203 314.624 442.715C313.2 441.905 313.235 441.8 314.921 441.431C316.057 441.15 316.538 441.271 316.124 441.733ZM312.839 444.362C313.077 445.214 312.919 446.08 312.531 446.266C312.066 446.489 311.655 446.159 311.545 445.509C311.436 444.859 310.896 444.327 310.225 444.385C309.597 444.51 309.856 444.122 310.786 443.676C311.984 443.015 312.465 443.136 312.839 444.362ZM358.099 441.292C358.826 442.437 358.679 442.683 357.786 442.232C357.057 441.879 356.549 442.035 356.496 442.588C356.423 443.589 356.904 443.709 359.657 443.269C361.076 443.115 361.103 442.839 360.074 442.014C359.371 441.385 359.056 440.57 359.35 440.077C360.163 438.81 360.532 439.072 363.161 441.941L365.422 444.546L362.775 446.43C361.199 447.449 359.87 448.701 359.576 449.193C359.1 450.036 358.229 450.893 353.883 454.557C352.814 455.421 349.649 458.08 346.864 460.381C341.793 464.656 335.803 468.756 330.343 471.461C327.363 472.977 327.285 473.015 324.218 470.093C322.521 468.534 321.211 466.79 321.265 466.237C321.439 465.715 320.747 464.465 319.95 463.529C319.069 462.459 318.839 461.778 319.432 461.757C319.948 461.774 320.362 461.311 320.338 460.796C320.272 460.213 320.897 460.88 321.674 462.264C322.374 463.685 323.462 464.921 323.943 465.041C324.424 465.162 324.571 464.916 324.315 464.512C324.015 464.041 324.577 463.332 325.584 462.849C326.98 462.181 326.972 462.009 325.699 461.916C324.866 461.876 324.497 461.614 324.884 461.428C325.349 461.205 325.023 461.01 324.19 460.97C323.158 460.938 323.211 460.385 324.481 458.722L326.243 456.56L327.13 458.595C328.094 460.592 329.754 460.5 330.251 458.416C330.39 457.998 330.193 458.005 329.786 458.639C329.302 459.31 329.027 459.355 329.115 458.697C329.26 456.696 330.618 456.923 332.029 459.146C332.798 460.358 334.367 461.715 335.534 462.121C336.582 462.498 337.141 462.581 336.609 462.221C335.305 461.441 336.385 459.957 338.06 460.208C340.174 460.512 344.082 459.342 345.798 457.905C346.944 457.004 347.102 456.138 346.333 454.925L345.221 453.174L344.774 455.497C344.397 457.61 343.769 457.735 343.01 455.903C342.874 455.529 342.212 455.759 341.41 456.407C340.685 457.017 339.79 457.358 339.344 457.133C338.94 456.975 337.459 457.509 336.072 458.35C334.642 459.123 333.317 459.583 333.06 459.178C332.846 458.842 332.951 458.528 333.338 458.342C333.691 458.261 334.079 458.075 334.268 457.897C334.458 457.718 336.853 456.394 339.558 454.922C342.34 453.413 344.917 451.739 345.245 451.142C346.283 449.591 350.728 447.197 351.198 447.938C351.454 448.342 350.358 449.482 348.781 450.501C347.247 451.588 346.384 452.617 346.83 452.842C347.397 453.098 348.835 452.496 350.291 451.447C355.006 448.045 356.014 447.562 356.399 448.168C356.954 449.044 358.729 448.018 359.216 446.555C359.807 444.778 355.787 443.542 354.921 445.363C354.531 446.34 354.213 446.317 353.486 445.172C352.759 444.027 352.898 443.609 354.274 443.389C355.178 443.219 356.092 442.43 356.25 441.563C356.713 439.585 356.988 439.541 358.099 441.292ZM372.403 456.661C374.156 459.422 375.42 461.891 375.273 462.137C374.727 463.189 370.253 466.651 370.299 465.927C370.317 465.479 369.604 465.469 368.751 465.878C367.899 466.286 367.466 467.197 367.695 467.877C368.104 468.999 368.026 469.036 366.025 468.59C364.298 468.1 363.791 468.255 363.253 469.479C362.785 470.494 362.088 470.828 360.385 470.854C359.199 470.895 357.4 471.406 356.443 472.128C355.444 472.783 353.944 473.765 352.936 474.248C351.894 474.836 351.522 475.365 352.209 475.651C352.861 476.041 352.551 476.19 351.047 476.208C349.895 476.145 348.692 475.843 348.436 475.439C348.051 474.833 348.283 474.722 349.246 474.963C351.17 475.446 354.655 472.019 353.3 470.999C352.726 470.572 352.624 470.093 353.012 469.908C353.477 469.685 354.129 470.075 354.514 470.681C355.112 471.624 355.31 471.617 355.382 470.616C355.42 469.72 355.962 469.46 357.545 469.404C360.434 469.337 363.652 466.126 362.204 464.8C360.918 463.571 357.845 464.78 358.7 466.128C358.999 466.599 358.817 466.95 358.224 466.971C357.708 466.954 356.893 466.466 356.551 465.928C356.209 465.389 356.305 464.903 356.744 464.957C357.259 464.973 358.251 464.147 359.072 463.05C360.419 461.351 360.651 461.239 361.207 462.115C361.592 462.721 362.108 462.737 362.479 462.208C362.886 461.574 363.134 461.806 363.302 462.867C363.479 464.101 363.642 464.198 363.946 463.086C364.337 462.108 364.08 461.704 362.998 461.432C361.916 461.16 362.263 460.115 364.682 456.76C366.358 454.463 368.12 452.301 368.542 452.011C369.042 451.683 370.386 453.323 372.403 456.661ZM351.929 472.184C352.376 472.409 352.512 472.783 352.047 473.006C351.659 473.191 350.825 473.152 350.379 472.927C349.89 472.634 349.796 472.327 350.261 472.104C350.649 471.919 351.44 471.891 351.929 472.184ZM345.122 476.588C346.241 475.964 345.982 476.352 344.499 477.678C342.515 479.331 341.62 479.672 340.538 479.4C339.413 479.061 339.37 478.994 340.359 478.959C340.995 479.006 341.374 478.648 341.118 478.244C340.861 477.84 341.163 477.519 341.997 477.559C342.633 477.605 344.079 477.176 345.122 476.588ZM398.299 452.068C398.427 452.27 398.331 452.755 397.994 453.18C397.734 453.568 397.261 453.619 397.048 453.282C396.791 452.878 396.965 452.355 397.352 452.17C397.817 451.947 398.213 451.933 398.299 452.068ZM351.76 493.259C351.833 492.258 351.988 492.184 352.586 493.127C353.142 494.002 352.736 494.636 351.418 495.268C349.248 496.308 348.553 495.851 349.248 493.76C349.596 492.715 349.871 492.671 350.702 493.503C351.456 494.371 351.688 494.26 351.76 493.259ZM374.522 482.614C376.417 481.617 376.32 482.103 374.342 484.72C373.142 486.174 372.22 486.791 371.766 486.394C371.397 486.132 370.563 486.092 369.943 486.389C369.323 486.686 368.559 486.438 368.174 485.832C367.618 484.956 367.998 484.598 370.347 484C371.835 483.637 373.746 482.985 374.522 482.614ZM390.481 474.789C390.694 475.126 390.521 475.648 390.055 475.871C389.668 476.057 389.299 475.794 389.318 475.346C389.294 474.831 389.511 474.375 389.743 474.264C389.898 474.19 390.224 474.385 390.481 474.789ZM354.759 493.842C354.868 494.493 354.508 494.402 354.037 493.661C353.49 492.957 353.466 492.442 353.869 492.6C354.23 492.69 354.692 493.259 354.759 493.842ZM367.399 486.203C367.484 486.338 367.155 486.935 366.586 487.471C366.094 487.97 365.741 488.052 365.717 487.536C365.755 486.64 367.057 485.664 367.399 486.203ZM366.008 490.383C366.137 490.585 366.04 491.071 365.703 491.496C365.444 491.883 364.971 491.934 364.757 491.598C364.501 491.194 364.675 490.671 365.062 490.485C365.527 490.262 365.923 490.249 366.008 490.383Z" fill="#B4D699"/>
</svg>
