<svg width="43" height="42" viewBox="0 0 43 42" fill="none" xmlns="http://www.w3.org/2000/svg">
<path d="M12.6563 13.2826C12.5999 13.3855 12.3119 13.1334 12.1985 13.1727C11.7258 13.3332 11.4434 13.2098 10.9768 13.3227C10.263 13.4783 8.88583 15.0193 7.39061 13.0629C7.39057 13.0628 7.39054 13.0628 7.3905 13.0627C7.37592 13.0433 7.36134 13.0235 7.34677 13.0034C7.06872 12.6216 6.91544 12.0931 6.62326 11.6454C6.33112 11.1976 4.2603 8.43892 4.41044 8.09039C4.6418 7.60141 6.06467 7.70857 6.24466 7.5516C6.3701 7.43873 6.37793 7.06263 6.53363 6.90093C7.03968 6.3797 7.46284 6.39971 7.61648 5.34257C8.05968 5.61147 8.49546 5.88803 8.92271 6.17247C9.11904 5.8359 9.82453 6.14973 9.98516 6.03864C10.1186 5.94597 10.0552 5.5841 10.2036 5.49827C10.3701 5.39998 10.7905 5.63147 11.0841 5.44563C11.5668 5.14438 11.3268 4.24732 11.6179 4.01039C11.9234 3.76448 12.6243 4.05045 12.9719 3.59964C12.9976 3.48467 13.024 3.36968 13.0512 3.25467C12.942 3.04739 12.8319 2.84054 12.7206 2.63414C12.9254 2.45763 13.1648 2.87843 13.382 2.8238C13.638 2.76034 13.6501 2.2934 13.8276 2.24798C13.9732 2.21127 14.2568 2.50869 14.4364 2.44191C14.7 2.34661 14.5233 1.85675 14.6522 1.72752C14.6979 1.67167 15.7752 1.16349 15.8454 1.15405C16.3396 1.04989 16.4901 1.7459 16.8831 1.75439C17.9695 1.77947 19.0537 1.14277 20.1293 0.947535C20.6046 0.859552 21.1061 0.927647 21.5692 1.08317C20.7199 2.82866 22.0906 4.37631 21.817 1.4963C22.2828 1.95192 22.7506 1.24394 23.2306 1.45867C23.5375 1.59969 23.6782 2.0267 24.1209 2.11691C24.889 2.26635 26.1237 1.48918 25.6847 3.47963C26.6019 3.44345 27.0204 4.29114 27.9214 3.24707C27.9914 3.163 28.0648 3.06704 28.1422 2.95779C28.4009 2.95715 28.4522 4.16818 28.5988 4.40906C28.7578 4.62601 30.0657 5.93557 30.282 6.13104C30.5141 6.3123 30.919 6.62693 31.2131 6.64849C31.5664 6.66648 32.9159 5.35936 32.0126 7.41334C32.6314 7.6968 32.7787 7.91121 33.0516 8.51902C33.1007 8.62993 32.8842 8.86813 32.9295 8.91321C33.0226 9.00509 33.3521 8.99973 33.5392 9.15701C33.849 9.41853 33.4839 10.0358 34.2347 9.32357C34.5432 9.41406 34.8539 9.5178 35.165 9.63475C35.0693 9.83609 34.9705 10.0351 34.8687 10.2317C35.1305 10.2185 35.3946 10.2121 35.6612 10.2132C34.3438 10.9279 35.6406 11.2811 36.177 10.5384C36.2298 11.1873 36.239 11.8303 36.2022 12.4579C34.6533 13.1294 36.4931 13.5857 37.3217 13.1991C37.3447 13.2618 37.3672 13.3248 37.3893 13.3879C37.1637 14.0803 37.6744 14.4776 37.5345 15.232C37.3809 15.9692 37.1934 15.9333 36.4556 16.2493C36.5224 16.3868 36.5869 16.527 36.649 16.6698C38.8562 17.2884 35.1816 17.3753 36.8022 18.631C36.2699 18.7772 36.0455 19.0005 35.9808 19.2761C35.8842 19.6665 36.1841 20.1882 36.3771 20.595C36.4139 20.6729 36.6724 20.7116 36.738 20.8196C36.8976 21.0783 36.4648 21.6194 37.2979 21.7438C37.0211 21.908 36.7429 22.0683 36.4632 22.2248C36.5805 22.4217 36.697 22.6153 36.8108 22.8151C37.0683 22.8696 37.3258 22.9241 37.5833 22.9786C36.6332 23.1349 36.8472 23.7262 36.5715 23.9382C36.5161 23.9795 36.1619 23.9005 36.0255 24.0316C35.865 24.1832 35.8754 24.5545 35.7045 24.738C36.0672 24.9322 36.4286 25.1297 36.7887 25.3304C36.8779 25.7963 35.8193 25.6204 35.6692 25.8194C35.6448 25.8561 35.467 26.6227 35.472 26.6697C35.5229 27.055 36.4178 27.2743 35.8595 28.1717C35.7585 28.3303 35.4128 28.3491 35.338 28.4961C35.2107 28.7527 35.4959 29.8507 36.053 30.2006C35.1576 30.1892 35.0196 31.207 34.6666 31.3529C34.5606 31.3953 34.0926 31.1638 33.8679 31.3394C33.6874 31.48 33.7723 32.1676 33.5651 32.3689C33.3464 32.5792 32.9194 32.4304 32.8244 32.5213C32.7347 32.6075 32.9698 32.8963 32.874 33.0362C32.5695 33.4702 31.826 33.5238 31.5713 33.8387C31.2011 34.2946 31.6639 35.3757 31.6345 36.1009C31.4925 36.1557 31.2363 36.1003 31.1377 36.2011C29.9181 37.452 28.1383 38.606 26.3551 39.2015C25.4968 39.5534 23.119 38.7414 24.2719 40.8805C24.1427 41.1998 23.0144 41.1571 22.1673 40.9842C21.5904 40.9077 21.1465 40.7783 20.97 40.7708C20.483 40.7478 20.0667 41.1355 19.6872 41.0921C18.557 40.9454 17.9538 40.4695 16.7096 40.4213C16.3889 40.4079 15.8971 40.7542 15.7283 40.6771C15.5288 40.5848 15.5093 40.0437 15.2798 39.904C14.7184 39.5764 13.6177 39.1701 13.159 38.7936C13.0752 38.7247 13.2625 38.3373 13.2045 38.1455C12.9812 37.3993 12.4434 37.0932 11.7764 38.2942C11.5834 37.2334 10.6327 37.4223 10.0507 37.0326C8.87188 36.2578 7.25005 34.437 5.93129 33.6559C5.86949 33.6218 5.80838 33.5908 5.74795 33.5631C4.93222 33.1822 4.44984 33.5855 4.07693 32.2492C3.99702 31.9513 3.95577 31.6302 3.87077 31.2682C3.66224 30.4021 4.26403 29.2247 2.77295 29.3704C2.63149 28.4079 2.07571 27.8237 2.88933 26.7511C2.60102 26.7896 2.31177 26.8246 2.02164 26.8562C1.97227 26.754 1.92334 26.6502 1.87559 26.5465C2.11196 26.4164 2.34898 26.2877 2.58664 26.1605C2.37712 25.4269 1.03108 24.7583 0.880454 24.0453C0.55638 22.8758 0.764523 19.8135 1.24184 18.8262C1.4653 18.2911 0.902103 18.2052 2.10225 18.0105C2.03219 17.8859 1.96332 17.7598 1.89567 17.6321C1.64816 17.5284 1.40139 17.4218 1.1554 17.3125C1.23306 16.6065 1.77369 15.8731 1.9113 15.2501C1.98389 14.9161 2.01566 14.5266 2.05174 14.1093C2.0957 13.2457 2.13515 12.1507 2.69219 11.5C2.88854 11.2709 3.50297 11.1081 3.58654 10.8501C3.71024 10.4735 2.91209 10.0808 3.08718 9.57632C3.3848 8.69328 5.05432 7.52356 5.50939 6.6876C5.64053 6.43527 5.44622 6.13582 5.53721 5.94163C5.93677 5.11662 6.43218 4.53052 6.98424 3.40644C8.51681 3.28953 9.00643 4.36036 9.77831 5.17316C10.4187 5.76948 11.4545 7.45442 11.587 8.18089C11.7176 8.67545 11.9119 9.30398 12.068 9.84488C12.4818 10.1863 12.3357 9.62338 11.6107 9.21126C11.2813 9.55147 10.8156 10.3233 10.4519 11.1912C10.1368 11.1398 9.81998 11.094 9.50124 11.0545C9.50063 11.0542 9.50002 11.054 9.4994 11.0537C9.0132 11.277 9.6794 11.7455 9.76973 12.0042C10.1713 13.1999 9.88074 14.5341 9.34479 16.0983C8.81025 17.5392 8.22453 19.0013 8.15136 20.0763C8.09545 20.5371 8.67229 21.8283 8.26738 22.2088C8.15645 22.3106 7.69892 22.436 7.69836 22.5253C8.14736 23.2126 8.65969 23.8247 9.21859 24.3734C9.18604 26.0578 10.6636 27.1764 11.8532 28.2849C11.8734 28.3036 11.8938 28.3227 11.9143 28.342C14.7262 31.031 19.6019 33.5673 21.3221 33.3071C21.5904 33.2805 21.8494 33.24 22.1087 33.1846C22.7154 33.0596 23.2522 32.4352 23.8949 32.2898C24.1609 32.2309 24.7148 32.776 24.6766 32.0906C24.8057 32.2499 24.935 32.4091 25.0644 32.5681C25.1908 32.153 25.0474 31.6614 25.2893 31.368C25.4993 31.1269 26.0659 30.4585 26.3135 30.2637C26.4425 30.1656 26.7057 30.4501 26.7983 30.3289C26.9587 30.1165 26.8552 29.3577 27.0479 29.0615C27.2262 28.7961 27.8962 28.5426 27.9707 28.2792C28.2459 27.3394 28.0891 26.1496 28.6205 25.2864C28.7696 25.0479 29.3612 24.8808 29.3792 24.7894C29.4121 24.614 28.9742 24.4041 28.9534 24.2755C28.8505 23.628 29.661 22.9266 29.8275 22.3601C30.1769 21.1984 30.3396 19.9359 30.4136 18.7658C30.443 18.242 30.4245 17.7566 30.3921 17.2937C30.3634 16.4612 29.7774 15.286 29.5301 14.382C29.4829 14.1859 29.9339 13.9063 29.8291 13.7713C29.7105 13.6211 29.3696 13.7719 29.2926 13.726C28.7626 13.3846 27.5394 12.7749 27.2429 12.1325C27.1902 12.0077 27.3575 11.619 27.296 11.578C27.2651 11.5566 27.0368 11.742 26.9263 11.7026C25.9876 11.3727 25.4263 10.9042 24.5842 10.3983C24.5508 10.3779 24.5169 10.3577 24.4825 10.3376C22.8912 9.40211 20.7651 9.55542 18.8327 9.42056C18.4105 9.3869 18.0127 8.61251 17.9465 8.62854C17.8073 8.66277 17.7905 9.21941 17.5413 9.39546C16.7281 9.96647 15.3821 9.70851 14.6037 10.2744C14.2223 10.5478 13.9138 11.4176 13.5908 11.7255C13.3307 11.9661 12.4829 12.0639 12.4841 12.4103C12.4845 12.6176 12.7164 13.168 12.6563 13.2826ZM24.4771 2.67724C24.1497 3.57166 25.2693 3.06372 25.0691 2.4755C25.0198 2.34012 24.5599 2.44205 24.4771 2.67724ZM28.3395 36.5134C28.5156 36.721 28.6921 36.9284 28.869 37.1354C28.8953 36.9692 28.9185 36.8037 28.9387 36.6388C28.7811 36.5575 28.625 36.4745 28.4702 36.3897C28.4269 36.4312 28.3833 36.4724 28.3395 36.5134Z" fill="#7A6F46"/>
<path d="M42.098 31.7208C42.1861 31.7114 42.0041 32.0287 42.0413 32.0898C42.1963 32.3527 42.097 32.6055 42.1776 32.904C42.2887 33.2662 43.499 34.3371 41.2312 35.4179C41.2311 35.4179 41.2311 35.4179 41.231 35.4179C41.2093 35.4288 41.1873 35.4397 41.1649 35.4507C40.7398 35.6557 40.2483 35.8268 39.774 36.0723C39.2998 36.3179 36.2464 37.921 36.0988 38.0547C35.9127 38.2446 36.6896 37.812 36.6477 37.8198C36.6274 37.8376 36.3852 38.0369 36.3479 38.0791C36.2304 38.2173 36.3875 38.0501 35.801 38.6677C36.1219 38.354 36.4281 38.0256 36.7211 37.6855C36.5738 37.8326 36.9376 37.3649 36.9013 37.3773C36.8738 37.3893 36.6444 37.6601 36.6254 37.666C36.6035 37.6748 36.8203 37.3579 36.759 37.384C36.6591 37.4253 36.112 38.1725 36.0269 38.2563C35.9403 38.344 36.182 37.9 35.9677 38.1493C35.908 38.2319 35.8485 38.3147 35.7894 38.3977C35.6677 38.5933 35.5455 38.7885 35.4227 38.9834C35.352 39.0653 35.6 38.6637 35.589 38.6467C35.576 38.6263 35.331 39.0009 35.3207 38.9921C35.3125 38.9846 35.4848 38.6694 35.458 38.6795C35.4201 38.6929 35.1592 39.1404 35.0988 39.2173C35.0761 39.2474 34.8467 39.4446 34.8384 39.4448C34.7889 39.4401 35.1333 38.8203 35.1259 38.7451C35.102 38.538 34.7051 38.9749 34.4835 39.1022C34.3841 39.159 34.3448 39.0915 34.339 38.9601C35.2812 37.4057 35.7349 36.048 34.4842 38.5987C34.6067 38.2065 34.1992 38.8581 34.1922 38.7077C34.188 38.6096 34.3425 38.2459 34.2732 38.2205C34.1515 38.1792 33.4757 39.0855 34.4131 37.2924C34.0974 37.5261 34.3345 36.8169 33.3889 38.3331C33.2911 38.4029 33.7188 37.4212 33.7482 37.2705C33.7733 37.1288 33.691 36.514 33.6521 36.4546C33.6109 36.3961 33.5302 36.3071 33.3935 36.4032C33.2316 36.5273 32.0987 37.9956 33.2491 36.1553C33.0189 36.204 33.0017 36.113 33.039 35.8215C33.0455 35.7686 33.2449 35.5163 33.233 35.5063C33.2082 35.4863 33.014 35.6344 32.948 35.6167C32.8384 35.5861 33.2433 35.0406 32.5688 35.8233C32.4003 35.9058 32.2271 35.9827 32.0502 36.0543C32.166 35.8895 32.2835 35.7261 32.4026 35.5641C32.2234 35.6934 32.0416 35.8196 31.8563 35.9418C32.9443 34.9168 32.1212 35.3365 31.5655 35.9955C31.6694 35.6574 31.7869 35.3243 31.9232 35.0033C33.2483 33.9433 31.8772 34.6285 31.1341 35.1742C31.1223 35.1559 31.1106 35.1375 31.099 35.1191C31.3447 34.7285 30.999 34.7643 31.0775 34.4609C31.0903 34.4576 31.1046 34.4534 31.1204 34.448C31.411 34.3423 31.5441 34.2411 32.1949 33.8089C32.1577 33.8338 32.121 33.8593 32.0847 33.8855C30.3916 35.1985 33.3016 32.8976 32.0066 33.9119C32.9871 32.9875 32.3882 33.3879 32.0897 33.6708C32.0538 33.7023 31.8798 33.8973 31.8218 33.9536C31.685 34.0911 31.8669 33.8051 31.3308 34.456C31.4781 34.2612 31.62 34.0622 31.7569 33.8595C31.65 33.9704 31.5448 34.0828 31.4408 34.1962C31.2809 34.4052 31.121 34.6143 30.9611 34.8233C31.4887 34.0975 31.2393 34.3417 31.3454 34.1541C31.3665 34.1158 31.5771 33.82 31.6193 33.7285C31.6697 33.6201 31.5737 33.6842 31.6149 33.5751C31.3793 33.9011 31.1453 34.2284 30.9129 34.5567C30.758 34.7154 31.3305 33.8214 31.3491 33.735C31.3528 33.7202 31.2244 33.7281 31.2069 33.7441C31.0697 33.8699 30.6031 34.6442 30.5906 34.4086C30.5882 34.366 30.7341 34.0884 30.7204 34.0653C30.6967 34.0241 30.2173 34.5637 29.8707 35.1206C30.2491 34.3904 29.9443 34.599 30.0244 34.3706C30.0494 34.3007 30.315 33.8504 30.3338 33.732C30.3498 33.6358 30.0522 33.9455 30.046 33.8599C30.0408 33.7677 30.252 33.3821 30.2481 33.3434C30.2442 33.3073 30.0423 33.5994 30.0166 33.5814C29.9389 33.5195 30.1623 32.9866 30.1006 32.9353C30.0134 32.8608 29.3545 33.685 28.9951 34.0058C29.008 33.9326 29.1094 33.7294 29.0851 33.7105C28.8476 33.5183 28.6084 33.1893 28.3966 32.7853C28.39 32.7237 28.385 32.6605 28.3811 32.5968C28.3766 32.4559 29.0841 31.1908 27.6181 33.0638C27.3285 33.3639 27.7418 32.4638 27.7086 32.4193C27.6786 32.3769 27.3826 32.6862 27.3488 32.6675C27.2469 32.6107 27.3689 32.3162 27.0284 32.5228C26.9397 32.5771 26.6025 32.9551 26.589 32.9375C26.5735 32.9154 26.8456 32.5088 26.8365 32.463C26.8127 32.3572 26.5923 32.3935 26.5774 32.2777C26.5753 32.2557 26.825 31.907 26.8869 31.7862C27.1287 31.314 27.0227 31.2933 26.2329 32.4119C26.6029 31.72 26.1061 32.2362 26.0006 32.2144C25.7796 32.1652 25.637 31.6763 25.1511 32.0407C24.8452 32.2708 24.502 32.78 24.6525 32.241C24.6857 32.1213 24.7418 31.9677 24.7801 31.8241C24.8708 31.4867 25.4182 30.4871 24.5766 31.5682C24.6674 31.2013 24.4391 31.3505 25.0126 30.3268C24.8457 30.5525 24.6789 30.7782 24.5121 31.0039C24.4947 31.0005 24.4772 30.9971 24.4598 30.9936C24.6054 30.7693 24.7511 30.5449 24.8967 30.3206C24.8399 30.1952 24.0991 31.0211 24.0195 30.9574C23.8865 30.8525 23.7578 30.2482 23.8253 29.8562C23.8615 29.6486 23.532 30.1171 24.1595 29.1195C24.0968 29.1758 24.0341 29.232 23.9713 29.2882C23.8145 29.4932 23.6576 29.6981 23.5005 29.903C23.4004 29.8462 23.5174 29.4396 23.4254 29.3801C23.2586 29.2733 22.595 29.672 22.6987 29.1714C22.7253 29.0455 22.9862 28.5778 22.9422 28.553C22.8784 28.5165 22.3414 29.2168 22.254 29.1728C22.1027 29.0946 22.4741 28.091 22.3056 28.0597C22.2552 28.0495 22.0372 28.2959 21.99 28.3037C21.7899 28.339 21.719 28.2493 21.2977 28.5622C21.7123 27.8112 22.4086 26.9704 23.0686 26.088C23.5656 25.4211 24.7154 23.8734 25.1692 23.3042C25.4873 22.9036 25.9253 22.412 26.2734 21.9695C26.6499 21.6965 26.3744 22.1098 25.9631 22.7945C26.1321 22.8883 26.3042 22.9811 26.4794 23.0734C26.3088 23.3296 26.1388 23.5862 25.9693 23.8432C25.9689 23.8437 25.9685 23.8442 25.9681 23.8448C25.8184 24.1757 26.3182 23.5612 26.458 23.4412C27.7859 22.2873 27.6323 23.8246 27.9196 24.2545C27.9787 24.345 28.4832 24.1874 28.2615 24.6399C28.2036 24.7577 27.9419 25.1527 27.9464 25.1806C28.2478 25.0446 28.5499 24.9087 28.8536 24.774C28.7405 25.5864 29.3956 25.296 29.7729 25.4184C30.7882 25.7452 31.8966 26.081 32.7031 26.8969C32.8377 27.0342 33.1972 26.9846 33.2952 27.1869C33.2855 27.1948 33.2722 27.2088 33.2543 27.2305C33.1912 27.3015 32.7272 27.9052 33.0987 27.4755C32.9742 27.6384 32.8499 27.8014 32.7257 27.9645C32.9058 27.7905 33.1962 27.425 33.2579 27.4105C33.3073 27.3978 33.4273 27.4411 33.43 27.5354C33.4307 27.5823 33.2168 27.9003 33.2397 27.9125C33.2813 27.9316 33.6448 27.5339 33.7035 27.5696C33.7556 27.6014 33.6264 28.0387 33.7073 28.0125C33.9925 27.9191 34.5366 27.4809 34.6795 27.7747C34.7181 27.8567 34.5394 28.3308 34.5669 28.3318C34.6224 28.3327 34.8934 27.9333 34.9554 27.8992C35.2704 27.7278 35.1995 28.369 35.3437 28.5003C35.8065 28.9276 36.6367 29.2874 37.2413 30.2916C37.3099 30.4083 37.3925 30.5444 37.4769 30.6965C37.3767 30.5619 37.2859 30.4723 37.0818 30.685C37.0265 30.7406 36.6619 31.1233 36.6679 31.1289C36.6756 31.1359 36.9188 30.8744 36.9399 30.8545C37.0913 30.7192 37.3646 30.4754 37.2162 30.8154C37.1864 30.8799 36.9633 31.229 36.972 31.233C36.9759 31.2357 37.1413 31.0062 37.1685 30.9896C37.4102 30.8423 37.4115 31.0359 37.5127 31.2054C37.7099 31.5301 38.384 31.2841 38.7189 31.7892C38.7922 31.8995 38.4668 32.656 38.4845 32.6564C38.5239 32.6594 38.8127 32.1894 38.9473 32.1092C39.3966 31.8488 39.4248 32.5504 39.8248 32.4875C40.0218 32.4552 40.6137 32.0165 40.8598 32.0096C41.0547 31.9995 41.1706 32.4506 41.431 32.2732C41.5879 32.1641 42.0009 31.7338 42.098 31.7208ZM34.4213 37.7781C34.8865 36.9466 34.3681 37.5665 34.1783 38.0452C34.1361 38.1534 34.3009 37.9942 34.4213 37.7781ZM29.6388 32.0568C29.4759 32.2749 29.3133 32.4931 29.1507 32.7114C29.2426 32.6389 29.3334 32.5654 29.4232 32.4909C29.5079 32.3501 29.5933 32.2097 29.6795 32.0699C29.666 32.0656 29.6524 32.0613 29.6388 32.0568Z" fill="#7A6F46"/>
</svg>
