<svg width="43" height="40" viewBox="0 0 43 40" fill="none" xmlns="http://www.w3.org/2000/svg">
<path d="M12.6127 12.3935C12.5573 12.4959 12.2706 12.2432 12.1582 12.2819C11.8123 12.398 11.5696 12.3625 11.2792 12.3784C11.1763 12.3843 11.0679 12.3967 10.9466 12.4262C10.2283 12.5777 8.85224 14.1362 7.3392 12.0917C7.06097 11.71 6.9063 11.1826 6.61404 10.735C6.32193 10.2871 4.2508 7.52875 4.39918 7.18142C4.62831 6.69328 6.0438 6.80557 6.22181 6.65054C6.3461 6.5384 6.35251 6.1632 6.50692 6.00231C6.77702 5.72073 7.03198 5.59707 7.22485 5.37452C7.38736 5.18797 7.50812 4.93138 7.57853 4.45049C8.02002 4.72033 8.45415 4.99776 8.87965 5.28312C9.0741 4.94737 9.77611 5.26294 9.93503 5.15277C10.0673 5.06068 10.0033 4.69913 10.1505 4.6138C10.3158 4.51604 10.7342 4.74845 11.0251 4.56373C11.0753 4.53214 11.1175 4.49426 11.1532 4.4514C11.4587 4.0854 11.2934 3.34229 11.5517 3.13137C11.8552 2.88608 12.5519 3.17355 12.8958 2.72404C12.9211 2.6092 12.9471 2.49434 12.9739 2.37946C12.865 2.17209 12.7551 1.96515 12.6442 1.75865C12.8474 1.58267 13.0862 2.00368 13.3016 1.94951C13.5557 1.88664 13.5669 1.41993 13.7432 1.37479C13.888 1.33831 14.1702 1.63609 14.3484 1.56967C14.4067 1.54836 14.4432 1.50767 14.4663 1.45569C14.547 1.27459 14.462 0.955977 14.5616 0.855881C14.606 0.799414 15.6757 0.292697 15.7463 0.284123C16.2375 0.180711 16.3875 0.876748 16.7777 0.885416C17.4492 0.901592 18.1034 0.664847 18.7708 0.435621C19.1827 0.29366 19.5972 0.154829 20.002 0.079834C20.4742 -0.00824261 20.9727 0.0597005 21.4326 0.214962C20.5965 1.96079 21.9447 3.50606 21.6785 0.627913C22.1398 1.08318 22.6052 0.374827 23.0832 0.589039C23.1865 0.636487 23.2716 0.71799 23.3557 0.807845C23.5198 0.982394 23.6757 1.18611 23.9671 1.24598C24.7183 1.39016 25.9742 0.619123 25.5464 2.61464C26.5141 2.59831 26.8833 3.43202 27.7431 2.36771C27.811 2.28264 27.8823 2.18568 27.9577 2.07551C28.1921 2.06318 28.238 3.27027 28.3946 3.51639C28.5272 3.69681 29.3389 4.48809 29.7841 4.9521C29.9215 5.09136 30.0287 5.19759 30.0819 5.23965C30.3124 5.41963 30.7141 5.73206 31.0067 5.75276C31.3567 5.76851 32.7033 4.45918 31.8 6.51283C31.9783 6.59258 32.1179 6.66988 32.2314 6.75148C32.5085 6.95208 32.6406 7.18081 32.831 7.61142C32.8796 7.72181 32.663 7.95994 32.708 8.00469C32.8002 8.0957 33.1287 8.08931 33.3147 8.24544C33.623 8.50555 33.2562 9.12085 34.0074 8.40899C34.2908 8.49113 34.5763 8.5848 34.8618 8.68909C34.886 8.69796 34.9101 8.70691 34.9343 8.71593C34.8382 8.91677 34.739 9.1153 34.6368 9.31136C34.898 9.29733 35.1616 9.29015 35.4275 9.29043C34.1117 10.0056 35.402 10.3495 35.9414 9.61274C35.9922 10.2586 35.9998 10.8987 35.9613 11.523C35.3391 11.7983 35.2654 12.0249 35.4467 12.1752C35.7183 12.3931 36.583 12.5131 37.078 12.2577C37.1008 12.32 37.1232 12.3826 37.1451 12.4453C36.9178 13.1338 37.4271 13.5263 37.2872 14.2787C37.1463 14.9504 36.9741 14.9736 36.3839 15.2188C36.329 15.2411 36.2702 15.265 36.2073 15.2909C36.274 15.4274 36.3383 15.5666 36.4003 15.7084C38.6048 16.3284 34.9316 16.4209 36.5517 17.694C36.0194 17.8278 35.7949 18.0396 35.7319 18.2962C35.6369 18.6702 35.9387 19.1806 36.1317 19.588C36.1685 19.6661 36.4274 19.7027 36.4929 19.8116C36.6524 20.0744 36.2181 20.6239 37.0514 20.7462C36.7748 20.9094 36.4969 21.0677 36.2175 21.2228C36.3351 21.418 36.4518 21.6107 36.5659 21.8092C36.8234 21.8637 37.0809 21.9182 37.3384 21.9727C36.6166 22.0906 36.5693 22.4531 36.4651 22.7181C36.4323 22.8015 36.3943 22.8743 36.3286 22.9237C36.2733 22.9645 35.9191 22.8855 35.7831 23.0155C35.623 23.1655 35.6343 23.5338 35.4636 23.716C35.8265 23.9096 36.1881 24.1064 36.5484 24.3065C36.6382 24.77 35.5801 24.5926 35.4307 24.7896C35.4067 24.826 35.2309 25.587 35.2356 25.6336C35.2858 26.0024 36.1156 26.2187 35.6826 27.0312C35.6658 27.0621 35.6472 27.0939 35.6265 27.1265C35.5261 27.2839 35.1808 27.3016 35.1065 27.4474C34.9807 27.7016 35.2688 28.793 35.8252 29.1433C34.9317 29.1292 34.7971 30.1403 34.4442 30.2849C34.3385 30.3268 33.8705 30.0951 33.6468 30.269C33.5351 30.3554 33.5282 30.6449 33.4884 30.9036C33.4636 31.0657 33.426 31.2162 33.3479 31.292C33.1302 31.5005 32.7036 31.351 32.6093 31.4411C32.52 31.5264 32.7556 31.8146 32.6605 31.9535C32.3582 32.3842 31.616 32.4359 31.3638 32.7476C30.9971 33.1989 31.4623 34.2772 31.4346 35.0006C31.3732 35.0239 31.2893 35.027 31.2067 35.0308C31.0999 35.0358 30.9952 35.0422 30.9397 35.0988C29.9031 36.1566 28.4743 37.1535 26.9635 37.7817C26.705 37.8904 26.4452 37.989 26.1866 38.0771C25.3567 38.4274 22.9142 37.6287 24.0421 39.7712C23.8826 40.1015 22.7213 40.0468 22.0255 39.8522C21.5751 39.7655 21.0954 39.6483 20.9063 39.6397C20.3686 39.6191 19.9237 40.0016 19.5583 39.9603C19.0827 39.9039 18.6969 39.7744 18.318 39.6507C17.8086 39.4823 17.3083 39.3254 16.5985 39.294C16.2804 39.2817 15.7901 39.6286 15.6221 39.5517C15.449 39.4716 15.4127 39.0487 15.2552 38.8508C15.2325 38.8222 15.207 38.7982 15.1779 38.7805C14.6206 38.4559 13.5259 38.0526 13.0717 37.6779C12.9886 37.6094 13.1762 37.2221 13.1191 37.0309C13.1044 36.9812 13.0882 36.9336 13.0709 36.8883C12.8293 36.2547 12.3212 36.063 11.6978 37.184C11.5384 36.3022 10.8658 36.2929 10.3017 36.0857C10.1888 36.0446 10.0805 35.9953 9.9848 35.9313C9.44948 35.5724 8.79241 34.9892 8.13382 34.3918C7.39767 33.7312 6.54681 32.9319 5.89347 32.5801C5.83567 32.5504 5.77805 32.5233 5.72071 32.4991C4.941 32.1583 4.44539 32.5491 4.04917 31.1854C3.97045 30.889 3.93056 30.5698 3.84664 30.2094C3.82717 30.1245 3.81537 30.0356 3.80842 29.9446C3.73634 29.1163 4.09755 28.1923 2.75667 28.3238C2.66288 27.6936 2.40409 27.2441 2.45157 26.6954C2.4779 26.4036 2.59394 26.087 2.87987 25.7182C2.59176 25.7572 2.30272 25.7927 2.01279 25.8248C1.96367 25.7232 1.91505 25.6202 1.86756 25.5171C2.10402 25.3873 2.34112 25.2588 2.57886 25.1318C2.40561 24.5184 1.44759 23.982 1.04269 23.3835C0.961219 23.2654 0.902476 23.1477 0.877481 23.0324C0.719496 22.348 0.642853 20.9673 0.797519 19.7795C0.89361 18.9727 1.07322 18.2541 1.24165 17.8471C1.46513 17.317 0.901774 17.231 2.10159 17.0375C2.03145 16.9138 1.96249 16.7885 1.89475 16.6617C1.64717 16.5585 1.40034 16.4524 1.15428 16.3436C1.15469 16.3399 1.15511 16.3363 1.15554 16.3327C1.23751 15.6314 1.76985 14.9166 1.91388 14.2679C1.98822 13.9276 2.01846 13.5491 2.04597 13.1635C2.07653 12.5633 2.10094 11.8505 2.30697 11.2545C2.39428 11.0013 2.51447 10.7689 2.68048 10.5746C2.87641 10.3469 3.48969 10.1875 3.57267 9.93129C3.61769 9.79252 3.53673 9.65061 3.42506 9.50231C3.23642 9.25271 2.96126 8.97798 3.07069 8.66462C3.19857 8.30158 3.56248 7.87207 3.97969 7.44542C4.5497 6.85646 5.2256 6.2898 5.48194 5.79857C5.50186 5.76007 5.51417 5.72082 5.52105 5.68117C5.55923 5.46076 5.43113 5.21928 5.50757 5.05596C5.8251 4.38695 6.23756 3.86491 6.64967 3.09385C6.74509 2.92055 6.84112 2.736 6.94467 2.5319C8.47606 2.42163 8.95971 3.49309 9.73312 4.3024C10.3818 4.89365 11.4145 6.58205 11.5364 7.3123C11.6647 7.80751 11.8603 8.4357 12.0178 8.97614C12.4407 9.31389 12.2937 8.75143 11.5731 8.33493C11.5728 8.33527 11.5725 8.3356 11.5722 8.33593C11.4118 8.50678 11.1963 8.79823 10.991 9.15433C10.798 9.48642 10.6084 9.87392 10.4309 10.2902C10.3084 10.2698 10.1855 10.2504 10.0624 10.2317C9.86943 10.2026 9.67571 10.1757 9.48135 10.151C9.48074 10.1508 9.48012 10.1505 9.47951 10.1502C8.99466 10.3708 9.66156 10.8374 9.75274 11.0938C9.8367 11.3378 9.89059 11.5868 9.91901 11.8421C9.97695 12.3664 9.92761 12.9201 9.80855 13.5049C9.70054 14.0306 9.54371 14.5624 9.33903 15.1525C9.05376 15.9666 8.79443 16.5604 8.56367 17.2775C8.34553 17.9418 8.19152 18.5666 8.15134 19.0879C8.14496 19.1708 8.15677 19.2879 8.1793 19.426C8.26276 20.0172 8.60064 20.8845 8.26474 21.1974C8.15364 21.2984 7.69606 21.4235 7.6953 21.512C7.73364 21.5702 7.77245 21.6279 7.8117 21.6851C8.23028 22.2949 8.69984 22.8425 9.20787 23.3376C9.20588 23.3963 9.20599 23.4547 9.20811 23.5127C9.23703 24.2911 9.61508 24.9748 10.1174 25.5675C10.6381 26.1835 11.1952 26.6136 11.8154 27.2091C11.8376 27.2301 11.8598 27.2511 11.8819 27.2721C12.3498 27.7129 12.8231 28.1051 13.358 28.521C13.9069 28.9448 14.4795 29.3501 15.0595 29.7274C15.6404 30.105 16.231 30.4561 16.818 30.7699C17.4064 31.0845 17.9933 31.3625 18.5563 31.5872C19.1204 31.8128 19.6636 31.9837 20.1292 32.0805C20.685 32.1821 20.7694 32.1912 21.1804 32.175C21.5331 32.1386 21.8175 32.0827 22.0375 32.0338C22.3799 31.9667 22.8951 31.5365 23.3443 31.3059C23.4634 31.2469 23.5866 31.199 23.7172 31.1705C23.9795 31.1137 24.5317 31.66 24.4913 30.9768C24.6203 31.1362 24.7495 31.2954 24.879 31.4544C25.0022 31.0415 24.8574 30.551 25.0956 30.2614C25.1883 30.149 25.3543 29.9631 25.531 29.7649C25.7448 29.5269 25.9726 29.2699 26.1084 29.1695C26.2363 29.0727 26.4999 29.3567 26.5915 29.2368C26.7505 29.0266 26.6443 28.2716 26.834 27.9794C26.9632 27.7853 27.3494 27.6098 27.5807 27.4182C27.6668 27.3479 27.7308 27.2769 27.7506 27.2071C28.0218 26.2743 27.8604 25.0939 28.3875 24.2412C28.4014 24.2189 28.4191 24.1974 28.4399 24.1766C28.6409 23.9766 29.1277 23.8326 29.1437 23.7509C29.176 23.577 28.7379 23.3677 28.7168 23.2402C28.6121 22.599 29.4198 21.9069 29.585 21.3444C29.6137 21.2491 29.6421 21.1494 29.6686 21.0513C29.9627 19.9498 30.0854 18.9343 30.1647 17.7859C30.1977 17.0845 30.1733 16.8696 30.1436 16.3339C30.141 16.2969 30.1377 16.2592 30.1335 16.2202C30.0893 15.791 29.9401 15.2715 29.751 14.7637C29.5871 14.3133 29.3922 13.865 29.2974 13.4605C29.2514 13.2662 29.702 12.9862 29.5985 12.8527C29.596 12.8494 29.5932 12.8463 29.5904 12.8433C29.4659 12.7106 29.1394 12.8549 29.0648 12.8108C28.7472 12.6201 28.2048 12.3087 27.7418 11.977C27.4264 11.7476 27.1498 11.5018 27.0365 11.2367C26.9849 11.1127 27.1529 10.7246 27.0919 10.6839C27.0613 10.6627 26.8337 10.8486 26.7243 10.8099C26.5529 10.7489 26.3947 10.6849 26.2448 10.6167C25.5548 10.3042 25.1464 9.9575 24.4059 9.51893C24.3675 9.49625 24.3289 9.47388 24.2901 9.45189C23.4705 8.99575 22.7708 8.84333 21.8306 8.7246C20.9263 8.62085 20.0061 8.62947 19.091 8.57773C18.9666 8.57065 18.8422 8.56242 18.7176 8.55256C18.3007 8.51853 17.9057 7.74379 17.8396 7.75976C17.7017 7.79388 17.6858 8.35045 17.4395 8.52596C17.0956 8.76857 16.679 8.8551 16.2394 8.92271C15.6299 9.0148 14.9716 9.07528 14.532 9.39731C14.2247 9.62006 13.9595 10.2436 13.7052 10.6292C13.6485 10.7142 13.5915 10.7877 13.5329 10.8431C13.2765 11.0816 12.4359 11.1761 12.4383 11.5224C12.4395 11.7292 12.6717 12.2795 12.6127 12.3935ZM24.3202 1.80555C23.993 2.69921 25.1045 2.18937 24.9089 1.60291C24.86 1.46747 24.4026 1.57011 24.3202 1.80555ZM28.1531 35.4004C28.3292 35.6081 28.5057 35.8154 28.6825 36.0225C28.7082 35.8568 28.7307 35.6918 28.7502 35.5275C28.593 35.4459 28.4372 35.3626 28.2828 35.2775C28.2399 35.3187 28.1967 35.3597 28.1531 35.4004Z" fill="#7A6F46"/>
<path d="M41.8153 30.5997C41.9035 30.5904 41.7211 30.9073 41.7581 30.9683C41.9126 31.2309 41.8125 31.483 41.8929 31.7809C42.0034 32.1314 43.2392 33.2318 40.8774 34.3234C40.4521 34.528 39.9608 34.6994 39.4866 34.9454C39.0128 35.1917 35.9586 36.7931 35.8117 36.9282C35.6276 37.1218 36.4056 36.6901 36.362 36.6954C36.3417 36.7133 36.0998 36.9128 36.0628 36.9554C35.9465 37.095 36.1041 36.9283 35.5175 37.5459C35.8387 37.2324 36.1451 36.9042 36.4383 36.5644C36.3373 36.662 36.4754 36.4863 36.5594 36.3603C36.6004 36.2997 36.6304 36.2521 36.6197 36.2571C36.5923 36.2692 36.363 36.5401 36.3443 36.5462C36.3228 36.5553 36.5398 36.2386 36.4788 36.265C36.3793 36.3066 35.8325 37.054 35.7479 37.1381C35.6622 37.2264 35.9043 36.7827 35.6903 37.0322C35.6307 37.1149 35.5713 37.1977 35.5122 37.2808C35.3905 37.4763 35.2682 37.6715 35.1454 37.8663C35.075 37.9485 35.3231 37.5469 35.3124 37.53C35.2996 37.5098 35.0548 37.8845 35.0447 37.8758C35.0367 37.8685 35.2092 37.5535 35.1826 37.5637C35.145 37.5772 34.884 38.0247 34.8238 38.1017C34.8153 38.1125 34.7804 38.1456 34.7386 38.1833C34.6654 38.2497 34.5695 38.3296 34.5648 38.33C34.5159 38.3256 34.8603 37.7058 34.8534 37.6309C34.8306 37.4244 34.4348 37.8619 34.2145 37.9899C34.1157 38.047 34.0769 37.9799 34.0716 37.8487C35.0132 36.2939 35.4686 34.9371 34.2172 37.4875C34.2461 37.3954 34.2457 37.3609 34.2282 37.3601C34.1709 37.3576 33.9316 37.7121 33.9267 37.5972C33.9227 37.4993 34.0775 37.1358 34.0087 37.1107C33.8882 37.07 33.2132 37.9767 34.1507 36.1837C33.8356 36.4176 34.0739 35.7091 33.1288 37.2256C33.031 37.2954 33.4594 36.3141 33.4893 36.1637C33.4911 36.1538 33.4924 36.1417 33.4932 36.1278C33.5035 35.9409 33.4317 35.4044 33.3959 35.3495C33.355 35.2912 33.2749 35.2026 33.1385 35.2989C32.9777 35.4237 31.8458 36.8927 32.9953 35.0518C32.7655 35.1007 32.7489 35.0102 32.7867 34.7193C32.7934 34.6664 32.9928 34.4141 32.9809 34.4042C32.9581 34.3858 32.7914 34.511 32.7138 34.5163C32.7074 34.5167 32.7016 34.5164 32.6966 34.5151C32.5871 34.4846 32.9926 33.9396 32.3179 34.7222C32.1496 34.8049 31.9768 34.882 31.8001 34.9539C31.916 34.7892 32.0335 34.6259 32.1528 34.4639C31.9737 34.5933 31.7921 34.7197 31.6069 34.842C32.6945 33.817 31.8743 34.2395 31.3165 34.8962C31.427 34.5651 31.5257 34.2121 31.6491 33.8736C32.9894 32.8335 31.5886 33.4771 30.8313 34.0019C30.8194 33.983 30.8079 33.9643 30.7966 33.9458C31.0517 33.5647 30.72 33.6137 30.8319 33.3659C30.8425 33.3589 30.8546 33.3512 30.8684 33.3425C31.1264 33.1866 31.272 33.1073 31.9269 32.6812C31.8881 32.7045 31.8513 32.7308 31.8166 32.7599C30.1292 34.0842 33.0729 31.8237 31.7635 32.8203C32.41 32.2181 32.3662 32.1725 32.1849 32.304C32.0889 32.3719 31.9545 32.4874 31.8486 32.5811C31.8128 32.6127 31.6387 32.8078 31.5809 32.8642C31.4447 33.0022 31.6269 32.7165 31.0908 33.3673C31.2383 33.1728 31.3804 32.9739 31.5176 32.7714C31.4109 32.8824 31.3059 32.995 31.202 33.1085C31.0421 33.3176 30.8822 33.5266 30.7223 33.7356C31.25 33.0098 31.0013 33.2546 31.108 33.0675C31.1264 33.0342 31.2874 32.8071 31.3574 32.6879C31.368 32.6698 31.3766 32.6541 31.3822 32.6421C31.4327 32.5338 31.3372 32.5982 31.3787 32.4892C31.1431 32.8153 30.9093 33.1427 30.677 33.4711C30.5227 33.6302 31.0953 32.7363 31.1141 32.65C31.118 32.6352 30.9905 32.6438 30.973 32.6597C30.8361 32.7858 30.3691 33.5598 30.3583 33.3253C30.3577 33.3147 30.3662 33.2898 30.3792 33.2579C30.4186 33.161 30.4987 32.9996 30.4886 32.9823C30.4653 32.9413 29.987 33.4816 29.6404 34.0385C30.0194 33.3086 29.7157 33.518 29.796 33.2897C29.8212 33.2198 30.0868 32.7695 30.1059 32.6513C30.1165 32.5865 29.9865 32.7062 29.8975 32.7648C29.8543 32.7935 29.8211 32.8078 29.8193 32.7799C29.8145 32.688 30.0258 32.3024 30.0221 32.2639C30.0183 32.2278 29.8165 32.5201 29.791 32.5021C29.7138 32.4404 29.9379 31.908 29.8767 31.857C29.7904 31.7832 29.1319 32.6076 28.773 32.9287C28.775 32.9181 28.7788 32.9047 28.7838 32.8894C28.813 32.8003 28.8842 32.6499 28.8635 32.6338C28.6598 32.4681 28.3138 32.0545 28.1794 31.7119C28.1694 31.6473 28.1619 31.5819 28.1565 31.517C28.1467 31.3717 28.8669 30.1175 27.3922 31.9832C27.1037 32.2843 27.5351 31.3991 27.4973 31.3509C27.4677 31.3088 27.172 31.6183 27.1386 31.5999C27.0446 31.5477 27.1445 31.29 26.8853 31.4209C26.8659 31.4307 26.8445 31.4428 26.8209 31.4573C26.7324 31.5118 26.3955 31.89 26.3823 31.8726C26.3669 31.8506 26.6393 31.4442 26.6305 31.3987C26.6073 31.2933 26.3881 31.3305 26.3738 31.2152C26.3719 31.1933 26.6217 30.8446 26.6837 30.7239C26.9261 30.2522 26.8208 30.2319 26.0309 31.3505C26.4016 30.6591 25.9056 31.1759 25.801 31.1547C25.7363 31.1404 25.6796 31.0892 25.6189 31.0327C25.4722 30.8958 25.2998 30.7261 24.9576 30.9852C24.6525 31.216 24.3092 31.7251 24.4611 31.187C24.4946 31.0676 24.5511 30.9142 24.5897 30.7708C24.6813 30.434 25.2294 29.4349 24.3884 30.5164C24.3976 30.4798 24.4036 30.4483 24.4075 30.4203C24.4426 30.1684 24.3101 30.1974 24.8268 29.2767C24.66 29.5024 24.4933 29.7282 24.3266 29.9539C24.3093 29.9506 24.2919 29.9473 24.2746 29.9439C24.4202 29.7196 24.5659 29.4952 24.7116 29.2709C24.6557 29.1461 23.9159 29.9727 23.837 29.9095C23.7232 29.8195 23.6144 29.3597 23.6302 28.9832C23.6328 28.9233 23.6385 28.8656 23.648 28.8119C23.6849 28.6046 23.3554 29.0732 23.9832 28.0758C23.9207 28.1322 23.8581 28.1885 23.7954 28.2448C23.6387 28.4498 23.4818 28.6548 23.3248 28.8597C23.2254 28.8034 23.3434 28.3975 23.2521 28.3384C23.0867 28.2328 22.4251 28.6329 22.5299 28.133C22.5547 28.0178 22.7762 27.6151 22.7794 27.5302C22.7796 27.5225 22.7781 27.5174 22.7744 27.5154C22.7111 27.4792 22.1742 28.1796 22.0874 28.136C21.9368 28.0584 22.31 27.0562 22.1427 27.0257C22.0926 27.0158 21.8748 27.2623 21.8278 27.2702C21.6284 27.3061 21.5581 27.2168 21.1376 27.5304C21.5531 26.7801 22.2494 25.9393 22.9095 25.057C23.4065 24.3901 24.5569 22.8429 25.011 22.2739C25.3291 21.8734 25.767 21.3817 26.1151 20.9392C26.4906 20.6653 26.2148 21.0784 25.8027 21.7624C25.9702 21.855 26.1409 21.9467 26.3145 22.0379C26.1438 22.294 25.9737 22.5505 25.804 22.8074C25.8036 22.8079 25.8032 22.8084 25.8028 22.809C25.6526 23.1396 26.1522 22.5248 26.2916 22.4045C26.4827 22.2406 26.6419 22.1306 26.7757 22.0639C27.4945 21.6986 27.5033 22.6266 27.6798 23.0821C27.6982 23.1309 27.7183 23.174 27.7409 23.2091C27.7993 23.2992 28.3014 23.1399 28.0793 23.5921C28.0212 23.7098 27.7595 24.1048 27.7638 24.1326C28.064 23.9958 28.3649 23.859 28.6673 23.7235C28.6427 23.8959 28.6529 24.0184 28.6877 24.1057C28.8164 24.4285 29.284 24.2678 29.579 24.3627C29.7772 24.4263 29.9783 24.4896 30.1797 24.5568C30.6863 24.7255 31.1967 24.9186 31.6662 25.1945C31.9649 25.3706 32.2343 25.5691 32.4993 25.8347C32.6394 25.9767 32.9957 25.9248 33.078 26.1135C33.0779 26.1298 33.0718 26.1497 33.0587 26.1753C33.0087 26.2564 32.5373 26.853 32.8953 26.4125C32.7697 26.5746 32.6444 26.7368 32.5191 26.8991C32.6828 26.7124 32.9771 26.3502 33.0372 26.3344C33.0625 26.3286 33.101 26.3345 33.1364 26.3542C33.1734 26.3748 33.2069 26.4103 33.2067 26.4576C33.2071 26.5043 32.9933 26.8223 33.016 26.8344C33.0573 26.8533 33.4196 26.4549 33.4778 26.4902C33.5136 26.5121 33.4623 26.7233 33.454 26.8464C33.45 26.9029 33.4547 26.9405 33.4797 26.9321C33.754 26.8409 34.2692 26.4271 34.4318 26.6645C34.4374 26.6727 34.4425 26.6816 34.4471 26.6913C34.4853 26.7731 34.3061 27.2469 34.3334 27.2477C34.3886 27.2485 34.6595 26.849 34.7213 26.8148C35.0337 26.6439 34.9645 27.2755 35.1039 27.4113C35.1047 27.4121 35.1056 27.4129 35.1065 27.4137C35.3731 27.6553 35.7324 27.8685 36.1214 28.1918C36.4264 28.4505 36.7257 28.7375 37.0403 29.2603C37.1099 29.3809 37.1772 29.5004 37.2312 29.6016C37.2891 29.6835 36.974 29.2849 36.8322 29.585C36.7766 29.6403 36.4121 30.0231 36.4177 30.0284C36.4253 30.0353 36.6683 29.7736 36.6891 29.7535C36.7206 29.725 36.7573 29.6918 36.7942 29.6602C36.9332 29.5398 37.08 29.4428 36.9611 29.7111C36.9311 29.7755 36.7079 30.1244 36.7165 30.1284C36.7204 30.131 36.8856 29.9015 36.9126 29.8847C37.0713 29.7872 37.1246 29.837 37.1717 29.9314C37.1962 29.9803 37.2182 30.0403 37.2522 30.0977C37.3683 30.2908 37.657 30.2805 37.9398 30.3481C38.1283 30.3934 38.3167 30.475 38.4479 30.6759C38.5207 30.7859 38.1946 31.542 38.2122 31.5423C38.2514 31.5452 38.54 31.0752 38.6741 30.9946C38.8004 30.9191 38.8957 30.9239 38.9737 30.9661C39.1713 31.0731 39.2598 31.4145 39.5467 31.3699C39.7424 31.3366 40.3332 30.8972 40.5794 30.8904C40.7173 30.8832 40.8187 31.1105 40.9567 31.1764C41.0125 31.2031 41.0748 31.2039 41.1487 31.1525C41.3054 31.0432 41.7184 30.6129 41.8153 30.5997ZM34.1573 36.6685C34.6225 35.837 34.1053 36.4576 33.9149 36.9359C33.8726 37.044 34.037 36.8846 34.1573 36.6685ZM29.4134 30.9771C29.2499 31.1947 29.0866 31.4124 28.9235 31.6303C29.0183 31.56 29.1114 31.4882 29.2024 31.4147C29.2865 31.2734 29.3712 31.1325 29.4568 30.9922C29.4424 30.9873 29.4279 30.9823 29.4134 30.9771Z" fill="#7A6F46"/>
</svg>
