<svg width="1920" height="299" viewBox="0 0 1920 299" fill="none" xmlns="http://www.w3.org/2000/svg">
<path d="M120.892 0C207.903 6.5423 275.901 63.031 275.901 131.751C275.901 134.501 275.79 137.233 275.575 139.941C359.098 155.099 432.053 191.338 484.446 240.967C517.407 234.213 552.038 230.612 587.761 230.612C680.461 230.612 765.809 254.852 833.699 295.549C888.934 251.601 964.96 224.455 1048.89 224.455C1125.33 224.455 1195.21 246.975 1248.81 284.198C1292.49 252.389 1349.29 231.148 1412.3 225.788C1412.29 225.231 1412.28 224.673 1412.28 224.113C1412.28 174.804 1464.19 134.83 1528.23 134.83C1542.08 134.83 1555.37 136.702 1567.69 140.135C1625.24 56.7947 1739.16 0.0498047 1870.29 0.0498047C1887.18 0.0498138 1903.77 0.990986 1920 2.80762V299H0V26.3145C24.6523 11.8769 54.5211 2.44841 87.0479 0H120.892Z" fill="#FFFFE7"/>
</svg>
